<svg width="47" height="53" viewBox="0 0 47 53" fill="none" xmlns="http://www.w3.org/2000/svg">
<path d="M23.5001 0.0662231L0.907227 7.43678L0.908522 38.5899L23.5001 31.2352V0.0662231Z" fill="black"/>
<path fill-rule="evenodd" clip-rule="evenodd" d="M45.1561 8.11735L24.4377 1.35829V30.5544L45.1543 37.2989L45.1561 8.11735ZM46.0914 38.59L46.0933 7.43686L23.5005 0.0663033V31.2353L46.0914 38.59Z" fill="black"/>
<path d="M35.3629 14.4531L35.1439 14.358C34.8751 14.8316 34.5519 15.2239 34.1723 15.535C33.7461 15.9088 33.2668 16.2231 32.7344 16.4787C32.2039 16.7337 31.7129 16.8975 31.2621 16.9734V14.9009C32.1411 14.7134 32.9306 14.331 33.6334 13.7531C34.3349 13.1732 34.8686 12.5352 35.2353 11.8391L37.341 12.5253V26.7869L35.1802 26.0836V15.7602C35.1802 15.2985 35.2404 14.8639 35.3629 14.4531Z" fill="black"/>
<path d="M0.906982 52.0279V42.7471H6.78814V43.756H2.00395V46.8712H6.2267V47.8682H2.00395V52.0279H0.906982Z" fill="black"/>
<path d="M8.21948 52.0255V45.6301L9.23356 45.2967V52.0255H8.21948Z" fill="black"/>
<path d="M11.1665 45.3018H12.1812V45.7395C12.1812 45.8544 12.1715 45.9488 12.1514 46.0267C12.1314 46.1027 12.0932 46.1786 12.0368 46.2512L12.2045 46.3595C12.5063 45.9389 12.8048 45.6365 13.0995 45.4536C13.3935 45.2714 13.7399 45.1803 14.1375 45.1803C15.0674 45.1803 15.7156 45.5329 16.0821 46.238C16.2181 46.5068 16.3023 46.7808 16.3392 47.0594C16.3735 47.34 16.3923 47.6457 16.3923 47.9792V52.0286H15.3776V47.9792C15.3776 47.2641 15.2513 46.7623 14.9962 46.4698C14.7741 46.2195 14.436 46.0928 13.9815 46.0928C13.4809 46.0928 13.08 46.2598 12.7783 46.5913C12.5626 46.8197 12.4098 47.1307 12.3172 47.5275C12.2259 47.925 12.1812 48.4691 12.1812 49.1591V52.0286H11.1665V45.3018Z" fill="black"/>
<path d="M21.3188 51.0078C21.708 50.8051 21.9949 50.5331 22.1794 50.1931C22.3135 49.9501 22.4028 49.7183 22.4475 49.4984C22.4909 49.2806 22.5155 49.1472 22.5239 49.0983C22.5485 48.9762 22.5803 48.887 22.6198 48.8289C22.6599 48.7735 22.7195 48.7411 22.7991 48.7325L22.7629 48.5384L21.2243 48.8666L20.3773 49.0369C19.8832 49.1333 19.5218 49.2924 19.2913 49.5103C19.1087 49.6979 19.0161 49.9329 19.0161 50.2168C19.0161 50.5245 19.1307 50.7728 19.3573 50.959C19.5833 51.1452 19.8883 51.2376 20.2691 51.2376C20.6505 51.2376 21.0002 51.1617 21.3188 51.0078ZM18.5816 51.6404C18.1956 51.299 18.0033 50.8342 18.0033 50.2406C18.0033 49.6576 18.217 49.1947 18.6463 48.8547C18.996 48.5708 19.5018 48.3595 20.1616 48.2228L22.5123 47.7593C22.5207 47.2403 22.3847 46.8395 22.1062 46.5556C21.8045 46.2466 21.3985 46.0928 20.8895 46.0928C20.4848 46.0928 20.1318 46.2043 19.8333 46.4275C19.5348 46.6507 19.3457 46.9478 19.2667 47.3215H18.2533C18.3646 46.6487 18.6677 46.1231 19.165 45.7461C19.6623 45.3691 20.2413 45.1803 20.9024 45.1803C21.2923 45.1803 21.6536 45.239 21.9871 45.3572C22.3219 45.4741 22.6036 45.6464 22.8341 45.8749C23.1372 46.1654 23.3282 46.5015 23.4072 46.8838C23.4869 47.2641 23.527 47.6576 23.527 48.0637V52.0286H22.5123V51.713C22.5123 51.5103 22.5524 51.2785 22.6314 51.0197L22.4644 50.9471C22.2507 51.2957 22 51.5677 21.7132 51.7619C21.5144 51.9005 21.289 51.9982 21.0384 52.0596C20.7885 52.1204 20.4912 52.1508 20.15 52.1508C19.4901 52.1508 18.9662 51.9798 18.5816 51.6404Z" fill="black"/>
<path d="M25.3872 45.3018H26.4019V45.7395C26.4019 45.8544 26.3916 45.9488 26.3721 46.0267C26.3521 46.1027 26.3139 46.1786 26.2595 46.2512L26.4265 46.3595C26.7283 45.9389 27.0268 45.6365 27.3202 45.4536C27.6155 45.2714 27.96 45.1803 28.3582 45.1803C29.2894 45.1803 29.9376 45.5329 30.3041 46.238C30.4382 46.5068 30.525 46.7808 30.5593 47.0594C30.5962 47.34 30.6143 47.6457 30.6143 47.9792V52.0286H29.5996V47.9792C29.5996 47.2641 29.472 46.7623 29.2182 46.4698C28.9948 46.2195 28.6561 46.0928 28.2041 46.0928C27.7029 46.0928 27.3001 46.2598 26.9983 46.5913C26.7833 46.8197 26.6305 47.1307 26.5392 47.5275C26.4486 47.925 26.4019 48.4691 26.4019 49.1591V52.0286H25.3872V45.3018Z" fill="black"/>
<path d="M33.7634 51.7011C33.2777 51.4 32.8996 50.9827 32.6295 50.4486C32.3589 49.9131 32.2235 49.3096 32.2235 48.6348C32.2235 47.9792 32.3589 47.3856 32.6295 46.86C32.8996 46.3324 33.2777 45.9204 33.7634 45.6246C34.2471 45.3288 34.8008 45.1803 35.4212 45.1803C36.1607 45.1803 36.7869 45.3724 37.301 45.758C37.8133 46.1436 38.1448 46.6639 38.2957 47.3215H37.2117C37.0835 46.9478 36.8581 46.6507 36.5369 46.4275C36.2151 46.2043 35.8421 46.0928 35.4212 46.0928C35.0067 46.0928 34.635 46.2024 34.3054 46.4203C33.9752 46.6401 33.7155 46.9432 33.5245 47.3281C33.3341 47.7137 33.2376 48.1482 33.2376 48.6348C33.2376 49.1386 33.3308 49.5863 33.518 49.9804C33.7051 50.3726 33.9655 50.6817 34.2989 50.9035C34.6337 51.128 35.0067 51.2376 35.4212 51.2376C35.8738 51.2376 36.2662 51.1128 36.5965 50.8613C36.9261 50.611 37.1469 50.2776 37.2577 49.8636H38.3436C38.2012 50.5773 37.8644 51.1366 37.336 51.542C36.807 51.9481 36.1685 52.1508 35.4212 52.1508C34.8008 52.1508 34.2471 52.0002 33.7634 51.7011Z" fill="black"/>
<path d="M40.998 48.0095C41.0906 47.9719 41.2033 47.9534 41.3393 47.9534H44.2967C44.4476 47.9534 44.5751 47.9719 44.6794 48.0095C44.7824 48.0452 44.8821 48.104 44.9779 48.1852L45.1087 48.0399C45.0297 47.9825 44.9799 47.9316 44.9598 47.8874C44.9397 47.8425 44.9216 47.7844 44.9054 47.7104C44.8821 47.5652 44.8419 47.4265 44.7856 47.2978C44.6198 46.9155 44.3627 46.6197 44.0163 46.4084C43.6718 46.1991 43.2839 46.0928 42.8546 46.0928C42.4168 46.0928 42.0322 46.1991 41.7026 46.4084C41.3723 46.6197 41.1152 46.9155 40.9333 47.2978C40.862 47.4516 40.8173 47.5889 40.8025 47.7104C40.794 47.7844 40.7772 47.8405 40.7539 47.8808C40.7293 47.9217 40.6781 47.9739 40.5985 48.0399L40.7293 48.1852C40.8173 48.104 40.9067 48.0452 40.998 48.0095ZM41.1903 51.7011C40.7008 51.4 40.32 50.988 40.0493 50.4605C39.7793 49.9329 39.6453 49.3413 39.6453 48.6837C39.6453 48.0604 39.7709 47.482 40.026 46.9498C40.2799 46.4189 40.6477 45.9911 41.1301 45.6669C41.6113 45.342 42.1779 45.1803 42.8293 45.1803C43.3946 45.1803 43.9185 45.3097 44.4042 45.5705C44.8905 45.8287 45.2797 46.2077 45.573 46.7081C45.8683 47.2066 46.016 47.8048 46.016 48.5014V48.8666H41.303C41.2467 48.8666 41.1372 48.8666 40.9747 48.8666C40.8122 48.8666 40.6632 48.858 40.5272 48.8428L40.4923 49.0369C40.5635 49.0521 40.6134 49.0792 40.6412 49.1168C40.6678 49.1525 40.693 49.2132 40.7124 49.299C40.7325 49.3836 40.7539 49.4628 40.7772 49.5354C40.9449 50.0544 41.213 50.469 41.5828 50.7767C41.9525 51.0844 42.3721 51.2376 42.841 51.2376C43.3189 51.2376 43.7281 51.1095 44.0713 50.8494C44.4126 50.5905 44.66 50.2611 44.8109 49.8636H45.8962C45.6812 50.545 45.3147 51.0976 44.7992 51.5189C44.2818 51.9395 43.6336 52.1508 42.8546 52.1508C42.2329 52.1508 41.6793 52.0002 41.1903 51.7011Z" fill="black"/>
<path d="M9.23331 42.5243L8.2406 42.8471V44.2159L9.23331 43.893V42.5243Z" fill="black"/>
<path fill-rule="evenodd" clip-rule="evenodd" d="M8.24128 44.2174L9.23879 43.893H9.23513V42.5293L9.23298 42.5227L8.23547 42.8471H8.23914V44.2108L8.24128 44.2174ZM9.23185 42.5265V43.8918L8.24242 44.2136V42.8483L9.23185 42.5265Z" fill="black"/>
<path d="M9.23331 42.523L8.2406 42.8459V44.2146L9.23331 43.8918V42.523Z" fill="black"/>
</svg>
