<svg width="327" height="208" viewBox="0 0 327 208" fill="none" xmlns="http://www.w3.org/2000/svg">
<g filter="url(#filter0_d_950_353289)">
<rect x="6" y="4" width="315" height="196" rx="20" fill="white"/>
</g>
<path d="M152 141L171.851 131.05L178.186 114.904H195.651L209.699 97.9639L232.779 91.5542L256.36 86.0602L267.398 82.3976H278.938L297 65" stroke="#BCD885" stroke-width="3" stroke-linecap="round" stroke-linejoin="round"/>
<path d="M35.2723 138.762L52.1558 105.353V105.074H32.4882V98.0344H61.0649V105.174L44.1615 138.762H35.2723ZM63.0684 131.603V124.821L80.0713 98.0344H85.9179V107.421H82.4577L71.7389 124.384V124.702H95.9008V131.603H63.0684ZM82.6167 138.762V129.534L82.7758 126.532V98.0344H90.8497V138.762H82.6167Z" fill="#1E1B39"/>
<path d="M98.1916 155.272C97.3986 156.066 96.6401 156.826 95.8808 157.587C95.231 158.237 94.5811 158.886 93.9312 159.534C93.7186 159.745 93.4621 159.81 93.1731 159.725C92.884 159.64 92.7119 159.435 92.6481 159.145C92.5867 158.863 92.6943 158.632 92.8915 158.433C93.7928 157.532 94.6934 156.631 95.5933 155.73C96.2604 155.063 96.928 154.396 97.5962 153.73C97.9625 153.366 98.3865 153.365 98.7514 153.725C99.2583 154.224 99.7618 154.728 100.262 155.236C100.319 155.293 100.354 155.37 100.394 155.43L104.607 151.214C104.547 151.21 104.489 151.203 104.431 151.203C103.944 151.203 103.456 151.208 102.969 151.2C102.647 151.195 102.404 151.039 102.272 150.746C102.146 150.466 102.188 150.195 102.385 149.956C102.455 149.868 102.545 149.797 102.647 149.749C102.75 149.701 102.862 149.677 102.975 149.679C104.142 149.676 105.312 149.674 106.48 149.68C106.921 149.682 107.248 150.018 107.249 150.458C107.253 151.62 107.253 152.783 107.249 153.945C107.249 154.387 106.903 154.732 106.484 154.729C106.065 154.725 105.742 154.395 105.734 153.952C105.727 153.477 105.732 153.002 105.732 152.527V152.331L105.664 152.286C105.622 152.353 105.574 152.417 105.522 152.476C104.031 153.971 102.538 155.464 101.044 156.956C100.655 157.345 100.235 157.345 99.8473 156.96C99.3386 156.453 98.8309 155.945 98.3239 155.436C98.2804 155.392 98.2456 155.338 98.1916 155.272Z" fill="#BDD885"/>
<path d="M34.623 158.051V151.33H35.9604V158.051H34.623ZM31.9334 155.357V154.025H38.655V155.357H31.9334ZM44.7974 149.58V159.762H43.2562V151.121H43.1966L40.7605 152.712V151.24L43.301 149.58H44.7974ZM47.5517 159.762V158.648L50.997 155.078C51.3649 154.691 51.6681 154.351 51.9068 154.059C52.1487 153.764 52.3294 153.484 52.4487 153.219C52.568 152.954 52.6277 152.672 52.6277 152.374C52.6277 152.036 52.5481 151.744 52.389 151.499C52.2299 151.25 52.0128 151.06 51.7377 150.927C51.4627 150.791 51.1528 150.723 50.8081 150.723C50.4435 150.723 50.1253 150.798 49.8535 150.947C49.5817 151.096 49.3729 151.307 49.2271 151.578C49.0813 151.85 49.0083 152.168 49.0083 152.533H47.5417C47.5417 151.913 47.6842 151.371 47.9693 150.907C48.2543 150.443 48.6454 150.084 49.1426 149.828C49.6397 149.57 50.2048 149.441 50.8379 149.441C51.4776 149.441 52.041 149.568 52.5282 149.824C53.0188 150.075 53.4016 150.42 53.6767 150.858C53.9518 151.292 54.0893 151.782 54.0893 152.329C54.0893 152.707 54.0181 153.077 53.8755 153.438C53.7363 153.799 53.4927 154.202 53.1447 154.646C52.7967 155.087 52.3128 155.622 51.693 156.252L49.6696 158.37V158.444H54.2534V159.762H47.5517ZM57.1369 159.856C56.8651 159.856 56.6315 159.76 56.4359 159.568C56.2404 159.372 56.1426 159.137 56.1426 158.862C56.1426 158.59 56.2404 158.358 56.4359 158.166C56.6315 157.97 56.8651 157.873 57.1369 157.873C57.4087 157.873 57.6423 157.97 57.8379 158.166C58.0334 158.358 58.1312 158.59 58.1312 158.862C58.1312 159.044 58.0848 159.212 57.992 159.364C57.9025 159.513 57.7832 159.632 57.6341 159.722C57.4849 159.811 57.3192 159.856 57.1369 159.856ZM59.8887 157.773V156.53L64.2885 149.58H65.2679V151.409H64.6465L61.4995 156.391V156.471H67.53V157.773H59.8887ZM64.7161 159.762V157.395L64.726 156.828V149.58H66.1827V159.762H64.7161ZM72.6234 159.901C72.0003 159.901 71.4402 159.782 70.943 159.543C70.4492 159.301 70.0547 158.97 69.7598 158.549C69.4648 158.128 69.3074 157.647 69.2875 157.107H70.7789C70.8154 157.544 71.0093 157.904 71.3606 158.186C71.7119 158.467 72.1329 158.608 72.6234 158.608C73.0145 158.608 73.3609 158.519 73.6625 158.34C73.9674 158.158 74.206 157.907 74.3784 157.589C74.554 157.271 74.6419 156.908 74.6419 156.5C74.6419 156.086 74.5524 155.717 74.3734 155.392C74.1944 155.067 73.9475 154.812 73.6326 154.626C73.3211 154.44 72.9631 154.346 72.5588 154.343C72.2505 154.343 71.9406 154.396 71.6291 154.502C71.3175 154.608 71.0656 154.747 70.8734 154.919L69.4664 154.711L70.0382 149.58H75.6362V150.897H71.3159L70.9927 153.746H71.0524C71.2512 153.554 71.5147 153.393 71.8429 153.264C72.1743 153.135 72.5289 153.07 72.9068 153.07C73.5266 153.07 74.0784 153.217 74.5623 153.512C75.0495 153.807 75.4324 154.21 75.7108 154.721C75.9925 155.228 76.1317 155.811 76.1284 156.471C76.1317 157.13 75.9825 157.718 75.6809 158.235C75.3826 158.752 74.9683 159.16 74.438 159.458C73.911 159.753 73.3062 159.901 72.6234 159.901ZM83.2589 157.853V157.316C83.2589 156.931 83.3384 156.58 83.4975 156.262C83.6599 155.94 83.8952 155.683 84.2035 155.491C84.515 155.296 84.8912 155.198 85.332 155.198C85.7828 155.198 86.1606 155.294 86.4656 155.486C86.7705 155.678 87.0008 155.935 87.1566 156.257C87.3157 156.578 87.3952 156.931 87.3952 157.316V157.853C87.3952 158.237 87.3157 158.59 87.1566 158.912C86.9975 159.23 86.7638 159.487 86.4556 159.682C86.1507 159.874 85.7762 159.971 85.332 159.971C84.8846 159.971 84.5067 159.874 84.1985 159.682C83.8903 159.487 83.6566 159.23 83.4975 158.912C83.3384 158.59 83.2589 158.237 83.2589 157.853ZM84.4173 157.316V157.853C84.4173 158.138 84.4852 158.396 84.6211 158.628C84.757 158.86 84.994 158.976 85.332 158.976C85.6668 158.976 85.9005 158.86 86.033 158.628C86.1656 158.396 86.2319 158.138 86.2319 157.853V157.316C86.2319 157.031 86.1673 156.772 86.038 156.54C85.9121 156.308 85.6767 156.192 85.332 156.192C85.0006 156.192 84.7653 156.308 84.6261 156.54C84.4869 156.772 84.4173 157.031 84.4173 157.316ZM78.1381 152.026V151.489C78.1381 151.105 78.2177 150.752 78.3768 150.43C78.5392 150.109 78.7745 149.852 79.0827 149.659C79.3943 149.467 79.7705 149.371 80.2113 149.371C80.6621 149.371 81.0399 149.467 81.3448 149.659C81.6497 149.852 81.8801 150.109 82.0359 150.43C82.1916 150.752 82.2695 151.105 82.2695 151.489V152.026C82.2695 152.41 82.19 152.763 82.0309 153.085C81.8751 153.403 81.6431 153.66 81.3349 153.855C81.0299 154.048 80.6554 154.144 80.2113 154.144C79.7605 154.144 79.381 154.048 79.0728 153.855C78.7679 153.66 78.5359 153.403 78.3768 153.085C78.2177 152.763 78.1381 152.41 78.1381 152.026ZM79.3015 151.489V152.026C79.3015 152.311 79.3678 152.569 79.5004 152.801C79.6362 153.033 79.8732 153.15 80.2113 153.15C80.5427 153.15 80.7747 153.033 80.9073 152.801C81.0432 152.569 81.1112 152.311 81.1112 152.026V151.489C81.1112 151.204 81.0465 150.945 80.9173 150.713C80.788 150.481 80.5527 150.365 80.2113 150.365C79.8799 150.365 79.6445 150.481 79.5053 150.713C79.3694 150.945 79.3015 151.204 79.3015 151.489ZM78.6104 159.762L85.6104 149.58H86.7987L79.7987 159.762H78.6104Z" fill="#BDD885"/>
<path d="M31.4981 67V53.9091H36.7396C37.7027 53.9091 38.5059 54.0518 39.1494 54.3374C39.7929 54.6229 40.2765 55.0192 40.6004 55.5263C40.9243 56.0291 41.0862 56.6087 41.0862 57.2649C41.0862 57.7763 40.9839 58.2259 40.7794 58.6136C40.5748 58.9972 40.2936 59.3125 39.9356 59.5597C39.5819 59.8026 39.1771 59.9751 38.7211 60.0774V60.2053C39.2197 60.2266 39.6863 60.3672 40.121 60.6271C40.5599 60.8871 40.9157 61.2514 41.1885 61.7202C41.4612 62.1847 41.5976 62.7386 41.5976 63.3821C41.5976 64.0767 41.425 64.6967 41.0798 65.2422C40.7389 65.7834 40.2339 66.2116 39.5649 66.527C38.8959 66.8423 38.0713 67 37.0912 67H31.4981ZM34.2659 64.7372H36.5223C37.2936 64.7372 37.8561 64.5902 38.2098 64.2962C38.5635 63.9979 38.7403 63.6016 38.7403 63.1072C38.7403 62.745 38.653 62.4254 38.4782 62.1484C38.3035 61.8714 38.0542 61.6541 37.7304 61.4964C37.4108 61.3388 37.0294 61.2599 36.5862 61.2599H34.2659V64.7372ZM34.2659 59.3871H36.3177C36.697 59.3871 37.0336 59.321 37.3277 59.1889C37.626 59.0526 37.8604 58.8608 38.0308 58.6136C38.2055 58.3665 38.2929 58.0703 38.2929 57.7251C38.2929 57.2521 38.1246 56.8707 37.7879 56.581C37.4555 56.2912 36.9825 56.1463 36.3689 56.1463H34.2659V59.3871ZM47.8218 67.1918C46.8119 67.1918 45.9426 66.9872 45.2139 66.5781C44.4894 66.1648 43.9312 65.581 43.5392 64.8267C43.1471 64.0682 42.9511 63.1712 42.9511 62.1357C42.9511 61.1257 43.1471 60.2393 43.5392 59.4766C43.9312 58.7138 44.483 58.1193 45.1947 57.6932C45.9106 57.267 46.7501 57.054 47.7132 57.054C48.3609 57.054 48.9639 57.1584 49.5221 57.3672C50.0846 57.5717 50.5747 57.8807 50.9923 58.294C51.4142 58.7074 51.7423 59.2273 51.9767 59.8537C52.211 60.4759 52.3282 61.2045 52.3282 62.0398V62.7876H44.0377V61.1001H49.765C49.765 60.7081 49.6798 60.3608 49.5093 60.0582C49.3389 59.7557 49.1024 59.5192 48.7998 59.3487C48.5015 59.174 48.1542 59.0866 47.7579 59.0866C47.3445 59.0866 46.9781 59.1825 46.6585 59.3743C46.3431 59.5618 46.096 59.8153 45.917 60.1349C45.738 60.4503 45.6464 60.8018 45.6421 61.1896V62.794C45.6421 63.2798 45.7316 63.6996 45.9106 64.0533C46.0938 64.407 46.3517 64.6797 46.684 64.8714C47.0164 65.0632 47.4106 65.1591 47.8666 65.1591C48.1691 65.1591 48.4461 65.1165 48.6975 65.0312C48.949 64.946 49.1642 64.8182 49.3431 64.6477C49.5221 64.4773 49.6585 64.2685 49.7522 64.0213L52.2707 64.1875C52.1428 64.7926 51.8808 65.321 51.4845 65.7727C51.0924 66.2202 50.5853 66.5696 49.9632 66.821C49.3453 67.0682 48.6315 67.1918 47.8218 67.1918ZM56.8282 61.3239V67H54.1052V53.9091H56.7515V58.9141H56.8666C57.0882 58.3345 57.4461 57.8807 57.9404 57.5526C58.4347 57.2202 59.0548 57.054 59.8005 57.054C60.4823 57.054 61.0768 57.2031 61.5839 57.5014C62.0953 57.7955 62.4916 58.2195 62.7728 58.7734C63.0583 59.3232 63.199 59.9815 63.1947 60.7486V67H60.4717V61.2344C60.4759 60.6293 60.3225 60.1584 60.0115 59.8217C59.7046 59.4851 59.2742 59.3168 58.7203 59.3168C58.3495 59.3168 58.0214 59.3956 57.7359 59.5533C57.4546 59.7109 57.233 59.9411 57.0711 60.2436C56.9134 60.5419 56.8325 60.902 56.8282 61.3239ZM68.1373 67.1854C67.5109 67.1854 66.9527 67.0767 66.4626 66.8594C65.9726 66.6378 65.5848 66.3118 65.2993 65.8814C65.018 65.4467 64.8774 64.9055 64.8774 64.2578C64.8774 63.7124 64.9775 63.2543 65.1778 62.8835C65.3781 62.5128 65.6508 62.2145 65.996 61.9886C66.3412 61.7628 66.7332 61.5923 67.1721 61.4773C67.6153 61.3622 68.0798 61.2812 68.5656 61.2344C69.1366 61.1747 69.5969 61.1193 69.9463 61.0682C70.2957 61.0128 70.5493 60.9318 70.7069 60.8253C70.8646 60.7187 70.9434 60.5611 70.9434 60.3523V60.3139C70.9434 59.9091 70.8156 59.5959 70.5599 59.3743C70.3085 59.1527 69.9506 59.0419 69.4861 59.0419C68.996 59.0419 68.6061 59.1506 68.3163 59.3679C68.0265 59.581 67.8348 59.8494 67.741 60.1733L65.2226 59.9688C65.3504 59.3722 65.6018 58.8565 65.9768 58.4219C66.3518 57.983 66.8355 57.6463 67.4278 57.4119C68.0244 57.1733 68.7148 57.054 69.4988 57.054C70.0443 57.054 70.5663 57.1179 71.0649 57.2457C71.5677 57.3736 72.0131 57.5717 72.4008 57.8402C72.7929 58.1087 73.1018 58.4538 73.3277 58.8757C73.5535 59.2933 73.6665 59.794 73.6665 60.3778V67H71.0841V65.6385H71.0074C70.8497 65.9453 70.6388 66.2159 70.3746 66.4503C70.1104 66.6804 69.7929 66.8615 69.4221 66.9936C69.0514 67.1214 68.6231 67.1854 68.1373 67.1854ZM68.9172 65.3061C69.3177 65.3061 69.6714 65.2273 69.9782 65.0696C70.2851 64.9077 70.5258 64.6903 70.7006 64.4176C70.8753 64.1449 70.9626 63.8359 70.9626 63.4908V62.4489C70.8774 62.5043 70.7602 62.5554 70.6111 62.6023C70.4662 62.6449 70.3021 62.6854 70.1189 62.7237C69.9356 62.7578 69.7524 62.7898 69.5692 62.8196C69.3859 62.8452 69.2197 62.8686 69.0706 62.8899C68.751 62.9368 68.4719 63.0114 68.2332 63.1136C67.9946 63.2159 67.8092 63.3544 67.6771 63.5291C67.545 63.6996 67.479 63.9126 67.479 64.1683C67.479 64.5391 67.6132 64.8224 67.8817 65.0185C68.1544 65.2102 68.4996 65.3061 68.9172 65.3061ZM84.5809 57.1818L81.1483 67H78.0802L74.6476 57.1818H77.5241L79.5631 64.2067H79.6654L81.6981 57.1818H84.5809ZM85.9743 67V57.1818H88.6974V67H85.9743ZM87.3422 55.9162C86.9374 55.9162 86.5901 55.782 86.3003 55.5135C86.0148 55.2408 85.8721 54.9148 85.8721 54.5355C85.8721 54.1605 86.0148 53.8388 86.3003 53.5703C86.5901 53.2976 86.9374 53.1612 87.3422 53.1612C87.7471 53.1612 88.0922 53.2976 88.3778 53.5703C88.6675 53.8388 88.8124 54.1605 88.8124 54.5355C88.8124 54.9148 88.6675 55.2408 88.3778 55.5135C88.0922 55.782 87.7471 55.9162 87.3422 55.9162ZM95.3147 67.1918C94.3218 67.1918 93.4632 66.9808 92.7387 66.5589C92.0186 66.1328 91.4624 65.5405 91.0704 64.782C90.6784 64.0192 90.4823 63.1349 90.4823 62.1293C90.4823 61.1151 90.6784 60.2287 91.0704 59.4702C91.4624 58.7074 92.0186 58.1151 92.7387 57.6932C93.4632 57.267 94.3218 57.054 95.3147 57.054C96.3076 57.054 97.1642 57.267 97.8843 57.6932C98.6088 58.1151 99.167 58.7074 99.559 59.4702C99.9511 60.2287 100.147 61.1151 100.147 62.1293C100.147 63.1349 99.9511 64.0192 99.559 64.782C99.167 65.5405 98.6088 66.1328 97.8843 66.5589C97.1642 66.9808 96.3076 67.1918 95.3147 67.1918ZM95.3275 65.0824C95.7792 65.0824 96.1563 64.9545 96.4589 64.6989C96.7615 64.4389 96.9894 64.0852 97.1428 63.6378C97.3005 63.1903 97.3794 62.6811 97.3794 62.1101C97.3794 61.5391 97.3005 61.0298 97.1428 60.5824C96.9894 60.1349 96.7615 59.7812 96.4589 59.5213C96.1563 59.2614 95.7792 59.1314 95.3275 59.1314C94.8715 59.1314 94.488 59.2614 94.1769 59.5213C93.8701 59.7812 93.6379 60.1349 93.4802 60.5824C93.3268 61.0298 93.2501 61.5391 93.2501 62.1101C93.2501 62.6811 93.3268 63.1903 93.4802 63.6378C93.6379 64.0852 93.8701 64.4389 94.1769 64.6989C94.488 64.9545 94.8715 65.0824 95.3275 65.0824ZM108.214 62.8196V57.1818H110.937V67H108.323V65.2166H108.22C107.999 65.7919 107.63 66.2543 107.114 66.6037C106.603 66.9531 105.979 67.1278 105.242 67.1278C104.585 67.1278 104.008 66.9787 103.509 66.6804C103.011 66.3821 102.621 65.9581 102.34 65.4084C102.063 64.8587 101.922 64.2003 101.918 63.4332V57.1818H104.641V62.9474C104.645 63.527 104.801 63.9851 105.107 64.3217C105.414 64.6584 105.825 64.8267 106.341 64.8267C106.669 64.8267 106.976 64.7521 107.261 64.603C107.547 64.4496 107.777 64.2237 107.952 63.9254C108.131 63.6271 108.218 63.2585 108.214 62.8196ZM113.115 67V57.1818H115.755V58.8949H115.857C116.036 58.2855 116.337 57.8253 116.758 57.5142C117.18 57.1989 117.666 57.0412 118.216 57.0412C118.352 57.0412 118.499 57.0497 118.657 57.0668C118.815 57.0838 118.953 57.1072 119.072 57.1371V59.5533C118.945 59.5149 118.768 59.4808 118.542 59.451C118.316 59.4212 118.109 59.4062 117.922 59.4062C117.521 59.4062 117.163 59.4936 116.848 59.6683C116.537 59.8388 116.29 60.0774 116.106 60.3842C115.927 60.6911 115.838 61.0447 115.838 61.4453V67H113.115ZM131.799 57.674C131.748 57.1584 131.528 56.7578 131.141 56.4723C130.753 56.1868 130.226 56.044 129.562 56.044C129.11 56.044 128.729 56.108 128.418 56.2358C128.106 56.3594 127.868 56.532 127.702 56.7536C127.54 56.9751 127.459 57.2266 127.459 57.5078C127.45 57.7422 127.499 57.9467 127.606 58.1214C127.717 58.2962 127.868 58.4474 128.06 58.5753C128.251 58.6989 128.473 58.8075 128.724 58.9013C128.976 58.9908 129.244 59.0675 129.53 59.1314L130.706 59.4126C131.277 59.5405 131.801 59.7109 132.278 59.924C132.756 60.1371 133.169 60.3991 133.518 60.7102C133.868 61.0213 134.138 61.3878 134.33 61.8097C134.526 62.2315 134.626 62.7152 134.631 63.2607C134.626 64.0618 134.422 64.7564 134.017 65.3445C133.616 65.9283 133.037 66.3821 132.278 66.706C131.524 67.0256 130.614 67.1854 129.549 67.1854C128.492 67.1854 127.572 67.0234 126.788 66.6996C126.008 66.3757 125.398 65.8963 124.959 65.2614C124.525 64.6222 124.297 63.8317 124.275 62.8899H126.954C126.984 63.3288 127.109 63.6953 127.331 63.9893C127.557 64.2791 127.857 64.4986 128.232 64.6477C128.611 64.7926 129.04 64.8651 129.517 64.8651C129.986 64.8651 130.393 64.7969 130.738 64.6605C131.087 64.5241 131.358 64.3345 131.55 64.0916C131.741 63.8487 131.837 63.5696 131.837 63.2543C131.837 62.9602 131.75 62.7131 131.575 62.5128C131.405 62.3125 131.153 62.142 130.821 62.0014C130.493 61.8608 130.09 61.733 129.613 61.6179L128.187 61.2599C127.084 60.9915 126.212 60.5717 125.573 60.0007C124.934 59.4297 124.616 58.6605 124.621 57.6932C124.616 56.9006 124.827 56.2081 125.253 55.6158C125.684 55.0234 126.274 54.5611 127.024 54.2287C127.774 53.8963 128.626 53.7301 129.581 53.7301C130.552 53.7301 131.4 53.8963 132.125 54.2287C132.854 54.5611 133.42 55.0234 133.825 55.6158C134.23 56.2081 134.439 56.8942 134.452 57.674H131.799ZM140.877 67.1918C139.872 67.1918 139.006 66.9787 138.282 66.5526C137.562 66.1222 137.008 65.5256 136.62 64.7628C136.237 64 136.045 63.1222 136.045 62.1293C136.045 61.1236 136.239 60.2415 136.627 59.483C137.019 58.7202 137.575 58.1257 138.295 57.6996C139.015 57.2692 139.872 57.054 140.864 57.054C141.721 57.054 142.471 57.2095 143.114 57.5206C143.758 57.8317 144.267 58.2685 144.642 58.831C145.017 59.3935 145.224 60.054 145.262 60.8125H142.693C142.62 60.3224 142.428 59.9283 142.117 59.63C141.81 59.3274 141.408 59.1761 140.909 59.1761C140.487 59.1761 140.119 59.2912 139.803 59.5213C139.492 59.7472 139.249 60.0774 139.075 60.5121C138.9 60.9467 138.813 61.473 138.813 62.0909C138.813 62.7173 138.898 63.25 139.068 63.6889C139.243 64.1278 139.488 64.4624 139.803 64.6925C140.119 64.9226 140.487 65.0376 140.909 65.0376C141.22 65.0376 141.499 64.9737 141.747 64.8459C141.998 64.718 142.205 64.5327 142.367 64.2898C142.533 64.0426 142.641 63.7464 142.693 63.4013H145.262C145.22 64.1513 145.015 64.8118 144.649 65.3828C144.286 65.9496 143.786 66.3928 143.146 66.7124C142.507 67.032 141.751 67.1918 140.877 67.1918ZM151.442 67.1918C150.449 67.1918 149.59 66.9808 148.866 66.5589C148.146 66.1328 147.589 65.5405 147.197 64.782C146.805 64.0192 146.609 63.1349 146.609 62.1293C146.609 61.1151 146.805 60.2287 147.197 59.4702C147.589 58.7074 148.146 58.1151 148.866 57.6932C149.59 57.267 150.449 57.054 151.442 57.054C152.435 57.054 153.291 57.267 154.011 57.6932C154.736 58.1151 155.294 58.7074 155.686 59.4702C156.078 60.2287 156.274 61.1151 156.274 62.1293C156.274 63.1349 156.078 64.0192 155.686 64.782C155.294 65.5405 154.736 66.1328 154.011 66.5589C153.291 66.9808 152.435 67.1918 151.442 67.1918ZM151.454 65.0824C151.906 65.0824 152.283 64.9545 152.586 64.6989C152.888 64.4389 153.116 64.0852 153.27 63.6378C153.427 63.1903 153.506 62.6811 153.506 62.1101C153.506 61.5391 153.427 61.0298 153.27 60.5824C153.116 60.1349 152.888 59.7812 152.586 59.5213C152.283 59.2614 151.906 59.1314 151.454 59.1314C150.998 59.1314 150.615 59.2614 150.304 59.5213C149.997 59.7812 149.765 60.1349 149.607 60.5824C149.454 61.0298 149.377 61.5391 149.377 62.1101C149.377 62.6811 149.454 63.1903 149.607 63.6378C149.765 64.0852 149.997 64.4389 150.304 64.6989C150.615 64.9545 150.998 65.0824 151.454 65.0824ZM158.045 67V57.1818H160.685V58.8949H160.787C160.966 58.2855 161.266 57.8253 161.688 57.5142C162.11 57.1989 162.596 57.0412 163.146 57.0412C163.282 57.0412 163.429 57.0497 163.587 57.0668C163.744 57.0838 163.883 57.1072 164.002 57.1371V59.5533C163.874 59.5149 163.697 59.4808 163.472 59.451C163.246 59.4212 163.039 59.4062 162.851 59.4062C162.451 59.4062 162.093 59.4936 161.778 59.6683C161.467 59.8388 161.219 60.0774 161.036 60.3842C160.857 60.6911 160.768 61.0447 160.768 61.4453V67H158.045ZM169.427 67.1918C168.417 67.1918 167.548 66.9872 166.819 66.5781C166.095 66.1648 165.537 65.581 165.145 64.8267C164.753 64.0682 164.557 63.1712 164.557 62.1357C164.557 61.1257 164.753 60.2393 165.145 59.4766C165.537 58.7138 166.089 58.1193 166.8 57.6932C167.516 57.267 168.356 57.054 169.319 57.054C169.966 57.054 170.569 57.1584 171.128 57.3672C171.69 57.5717 172.18 57.8807 172.598 58.294C173.02 58.7074 173.348 59.2273 173.582 59.8537C173.816 60.4759 173.934 61.2045 173.934 62.0398V62.7876H165.643V61.1001H171.37C171.37 60.7081 171.285 60.3608 171.115 60.0582C170.944 59.7557 170.708 59.5192 170.405 59.3487C170.107 59.174 169.76 59.0866 169.363 59.0866C168.95 59.0866 168.584 59.1825 168.264 59.3743C167.949 59.5618 167.701 59.8153 167.522 60.1349C167.343 60.4503 167.252 60.8018 167.248 61.1896V62.794C167.248 63.2798 167.337 63.6996 167.516 64.0533C167.699 64.407 167.957 64.6797 168.29 64.8714C168.622 65.0632 169.016 65.1591 169.472 65.1591C169.775 65.1591 170.052 65.1165 170.303 65.0312C170.554 64.946 170.77 64.8182 170.949 64.6477C171.128 64.4773 171.264 64.2685 171.358 64.0213L173.876 64.1875C173.748 64.7926 173.486 65.321 173.09 65.7727C172.698 66.2202 172.191 66.5696 171.569 66.821C170.951 67.0682 170.237 67.1918 169.427 67.1918Z" fill="#1E1B39"/>
<path d="M31.5933 41V30.8182H37.6984V31.9119H32.8263V35.3523H37.241V36.446H32.8263V41H31.5933ZM39.651 41V33.3636H40.8243V41H39.651ZM40.2476 32.0909C40.0189 32.0909 39.8217 32.013 39.656 31.8572C39.4936 31.7015 39.4124 31.5142 39.4124 31.2955C39.4124 31.0767 39.4936 30.8894 39.656 30.7337C39.8217 30.5779 40.0189 30.5 40.2476 30.5C40.4763 30.5 40.6718 30.5779 40.8343 30.7337C41 30.8894 41.0828 31.0767 41.0828 31.2955C41.0828 31.5142 41 31.7015 40.8343 31.8572C40.6718 32.013 40.4763 32.0909 40.2476 32.0909ZM44.1466 36.4062V41H42.9733V33.3636H44.1068V34.5568H44.2062C44.3852 34.169 44.657 33.8575 45.0216 33.6222C45.3862 33.3835 45.8568 33.2642 46.4335 33.2642C46.9506 33.2642 47.403 33.3703 47.7907 33.5824C48.1785 33.7912 48.4801 34.1094 48.6956 34.5369C48.911 34.9612 49.0187 35.4981 49.0187 36.1477V41H47.8454V36.2273C47.8454 35.6274 47.6897 35.16 47.3781 34.8253C47.0666 34.4872 46.639 34.3182 46.0954 34.3182C45.7209 34.3182 45.3862 34.3994 45.0912 34.5618C44.7995 34.7242 44.5692 34.9612 44.4001 35.2727C44.2311 35.5843 44.1466 35.9621 44.1466 36.4062ZM53.4099 41.179C52.926 41.179 52.4868 41.0878 52.0924 40.9055C51.698 40.7199 51.3848 40.4531 51.1528 40.1051C50.9208 39.7538 50.8048 39.3295 50.8048 38.8324C50.8048 38.3949 50.891 38.0402 51.0633 37.7685C51.2356 37.4934 51.466 37.2779 51.7544 37.1222C52.0427 36.9664 52.3609 36.8504 52.7089 36.7741C53.0602 36.6946 53.4132 36.6316 53.7678 36.5852C54.2319 36.5256 54.608 36.4808 54.8964 36.451C55.1881 36.4179 55.4002 36.3632 55.5328 36.2869C55.6686 36.2107 55.7366 36.0781 55.7366 35.8892V35.8494C55.7366 35.3589 55.6024 34.9777 55.3339 34.706C55.0687 34.4342 54.666 34.2983 54.1258 34.2983C53.5657 34.2983 53.1265 34.4209 52.8083 34.6662C52.4901 34.9115 52.2664 35.1733 52.1372 35.4517L51.0235 35.054C51.2224 34.59 51.4875 34.2287 51.819 33.9702C52.1537 33.7083 52.5183 33.526 52.9127 33.4233C53.3105 33.3172 53.7016 33.2642 54.086 33.2642C54.3313 33.2642 54.613 33.294 54.9312 33.3537C55.2527 33.41 55.5626 33.5277 55.8609 33.7067C56.1625 33.8857 56.4127 34.1558 56.6116 34.517C56.8105 34.8783 56.9099 35.3622 56.9099 35.9688V41H55.7366V39.9659H55.6769C55.5974 40.1316 55.4648 40.3089 55.2792 40.4979C55.0936 40.6868 54.8467 40.8475 54.5384 40.9801C54.2302 41.1127 53.854 41.179 53.4099 41.179ZM53.5889 40.125C54.0529 40.125 54.444 40.0339 54.7622 39.8516C55.0837 39.6693 55.3256 39.4339 55.488 39.1456C55.6537 38.8572 55.7366 38.554 55.7366 38.2358V37.1619C55.6869 37.2216 55.5775 37.2763 55.4085 37.326C55.2427 37.3724 55.0505 37.4138 54.8318 37.4503C54.6163 37.4834 54.4059 37.5133 54.2004 37.5398C53.9982 37.563 53.8341 37.5829 53.7082 37.5994C53.4033 37.6392 53.1182 37.7038 52.8531 37.7933C52.5912 37.8795 52.3791 38.0104 52.2167 38.1861C52.0576 38.3584 51.9781 38.5937 51.9781 38.892C51.9781 39.2997 52.1289 39.608 52.4305 39.8168C52.7354 40.0223 53.1215 40.125 53.5889 40.125ZM60.2247 36.4062V41H59.0514V33.3636H60.1849V34.5568H60.2844C60.4633 34.169 60.7351 33.8575 61.0997 33.6222C61.4643 33.3835 61.9349 33.2642 62.5116 33.2642C63.0287 33.2642 63.4811 33.3703 63.8689 33.5824C64.2567 33.7912 64.5583 34.1094 64.7737 34.5369C64.9891 34.9612 65.0969 35.4981 65.0969 36.1477V41H63.9236V36.2273C63.9236 35.6274 63.7678 35.16 63.4562 34.8253C63.1447 34.4872 62.7171 34.3182 62.1736 34.3182C61.799 34.3182 61.4643 34.3994 61.1693 34.5618C60.8776 34.7242 60.6473 34.9612 60.4782 35.2727C60.3092 35.5843 60.2247 35.9621 60.2247 36.4062ZM70.3431 41.1591C69.6272 41.1591 69.0107 40.9901 68.4937 40.652C67.9767 40.3139 67.5789 39.8482 67.3005 39.255C67.0221 38.6617 66.8829 37.9839 66.8829 37.2216C66.8829 36.446 67.0254 35.7616 67.3105 35.1683C67.5988 34.5717 67.9999 34.1061 68.5136 33.7713C69.0306 33.4332 69.6338 33.2642 70.3232 33.2642C70.8602 33.2642 71.3441 33.3636 71.7749 33.5625C72.2058 33.7614 72.5588 34.0398 72.8339 34.3977C73.109 34.7557 73.2797 35.1733 73.346 35.6506H72.1727C72.0832 35.3026 71.8843 34.9943 71.5761 34.7259C71.2712 34.4541 70.8602 34.3182 70.3431 34.3182C69.8857 34.3182 69.4847 34.4375 69.14 34.6761C68.7986 34.9115 68.5318 35.2446 68.3396 35.6754C68.1507 36.103 68.0562 36.6051 68.0562 37.1818C68.0562 37.7718 68.149 38.2855 68.3346 38.723C68.5235 39.1605 68.7887 39.5002 69.1301 39.7422C69.4748 39.9841 69.8791 40.1051 70.3431 40.1051C70.6481 40.1051 70.9248 40.0521 71.1734 39.946C71.422 39.84 71.6324 39.6875 71.8048 39.4886C71.9771 39.2898 72.0998 39.0511 72.1727 38.7727H73.346C73.2797 39.2235 73.1156 39.6295 72.8538 39.9908C72.5953 40.3487 72.2522 40.6338 71.8247 40.8459C71.4004 41.0547 70.9066 41.1591 70.3431 41.1591ZM75.0612 41V33.3636H76.2345V41H75.0612ZM75.6578 32.0909C75.4291 32.0909 75.2319 32.013 75.0661 31.8572C74.9037 31.7015 74.8225 31.5142 74.8225 31.2955C74.8225 31.0767 74.9037 30.8894 75.0661 30.7337C75.2319 30.5779 75.4291 30.5 75.6578 30.5C75.8865 30.5 76.082 30.5779 76.2444 30.7337C76.4101 30.8894 76.493 31.0767 76.493 31.2955C76.493 31.5142 76.4101 31.7015 76.2444 31.8572C76.082 32.013 75.8865 32.0909 75.6578 32.0909ZM80.6306 41.179C80.1467 41.179 79.7075 41.0878 79.3131 40.9055C78.9187 40.7199 78.6055 40.4531 78.3735 40.1051C78.1415 39.7538 78.0255 39.3295 78.0255 38.8324C78.0255 38.3949 78.1117 38.0402 78.284 37.7685C78.4564 37.4934 78.6867 37.2779 78.9751 37.1222C79.2634 36.9664 79.5816 36.8504 79.9296 36.7741C80.2809 36.6946 80.6339 36.6316 80.9885 36.5852C81.4526 36.5256 81.8287 36.4808 82.1171 36.451C82.4088 36.4179 82.6209 36.3632 82.7535 36.2869C82.8894 36.2107 82.9573 36.0781 82.9573 35.8892V35.8494C82.9573 35.3589 82.8231 34.9777 82.5546 34.706C82.2894 34.4342 81.8867 34.2983 81.3465 34.2983C80.7864 34.2983 80.3472 34.4209 80.029 34.6662C79.7108 34.9115 79.4871 35.1733 79.3579 35.4517L78.2442 35.054C78.4431 34.59 78.7082 34.2287 79.0397 33.9702C79.3744 33.7083 79.739 33.526 80.1334 33.4233C80.5312 33.3172 80.9223 33.2642 81.3067 33.2642C81.552 33.2642 81.8337 33.294 82.1519 33.3537C82.4734 33.41 82.7833 33.5277 83.0816 33.7067C83.3832 33.8857 83.6334 34.1558 83.8323 34.517C84.0312 34.8783 84.1306 35.3622 84.1306 35.9688V41H82.9573V39.9659H82.8976C82.8181 40.1316 82.6855 40.3089 82.4999 40.4979C82.3143 40.6868 82.0674 40.8475 81.7591 40.9801C81.4509 41.1127 81.0747 41.179 80.6306 41.179ZM80.8096 40.125C81.2736 40.125 81.6647 40.0339 81.9829 39.8516C82.3044 39.6693 82.5463 39.4339 82.7087 39.1456C82.8744 38.8572 82.9573 38.554 82.9573 38.2358V37.1619C82.9076 37.2216 82.7982 37.2763 82.6292 37.326C82.4635 37.3724 82.2712 37.4138 82.0525 37.4503C81.837 37.4834 81.6266 37.5133 81.4211 37.5398C81.2189 37.563 81.0548 37.5829 80.9289 37.5994C80.624 37.6392 80.3389 37.7038 80.0738 37.7933C79.8119 37.8795 79.5998 38.0104 79.4374 38.1861C79.2783 38.3584 79.1988 38.5937 79.1988 38.892C79.1988 39.2997 79.3496 39.608 79.6512 39.8168C79.9561 40.0223 80.3422 40.125 80.8096 40.125ZM87.4454 30.8182V41H86.2721V30.8182H87.4454Z" fill="#9291A5"/>
<rect x="153" y="152" width="144" height="20" rx="6" fill="url(#paint0_linear_950_353289)"/>
<rect x="239" y="152" width="30" height="20" fill="white"/>
<rect x="241" y="148" width="26" height="28" rx="2" fill="url(#paint1_linear_950_353289)"/>
<defs>
<filter id="filter0_d_950_353289" x="0" y="0" width="327" height="208" filterUnits="userSpaceOnUse" color-interpolation-filters="sRGB">
<feFlood flood-opacity="0" result="BackgroundImageFix"/>
<feColorMatrix in="SourceAlpha" type="matrix" values="0 0 0 0 0 0 0 0 0 0 0 0 0 0 0 0 0 0 127 0" result="hardAlpha"/>
<feOffset dy="2"/>
<feGaussianBlur stdDeviation="3"/>
<feComposite in2="hardAlpha" operator="out"/>
<feColorMatrix type="matrix" values="0 0 0 0 0.0509804 0 0 0 0 0.0392157 0 0 0 0 0.172549 0 0 0 0.08 0"/>
<feBlend mode="normal" in2="BackgroundImageFix" result="effect1_dropShadow_950_353289"/>
<feBlend mode="normal" in="SourceGraphic" in2="effect1_dropShadow_950_353289" result="shape"/>
</filter>
<linearGradient id="paint0_linear_950_353289" x1="153" y1="162" x2="297" y2="162" gradientUnits="userSpaceOnUse">
<stop stop-color="#FF8D75"/>
<stop offset="0.1" stop-color="#FFAD70"/>
<stop offset="0.2" stop-color="#FF9D4B"/>
<stop offset="0.3" stop-color="#FFB947"/>
<stop offset="0.4" stop-color="#FFCB6C"/>
<stop offset="0.5" stop-color="#E4D675"/>
<stop offset="0.6" stop-color="#E3D676"/>
<stop offset="0.7" stop-color="#BED783"/>
<stop offset="0.8" stop-color="#B9D786"/>
<stop offset="0.9" stop-color="#A2D992"/>
<stop offset="1" stop-color="#69DAAA"/>
</linearGradient>
<linearGradient id="paint1_linear_950_353289" x1="241" y1="162" x2="267" y2="162" gradientUnits="userSpaceOnUse">
<stop stop-color="#BFD783"/>
<stop offset="1" stop-color="#B9D786"/>
</linearGradient>
</defs>
</svg>
