<svg width="342" height="162" viewBox="0 0 342 162" fill="none" xmlns="http://www.w3.org/2000/svg">
<g filter="url(#filter0_dd_950_353204)">
<rect x="6" y="4.29102" width="330" height="148.727" rx="8.35443" fill="white"/>
<path d="M36.1778 70.4268C34.3662 81.013 36.4082 91.8978 41.9334 101.108C47.4585 110.317 56.1011 117.242 66.294 120.627L71.9551 103.577C65.8394 101.546 60.6538 97.3914 57.3387 91.8656C54.0236 86.3397 52.7985 79.8088 53.8854 73.4571L36.1778 70.4268Z" fill="url(#paint0_linear_950_353204)"/>
<path d="M80.3856 31.4159C70.6885 31.4159 61.2337 34.446 53.343 40.0825L63.9404 54.9181C68.7389 51.4904 74.4886 49.6477 80.3856 49.6477V31.4159Z" fill="url(#paint1_linear_950_353204)"/>
<path d="M65.3756 120.675C64.7139 122.561 65.7045 124.641 67.635 125.162C73.3358 126.699 79.2778 127.195 85.1737 126.616C92.2728 125.918 99.1339 123.678 105.277 120.052C111.42 116.427 116.697 111.503 120.739 105.625C124.78 99.747 127.489 93.0572 128.676 86.0232C129.862 78.9893 129.498 71.7811 127.608 64.9027C125.718 58.0243 122.348 51.6418 117.734 46.2016C113.12 40.7613 107.374 36.3947 100.896 33.407C95.5166 30.9257 89.7406 29.4454 83.851 29.0275C81.8566 28.886 80.2385 30.5257 80.2447 32.5251L80.2995 50.2607C80.3057 52.2601 81.9405 53.848 83.9181 54.1424C86.1658 54.477 88.3608 55.1301 90.4354 56.087C93.6094 57.5509 96.4253 59.6906 98.6861 62.3563C100.947 65.022 102.598 68.1495 103.524 71.5199C104.45 74.8903 104.629 78.4223 104.047 81.8689C103.466 85.3156 102.139 88.5936 100.158 91.4737C98.1778 94.3539 95.5921 96.7666 92.582 98.5432C89.5719 100.32 86.21 101.417 82.7314 101.759C80.4576 101.983 78.1699 101.88 75.9368 101.458C73.972 101.088 71.9068 102.052 71.2451 103.938L65.3756 120.675Z" fill="url(#paint2_linear_950_353204)"/>
<path d="M57.0907 36.8962C56.1177 35.1495 53.9047 34.5118 52.2308 35.6053C46.6311 39.2636 41.7887 43.986 37.9854 49.5164C34.182 55.0467 31.5049 61.2582 30.0924 67.7962C29.6702 69.7505 31.0576 71.5888 33.0368 71.8725L51.5439 74.5251C53.5231 74.8088 55.3325 73.4226 55.8935 71.5035C56.6511 68.9124 57.8177 66.4505 59.3561 64.2135C60.8946 61.9765 62.776 60.0062 64.9246 58.3717C66.5159 57.1612 67.1628 54.9755 66.1898 53.2289L57.0907 36.8962Z" fill="url(#paint3_linear_950_353204)"/>
<rect x="147.19" y="35.2024" width="6.68354" height="6.68354" rx="1.67089" fill="#90BEF8"/>
<path d="M161.358 41.5442V34.2531H165.929V35.2H162.458V37.4216H165.691V38.365H162.458V40.5972H165.972V41.5442H161.358ZM171.005 43.5948V40.6933H170.941C170.877 40.8096 170.784 40.9425 170.663 41.0921C170.545 41.2416 170.381 41.3721 170.172 41.4837C169.963 41.5952 169.693 41.651 169.36 41.651C168.919 41.651 168.525 41.5383 168.178 41.3128C167.834 41.0849 167.564 40.761 167.367 40.3409C167.172 39.9184 167.075 39.4117 167.075 38.8207C167.075 38.2297 167.173 37.7242 167.37 37.3041C167.57 36.884 167.842 36.5624 168.189 36.3393C168.535 36.1162 168.928 36.0046 169.367 36.0046C169.707 36.0046 169.98 36.0616 170.186 36.1755C170.395 36.2871 170.556 36.4176 170.67 36.5671C170.787 36.7167 170.877 36.8484 170.941 36.9623H171.03V36.0758H172.07V43.5948H171.005ZM169.595 40.7432C169.901 40.7432 170.16 40.6625 170.371 40.5011C170.585 40.3373 170.746 40.1106 170.856 39.8211C170.967 39.5315 171.023 39.1945 171.023 38.81C171.023 38.4303 170.968 38.098 170.859 37.8132C170.75 37.5284 170.59 37.3065 170.378 37.1474C170.167 36.9884 169.906 36.9089 169.595 36.9089C169.275 36.9089 169.008 36.992 168.794 37.1581C168.581 37.3243 168.419 37.5509 168.31 37.8381C168.203 38.1253 168.15 38.4493 168.15 38.81C168.15 39.1755 168.204 39.5042 168.314 39.7962C168.423 40.0881 168.584 40.3195 168.798 40.4904C169.014 40.6589 169.28 40.7432 169.595 40.7432ZM176.965 39.2764V36.0758H178.033V41.5442H176.986V40.5972H176.929C176.803 40.8891 176.602 41.1324 176.324 41.327C176.049 41.5193 175.706 41.6154 175.295 41.6154C174.944 41.6154 174.633 41.5383 174.362 41.384C174.094 41.2273 173.883 40.9959 173.729 40.6898C173.577 40.3836 173.501 40.005 173.501 39.5541V36.0758H174.565V39.4259C174.565 39.7985 174.668 40.0952 174.875 40.3159C175.081 40.5367 175.35 40.647 175.679 40.647C175.879 40.647 176.077 40.5972 176.274 40.4975C176.473 40.3978 176.638 40.2471 176.769 40.0454C176.902 39.8436 176.967 39.5873 176.965 39.2764ZM179.463 41.5442V36.0758H180.527V41.5442H179.463ZM180.001 35.2321C179.815 35.2321 179.656 35.1704 179.524 35.047C179.393 34.9212 179.328 34.7716 179.328 34.5984C179.328 34.4227 179.393 34.2732 179.524 34.1498C179.656 34.024 179.815 33.9611 180.001 33.9611C180.186 33.9611 180.344 34.024 180.474 34.1498C180.607 34.2732 180.673 34.4227 180.673 34.5984C180.673 34.7716 180.607 34.9212 180.474 35.047C180.344 35.1704 180.186 35.2321 180.001 35.2321ZM184.512 36.0758V36.9303H181.525V36.0758H184.512ZM182.326 34.7657H183.391V39.9386C183.391 40.1451 183.422 40.3005 183.483 40.4049C183.545 40.507 183.624 40.577 183.722 40.615C183.821 40.6506 183.929 40.6684 184.046 40.6684C184.131 40.6684 184.206 40.6625 184.27 40.6506C184.334 40.6387 184.384 40.6292 184.42 40.6221L184.612 41.5015C184.55 41.5252 184.462 41.5489 184.348 41.5727C184.234 41.5988 184.092 41.613 183.921 41.6154C183.641 41.6201 183.38 41.5703 183.138 41.4659C182.896 41.3614 182.7 41.2 182.551 40.9817C182.401 40.7633 182.326 40.4892 182.326 40.1593V34.7657ZM186.363 43.5948C186.204 43.5948 186.059 43.5818 185.928 43.5557C185.798 43.5319 185.7 43.5058 185.636 43.4773L185.893 42.6051C186.087 42.6573 186.26 42.6799 186.412 42.6727C186.564 42.6656 186.698 42.6087 186.815 42.5019C186.933 42.3951 187.038 42.2206 187.128 41.9785L187.26 41.6154L185.259 36.0758H186.398L187.783 40.3195H187.84L189.225 36.0758H190.368L188.114 42.274C188.01 42.5588 187.877 42.7997 187.715 42.9967C187.554 43.1961 187.362 43.3456 187.139 43.4453C186.916 43.545 186.657 43.5948 186.363 43.5948ZM192.069 41.6118C191.875 41.6118 191.707 41.543 191.567 41.4053C191.427 41.2653 191.357 41.0968 191.357 40.8998C191.357 40.7052 191.427 40.539 191.567 40.4014C191.707 40.2614 191.875 40.1913 192.069 40.1913C192.264 40.1913 192.431 40.2614 192.571 40.4014C192.711 40.539 192.781 40.7052 192.781 40.8998C192.781 41.0303 192.748 41.1502 192.682 41.2594C192.618 41.3662 192.532 41.4516 192.425 41.5157C192.319 41.5798 192.2 41.6118 192.069 41.6118ZM192.069 37.6316C191.875 37.6316 191.707 37.5616 191.567 37.4216C191.427 37.2815 191.357 37.1142 191.357 36.9196C191.357 36.725 191.427 36.5588 191.567 36.4212C191.707 36.2811 191.875 36.2111 192.069 36.2111C192.264 36.2111 192.431 36.2811 192.571 36.4212C192.711 36.5588 192.781 36.725 192.781 36.9196C192.781 37.0501 192.748 37.17 192.682 37.2792C192.618 37.386 192.532 37.4714 192.425 37.5355C192.319 37.5996 192.2 37.6316 192.069 37.6316Z" fill="#425466"/>
<path d="M294.603 42.6605C294.049 42.6605 293.553 42.5566 293.116 42.349C292.678 42.1385 292.331 41.8506 292.073 41.4851C291.818 41.1195 291.683 40.7014 291.666 40.2307H293.161C293.189 40.5796 293.34 40.8648 293.614 41.0863C293.888 41.3051 294.218 41.4144 294.603 41.4144C294.904 41.4144 295.173 41.3452 295.408 41.2068C295.644 41.0683 295.829 40.8759 295.965 40.6294C296.101 40.383 296.167 40.1019 296.164 39.7863C296.167 39.4651 296.099 39.1799 295.961 38.9307C295.822 38.6815 295.633 38.4862 295.392 38.345C295.151 38.201 294.874 38.129 294.561 38.129C294.306 38.1263 294.056 38.1733 293.809 38.2703C293.563 38.3672 293.368 38.4945 293.224 38.6524L291.832 38.4239L292.277 34.0379H297.211V35.3254H293.552L293.307 37.5808H293.356C293.514 37.3953 293.737 37.2416 294.025 37.1197C294.313 36.9951 294.629 36.9328 294.972 36.9328C295.487 36.9328 295.947 37.0547 296.351 37.2983C296.755 37.5392 297.074 37.8715 297.306 38.2952C297.539 38.7188 297.655 39.2034 297.655 39.7489C297.655 40.311 297.525 40.8122 297.265 41.2525C297.007 41.69 296.649 42.0347 296.189 42.2867C295.732 42.5359 295.203 42.6605 294.603 42.6605ZM298.893 40.9659V39.7406L302.502 34.0379H303.524V35.7823H302.901L300.471 39.6326V39.6991H305.51V40.9659H298.893ZM302.951 42.5442V40.5921L302.968 40.0438V34.0379H304.421V42.5442H302.951ZM311.385 40.9493V40.5007C311.385 40.1712 311.454 39.868 311.592 39.5911C311.734 39.3142 311.938 39.0913 312.207 38.9224C312.476 38.7534 312.801 38.669 313.183 38.669C313.576 38.669 313.906 38.7534 314.172 38.9224C314.437 39.0885 314.638 39.31 314.774 39.5869C314.912 39.8638 314.982 40.1684 314.982 40.5007V40.9493C314.982 41.2788 314.912 41.582 314.774 41.8589C314.635 42.1358 314.432 42.3587 314.163 42.5276C313.898 42.6965 313.571 42.7809 313.183 42.7809C312.795 42.7809 312.467 42.6965 312.199 42.5276C311.93 42.3587 311.727 42.1358 311.588 41.8589C311.453 41.582 311.385 41.2788 311.385 40.9493ZM312.469 40.5007V40.9493C312.469 41.168 312.521 41.3688 312.627 41.5515C312.732 41.7343 312.917 41.8256 313.183 41.8256C313.452 41.8256 313.636 41.7356 313.736 41.5557C313.838 41.3729 313.889 41.1708 313.889 40.9493V40.5007C313.889 40.2792 313.841 40.077 313.744 39.8943C313.647 39.7087 313.46 39.616 313.183 39.616C312.923 39.616 312.739 39.7087 312.631 39.8943C312.523 40.077 312.469 40.2792 312.469 40.5007ZM307.061 36.0814V35.6328C307.061 35.3005 307.132 34.9959 307.273 34.719C307.414 34.4421 307.619 34.2206 307.887 34.0545C308.156 33.8856 308.481 33.8011 308.864 33.8011C309.254 33.8011 309.582 33.8856 309.848 34.0545C310.116 34.2206 310.319 34.4421 310.454 34.719C310.59 34.9959 310.658 35.3005 310.658 35.6328V36.0814C310.658 36.4137 310.589 36.7182 310.45 36.9951C310.314 37.2693 310.112 37.4894 309.844 37.6555C309.575 37.8217 309.248 37.9048 308.864 37.9048C308.473 37.9048 308.144 37.8217 307.875 37.6555C307.609 37.4894 307.407 37.2679 307.269 36.991C307.13 36.7141 307.061 36.4109 307.061 36.0814ZM308.153 35.6328V36.0814C308.153 36.3029 308.204 36.505 308.307 36.6878C308.412 36.8678 308.598 36.9578 308.864 36.9578C309.129 36.9578 309.312 36.8678 309.412 36.6878C309.514 36.505 309.565 36.3029 309.565 36.0814V35.6328C309.565 35.4113 309.517 35.2091 309.42 35.0264C309.323 34.8409 309.138 34.7481 308.864 34.7481C308.6 34.7481 308.416 34.8409 308.311 35.0264C308.206 35.2119 308.153 35.414 308.153 35.6328ZM307.534 42.5442L313.382 34.0379H314.421L308.573 42.5442H307.534Z" fill="#425466"/>
<rect x="147.19" y="55.2574" width="6.68354" height="6.68354" rx="1.67089" fill="#8CDFB3"/>
<path d="M161.358 61.5992V54.3081H163.957C164.522 54.3081 164.99 54.4054 165.363 54.6C165.738 54.7947 166.018 55.064 166.203 55.4082C166.388 55.75 166.481 56.1451 166.481 56.5937C166.481 57.0399 166.387 57.4327 166.2 57.7721C166.015 58.1091 165.735 58.3714 165.36 58.5589C164.987 58.7464 164.518 58.8401 163.953 58.8401H161.985V57.8932H163.854C164.21 57.8932 164.499 57.8421 164.722 57.7401C164.948 57.638 165.113 57.4897 165.217 57.2951C165.322 57.1004 165.374 56.8666 165.374 56.5937C165.374 56.3184 165.32 56.0799 165.214 55.8781C165.109 55.6764 164.944 55.5221 164.719 55.4153C164.496 55.3061 164.203 55.2515 163.839 55.2515H162.458V61.5992H161.358ZM164.957 58.3097L166.759 61.5992H165.506L163.74 58.3097H164.957ZM170.022 61.7096C169.484 61.7096 169.02 61.5945 168.63 61.3643C168.244 61.1317 167.945 60.8053 167.733 60.3852C167.524 59.9628 167.42 59.4679 167.42 58.9007C167.42 58.3405 167.524 57.8469 167.733 57.4197C167.945 56.9924 168.239 56.659 168.616 56.4193C168.996 56.1795 169.44 56.0597 169.948 56.0597C170.256 56.0597 170.555 56.1107 170.845 56.2128C171.134 56.3148 171.394 56.475 171.624 56.6934C171.855 56.9117 172.036 57.1954 172.169 57.5443C172.302 57.8908 172.369 58.3121 172.369 58.8081V59.1855H168.022V58.388H171.325C171.325 58.1079 171.268 57.8599 171.155 57.6439C171.041 57.4256 170.88 57.2535 170.674 57.1277C170.47 57.0019 170.23 56.939 169.955 56.939C169.656 56.939 169.395 57.0126 169.172 57.1598C168.951 57.3045 168.78 57.4944 168.659 57.7294C168.54 57.962 168.481 58.2147 168.481 58.4877V59.1107C168.481 59.4762 168.545 59.7871 168.673 60.0435C168.804 60.2998 168.985 60.4956 169.218 60.6309C169.45 60.7638 169.722 60.8303 170.033 60.8303C170.235 60.8303 170.419 60.8018 170.585 60.7448C170.751 60.6855 170.895 60.5977 171.016 60.4814C171.137 60.3651 171.229 60.2215 171.293 60.0506L172.301 60.2322C172.22 60.5288 172.075 60.7887 171.867 61.0118C171.66 61.2326 171.4 61.4046 171.087 61.528C170.776 61.6491 170.421 61.7096 170.022 61.7096ZM175.141 61.7203C174.794 61.7203 174.481 61.6562 174.201 61.528C173.921 61.3975 173.699 61.2088 173.535 60.962C173.374 60.7151 173.293 60.4125 173.293 60.0541C173.293 59.7456 173.353 59.4916 173.471 59.2923C173.59 59.0929 173.75 58.9351 173.952 58.8188C174.154 58.7025 174.379 58.6147 174.628 58.5553C174.878 58.496 175.132 58.4509 175.39 58.42C175.718 58.3821 175.984 58.3512 176.188 58.3275C176.392 58.3014 176.54 58.2598 176.633 58.2029C176.725 58.1459 176.772 58.0534 176.772 57.9252V57.9003C176.772 57.5894 176.684 57.3485 176.508 57.1776C176.335 57.0067 176.076 56.9212 175.732 56.9212C175.374 56.9212 175.091 57.0007 174.885 57.1598C174.681 57.3164 174.539 57.4909 174.461 57.6831L173.461 57.4553C173.579 57.123 173.753 56.8548 173.98 56.6507C174.211 56.4442 174.475 56.2947 174.774 56.2021C175.073 56.1072 175.388 56.0597 175.718 56.0597C175.936 56.0597 176.168 56.0858 176.412 56.138C176.659 56.1879 176.889 56.2804 177.103 56.4157C177.319 56.551 177.495 56.7444 177.633 56.996C177.771 57.2452 177.84 57.5692 177.84 57.9679V61.5992H176.8V60.8516H176.757C176.688 60.9893 176.585 61.1246 176.448 61.2575C176.31 61.3904 176.133 61.5007 175.917 61.5886C175.701 61.6764 175.442 61.7203 175.141 61.7203ZM175.372 60.8659C175.667 60.8659 175.918 60.8077 176.127 60.6914C176.338 60.5751 176.499 60.4232 176.608 60.2357C176.719 60.0458 176.775 59.8429 176.775 59.6269V58.922C176.737 58.96 176.664 58.9956 176.554 59.0288C176.448 59.0597 176.325 59.087 176.188 59.1107C176.05 59.1321 175.916 59.1522 175.785 59.1712C175.655 59.1879 175.546 59.2021 175.458 59.214C175.251 59.2401 175.063 59.284 174.892 59.3457C174.723 59.4074 174.588 59.4964 174.486 59.6127C174.386 59.7266 174.336 59.8785 174.336 60.0684C174.336 60.3318 174.434 60.5312 174.628 60.6665C174.823 60.7994 175.071 60.8659 175.372 60.8659ZM180.322 54.3081V61.5992H179.257V54.3081H180.322ZM184.493 61.5992V54.3081H189.064V55.2551H185.593V57.4766H188.825V58.42H185.593V60.6522H189.106V61.5992H184.493ZM194.545 57.4659L193.581 57.6368C193.54 57.5134 193.476 57.3959 193.388 57.2844C193.303 57.1728 193.187 57.0814 193.04 57.0102C192.892 56.939 192.708 56.9034 192.488 56.9034C192.186 56.9034 191.935 56.9711 191.733 57.1064C191.531 57.2393 191.43 57.4113 191.43 57.6226C191.43 57.8053 191.498 57.9525 191.633 58.064C191.769 58.1756 191.987 58.267 192.288 58.3382L193.157 58.5375C193.66 58.6538 194.035 58.833 194.282 59.0751C194.529 59.3172 194.652 59.6317 194.652 60.0185C194.652 60.3461 194.557 60.638 194.367 60.8943C194.18 61.1483 193.918 61.3477 193.581 61.4924C193.246 61.6372 192.858 61.7096 192.417 61.7096C191.804 61.7096 191.305 61.5791 190.918 61.318C190.531 61.0545 190.293 60.6807 190.206 60.1966L191.235 60.0399C191.299 60.3081 191.43 60.511 191.63 60.6487C191.829 60.784 192.089 60.8516 192.409 60.8516C192.758 60.8516 193.037 60.7792 193.246 60.6344C193.455 60.4873 193.559 60.3081 193.559 60.0969C193.559 59.926 193.495 59.7824 193.367 59.6661C193.241 59.5498 193.048 59.462 192.787 59.4026L191.861 59.1997C191.351 59.0834 190.973 58.8983 190.729 58.6443C190.487 58.3904 190.366 58.0688 190.366 57.6795C190.366 57.3568 190.456 57.0743 190.636 56.8322C190.817 56.5901 191.066 56.4015 191.384 56.2662C191.702 56.1285 192.066 56.0597 192.477 56.0597C193.068 56.0597 193.533 56.1879 193.873 56.4442C194.212 56.6981 194.436 57.0387 194.545 57.4659ZM198.375 56.1309V56.9853H195.388V56.1309H198.375ZM196.189 54.8208H197.254V59.9936C197.254 60.2001 197.285 60.3556 197.346 60.46C197.408 60.5621 197.488 60.6321 197.585 60.6701C197.685 60.7057 197.793 60.7235 197.909 60.7235C197.994 60.7235 198.069 60.7175 198.133 60.7057C198.197 60.6938 198.247 60.6843 198.283 60.6772L198.475 61.5565C198.413 61.5803 198.325 61.604 198.212 61.6277C198.098 61.6538 197.955 61.6681 197.784 61.6704C197.504 61.6752 197.243 61.6254 197.001 61.5209C196.759 61.4165 196.563 61.2551 196.414 61.0367C196.264 60.8184 196.189 60.5443 196.189 60.2144V54.8208ZM201.144 61.7203C200.798 61.7203 200.484 61.6562 200.204 61.528C199.924 61.3975 199.702 61.2088 199.539 60.962C199.377 60.7151 199.296 60.4125 199.296 60.0541C199.296 59.7456 199.356 59.4916 199.474 59.2923C199.593 59.0929 199.753 58.9351 199.955 58.8188C200.157 58.7025 200.382 58.6147 200.632 58.5553C200.881 58.496 201.135 58.4509 201.393 58.42C201.721 58.3821 201.987 58.3512 202.191 58.3275C202.395 58.3014 202.543 58.2598 202.636 58.2029C202.728 58.1459 202.775 58.0534 202.775 57.9252V57.9003C202.775 57.5894 202.687 57.3485 202.511 57.1776C202.338 57.0067 202.079 56.9212 201.735 56.9212C201.377 56.9212 201.094 57.0007 200.888 57.1598C200.684 57.3164 200.543 57.4909 200.464 57.6831L199.464 57.4553C199.582 57.123 199.756 56.8548 199.984 56.6507C200.214 56.4442 200.478 56.2947 200.777 56.2021C201.077 56.1072 201.391 56.0597 201.721 56.0597C201.939 56.0597 202.171 56.0858 202.415 56.138C202.662 56.1879 202.892 56.2804 203.106 56.4157C203.322 56.551 203.499 56.7444 203.636 56.996C203.774 57.2452 203.843 57.5692 203.843 57.9679V61.5992H202.803V60.8516H202.76C202.692 60.9893 202.588 61.1246 202.451 61.2575C202.313 61.3904 202.136 61.5007 201.92 61.5886C201.704 61.6764 201.446 61.7203 201.144 61.7203ZM201.376 60.8659C201.67 60.8659 201.921 60.8077 202.13 60.6914C202.342 60.5751 202.502 60.4232 202.611 60.2357C202.722 60.0458 202.778 59.8429 202.778 59.6269V58.922C202.74 58.96 202.667 58.9956 202.558 59.0288C202.451 59.0597 202.329 59.087 202.191 59.1107C202.053 59.1321 201.919 59.1522 201.789 59.1712C201.658 59.1879 201.549 59.2021 201.461 59.214C201.255 59.2401 201.066 59.284 200.895 59.3457C200.726 59.4074 200.591 59.4964 200.489 59.6127C200.389 59.7266 200.34 59.8785 200.34 60.0684C200.34 60.3318 200.437 60.5312 200.632 60.6665C200.826 60.7994 201.074 60.8659 201.376 60.8659ZM207.813 56.1309V56.9853H204.826V56.1309H207.813ZM205.627 54.8208H206.692V59.9936C206.692 60.2001 206.723 60.3556 206.784 60.46C206.846 60.5621 206.926 60.6321 207.023 60.6701C207.123 60.7057 207.231 60.7235 207.347 60.7235C207.432 60.7235 207.507 60.7175 207.571 60.7057C207.635 60.6938 207.685 60.6843 207.721 60.6772L207.913 61.5565C207.851 61.5803 207.763 61.604 207.649 61.6277C207.535 61.6538 207.393 61.6681 207.222 61.6704C206.942 61.6752 206.681 61.6254 206.439 61.5209C206.197 61.4165 206.001 61.2551 205.852 61.0367C205.702 60.8184 205.627 60.5443 205.627 60.2144V54.8208ZM211.289 61.7096C210.75 61.7096 210.286 61.5945 209.897 61.3643C209.51 61.1317 209.211 60.8053 209 60.3852C208.791 59.9628 208.686 59.4679 208.686 58.9007C208.686 58.3405 208.791 57.8469 209 57.4197C209.211 56.9924 209.505 56.659 209.882 56.4193C210.262 56.1795 210.706 56.0597 211.214 56.0597C211.523 56.0597 211.822 56.1107 212.111 56.2128C212.401 56.3148 212.661 56.475 212.891 56.6934C213.121 56.9117 213.303 57.1954 213.436 57.5443C213.568 57.8908 213.635 58.3121 213.635 58.8081V59.1855H209.288V58.388H212.592C212.592 58.1079 212.535 57.8599 212.421 57.6439C212.307 57.4256 212.147 57.2535 211.94 57.1277C211.736 57.0019 211.496 56.939 211.221 56.939C210.922 56.939 210.661 57.0126 210.438 57.1598C210.217 57.3045 210.046 57.4944 209.925 57.7294C209.807 57.962 209.747 58.2147 209.747 58.4877V59.1107C209.747 59.4762 209.811 59.7871 209.939 60.0435C210.07 60.2998 210.252 60.4956 210.484 60.6309C210.717 60.7638 210.989 60.8303 211.299 60.8303C211.501 60.8303 211.685 60.8018 211.851 60.7448C212.017 60.6855 212.161 60.5977 212.282 60.4814C212.403 60.3651 212.496 60.2215 212.56 60.0506L213.567 60.2322C213.487 60.5288 213.342 60.7887 213.133 61.0118C212.926 61.2326 212.667 61.4046 212.353 61.528C212.042 61.6491 211.687 61.7096 211.289 61.7096ZM215.517 61.6669C215.323 61.6669 215.155 61.5981 215.015 61.4604C214.875 61.3204 214.805 61.1519 214.805 60.9549C214.805 60.7602 214.875 60.5941 215.015 60.4564C215.155 60.3164 215.323 60.2464 215.517 60.2464C215.712 60.2464 215.879 60.3164 216.019 60.4564C216.159 60.5941 216.229 60.7602 216.229 60.9549C216.229 61.0854 216.196 61.2053 216.13 61.3144C216.066 61.4212 215.98 61.5067 215.873 61.5708C215.766 61.6348 215.648 61.6669 215.517 61.6669ZM215.517 57.6867C215.323 57.6867 215.155 57.6166 215.015 57.4766C214.875 57.3366 214.805 57.1693 214.805 56.9746C214.805 56.78 214.875 56.6139 215.015 56.4762C215.155 56.3362 215.323 56.2662 215.517 56.2662C215.712 56.2662 215.879 56.3362 216.019 56.4762C216.159 56.6139 216.229 56.78 216.229 56.9746C216.229 57.1052 216.196 57.225 216.13 57.3342C216.066 57.441 215.98 57.5265 215.873 57.5905C215.766 57.6546 215.648 57.6867 215.517 57.6867Z" fill="#425466"/>
<path d="M291.965 62.5992V61.4861L294.918 58.5911C295.201 58.3059 295.436 58.0526 295.624 57.831C295.813 57.6095 295.954 57.3949 296.048 57.1873C296.142 56.9796 296.189 56.7581 296.189 56.5227C296.189 56.2541 296.128 56.0243 296.006 55.8332C295.885 55.6394 295.717 55.4899 295.504 55.3846C295.291 55.2794 295.048 55.2268 294.777 55.2268C294.497 55.2268 294.252 55.285 294.042 55.4013C293.831 55.5148 293.668 55.6768 293.552 55.8872C293.438 56.0977 293.381 56.3483 293.381 56.639H291.915C291.915 56.099 292.038 55.6297 292.285 55.231C292.531 54.8322 292.871 54.5235 293.302 54.3047C293.737 54.086 294.236 53.9766 294.798 53.9766C295.368 53.9766 295.869 54.0832 296.301 54.2964C296.733 54.5096 297.068 54.8018 297.306 55.1728C297.547 55.5439 297.668 55.9675 297.668 56.4438C297.668 56.7622 297.607 57.0751 297.485 57.3825C297.363 57.6898 297.149 58.0304 296.841 58.4042C296.537 58.778 296.109 59.2308 295.558 59.7624L294.092 61.2535V61.3117H297.797V62.5992H291.965ZM298.893 61.0209V59.7956L302.502 54.0929H303.524V55.8374H302.901L300.471 59.6877V59.7541H305.51V61.0209H298.893ZM302.951 62.5992V60.6471L302.968 60.0988V54.0929H304.421V62.5992H302.951ZM311.385 61.0043V60.5557C311.385 60.2262 311.454 59.923 311.592 59.6461C311.734 59.3692 311.938 59.1463 312.207 58.9774C312.476 58.8085 312.801 58.724 313.183 58.724C313.576 58.724 313.906 58.8085 314.172 58.9774C314.437 59.1435 314.638 59.3651 314.774 59.642C314.912 59.9189 314.982 60.2235 314.982 60.5557V61.0043C314.982 61.3338 314.912 61.637 314.774 61.9139C314.635 62.1908 314.432 62.4137 314.163 62.5826C313.898 62.7515 313.571 62.836 313.183 62.836C312.795 62.836 312.467 62.7515 312.199 62.5826C311.93 62.4137 311.727 62.1908 311.588 61.9139C311.453 61.637 311.385 61.3338 311.385 61.0043ZM312.469 60.5557V61.0043C312.469 61.2231 312.521 61.4238 312.627 61.6066C312.732 61.7893 312.917 61.8807 313.183 61.8807C313.452 61.8807 313.636 61.7907 313.736 61.6107C313.838 61.428 313.889 61.2258 313.889 61.0043V60.5557C313.889 60.3342 313.841 60.1321 313.744 59.9493C313.647 59.7638 313.46 59.671 313.183 59.671C312.923 59.671 312.739 59.7638 312.631 59.9493C312.523 60.1321 312.469 60.3342 312.469 60.5557ZM307.061 56.1364V55.6879C307.061 55.3556 307.132 55.051 307.273 54.7741C307.414 54.4972 307.619 54.2757 307.887 54.1095C308.156 53.9406 308.481 53.8562 308.864 53.8562C309.254 53.8562 309.582 53.9406 309.848 54.1095C310.116 54.2757 310.319 54.4972 310.454 54.7741C310.59 55.051 310.658 55.3556 310.658 55.6879V56.1364C310.658 56.4687 310.589 56.7733 310.45 57.0502C310.314 57.3243 310.112 57.5445 309.844 57.7106C309.575 57.8767 309.248 57.9598 308.864 57.9598C308.473 57.9598 308.144 57.8767 307.875 57.7106C307.609 57.5445 307.407 57.3229 307.269 57.046C307.13 56.7691 307.061 56.4659 307.061 56.1364ZM308.153 55.6879V56.1364C308.153 56.3579 308.204 56.5601 308.307 56.7428C308.412 56.9228 308.598 57.0128 308.864 57.0128C309.129 57.0128 309.312 56.9228 309.412 56.7428C309.514 56.5601 309.565 56.3579 309.565 56.1364V55.6879C309.565 55.4663 309.517 55.2642 309.42 55.0814C309.323 54.8959 309.138 54.8032 308.864 54.8032C308.6 54.8032 308.416 54.8959 308.311 55.0814C308.206 55.267 308.153 55.4691 308.153 55.6879ZM307.534 62.5992L313.382 54.0929H314.421L308.573 62.5992H307.534Z" fill="#425466"/>
<rect x="147.19" y="75.3125" width="6.68354" height="6.68354" rx="1.67089" fill="#FAB592"/>
<path d="M161.358 81.6543V74.3632H163.957C164.524 74.3632 164.994 74.4664 165.367 74.6729C165.739 74.8794 166.018 75.1618 166.203 75.5202C166.388 75.8762 166.481 76.2773 166.481 76.7235C166.481 77.1721 166.387 77.5756 166.2 77.934C166.015 78.29 165.735 78.5724 165.36 78.7813C164.987 78.9878 164.518 79.091 163.953 79.091H162.166V78.1583H163.854C164.212 78.1583 164.503 78.0965 164.726 77.9731C164.949 77.8473 165.113 77.6764 165.217 77.4605C165.322 77.2445 165.374 76.9988 165.374 76.7235C165.374 76.4482 165.322 76.2037 165.217 75.9901C165.113 75.7765 164.948 75.6092 164.722 75.4882C164.499 75.3671 164.205 75.3066 163.839 75.3066H162.458V81.6543H161.358ZM169.228 81.7753C168.881 81.7753 168.568 81.7113 168.288 81.5831C168.008 81.4526 167.786 81.2639 167.622 81.017C167.461 80.7702 167.38 80.4676 167.38 80.1092C167.38 79.8007 167.439 79.5467 167.558 79.3473C167.677 79.148 167.837 78.9901 168.039 78.8738C168.24 78.7575 168.466 78.6697 168.715 78.6104C168.964 78.5511 169.218 78.506 169.477 78.4751C169.804 78.4371 170.07 78.4063 170.274 78.3825C170.478 78.3564 170.627 78.3149 170.719 78.2579C170.812 78.201 170.858 78.1084 170.858 77.9802V77.9553C170.858 77.6444 170.77 77.4035 170.595 77.2326C170.421 77.0617 170.163 76.9763 169.819 76.9763C169.46 76.9763 169.178 77.0558 168.971 77.2148C168.767 77.3715 168.626 77.5459 168.548 77.7382L167.547 77.5103C167.666 77.178 167.839 76.9098 168.067 76.7057C168.297 76.4992 168.562 76.3497 168.861 76.2571C169.16 76.1622 169.474 76.1147 169.804 76.1147C170.023 76.1147 170.254 76.1408 170.499 76.1931C170.745 76.2429 170.976 76.3355 171.189 76.4708C171.405 76.606 171.582 76.7995 171.72 77.0511C171.857 77.3003 171.926 77.6242 171.926 78.023V81.6543H170.887V80.9067H170.844C170.775 81.0443 170.672 81.1796 170.534 81.3125C170.397 81.4454 170.22 81.5558 170.004 81.6436C169.788 81.7314 169.529 81.7753 169.228 81.7753ZM169.459 80.9209C169.753 80.9209 170.005 80.8628 170.214 80.7465C170.425 80.6302 170.585 80.4783 170.694 80.2908C170.806 80.1009 170.862 79.898 170.862 79.682V78.9771C170.824 79.0151 170.75 79.0507 170.641 79.0839C170.534 79.1147 170.412 79.142 170.274 79.1658C170.137 79.1871 170.003 79.2073 169.872 79.2263C169.741 79.2429 169.632 79.2571 169.544 79.269C169.338 79.2951 169.149 79.339 168.978 79.4007C168.81 79.4624 168.675 79.5514 168.573 79.6677C168.473 79.7817 168.423 79.9336 168.423 80.1234C168.423 80.3869 168.52 80.5863 168.715 80.7215C168.91 80.8545 169.158 80.9209 169.459 80.9209ZM177.442 77.521L176.477 77.6919C176.437 77.5685 176.373 77.451 176.285 77.3394C176.199 77.2279 176.083 77.1365 175.936 77.0653C175.789 76.9941 175.605 76.9585 175.384 76.9585C175.083 76.9585 174.831 77.0261 174.629 77.1614C174.427 77.2943 174.327 77.4664 174.327 77.6776C174.327 77.8604 174.394 78.0075 174.53 78.1191C174.665 78.2306 174.883 78.322 175.185 78.3932L176.053 78.5926C176.556 78.7089 176.931 78.8881 177.178 79.1302C177.425 79.3723 177.549 79.6867 177.549 80.0736C177.549 80.4011 177.454 80.6931 177.264 80.9494C177.076 81.2033 176.814 81.4027 176.477 81.5475C176.142 81.6923 175.754 81.7647 175.313 81.7647C174.7 81.7647 174.201 81.6341 173.814 81.373C173.427 81.1096 173.19 80.7358 173.102 80.2516L174.131 80.095C174.195 80.3632 174.327 80.5661 174.526 80.7037C174.725 80.839 174.985 80.9067 175.306 80.9067C175.655 80.9067 175.933 80.8343 176.142 80.6895C176.351 80.5424 176.456 80.3632 176.456 80.1519C176.456 79.981 176.391 79.8374 176.263 79.7211C176.138 79.6049 175.944 79.517 175.683 79.4577L174.757 79.2548C174.247 79.1385 173.87 78.9533 173.625 78.6994C173.383 78.4454 173.262 78.1238 173.262 77.7346C173.262 77.4118 173.352 77.1294 173.533 76.8873C173.713 76.6452 173.962 76.4565 174.28 76.3212C174.598 76.1836 174.963 76.1147 175.373 76.1147C175.964 76.1147 176.429 76.2429 176.769 76.4992C177.108 76.7532 177.333 77.0938 177.442 77.521ZM182.817 77.521L181.852 77.6919C181.811 77.5685 181.747 77.451 181.66 77.3394C181.574 77.2279 181.458 77.1365 181.311 77.0653C181.164 76.9941 180.98 76.9585 180.759 76.9585C180.457 76.9585 180.206 77.0261 180.004 77.1614C179.802 77.2943 179.702 77.4664 179.702 77.6776C179.702 77.8604 179.769 78.0075 179.904 78.1191C180.04 78.2306 180.258 78.322 180.56 78.3932L181.428 78.5926C181.931 78.7089 182.306 78.8881 182.553 79.1302C182.8 79.3723 182.923 79.6867 182.923 80.0736C182.923 80.4011 182.829 80.6931 182.639 80.9494C182.451 81.2033 182.189 81.4027 181.852 81.5475C181.517 81.6923 181.129 81.7647 180.688 81.7647C180.075 81.7647 179.576 81.6341 179.189 81.373C178.802 81.1096 178.565 80.7358 178.477 80.2516L179.506 80.095C179.57 80.3632 179.702 80.5661 179.901 80.7037C180.1 80.839 180.36 80.9067 180.681 80.9067C181.029 80.9067 181.308 80.8343 181.517 80.6895C181.726 80.5424 181.83 80.3632 181.83 80.1519C181.83 79.981 181.766 79.8374 181.638 79.7211C181.512 79.6049 181.319 79.517 181.058 79.4577L180.132 79.2548C179.622 79.1385 179.245 78.9533 179 78.6994C178.758 78.4454 178.637 78.1238 178.637 77.7346C178.637 77.4118 178.727 77.1294 178.908 76.8873C179.088 76.6452 179.337 76.4565 179.655 76.3212C179.973 76.1836 180.338 76.1147 180.748 76.1147C181.339 76.1147 181.804 76.2429 182.144 76.4992C182.483 76.7532 182.707 77.0938 182.817 77.521ZM184.094 81.6543V76.1859H185.158V81.6543H184.094ZM184.631 75.3422C184.446 75.3422 184.287 75.2805 184.154 75.1571C184.024 75.0313 183.959 74.8817 183.959 74.7085C183.959 74.5329 184.024 74.3833 184.154 74.2599C184.287 74.1341 184.446 74.0712 184.631 74.0712C184.817 74.0712 184.974 74.1341 185.105 74.2599C185.238 74.3833 185.304 74.5329 185.304 74.7085C185.304 74.8817 185.238 75.0313 185.105 75.1571C184.974 75.2805 184.817 75.3422 184.631 75.3422ZM191.268 76.1859L189.285 81.6543H188.146L186.16 76.1859H187.302L188.687 80.394H188.744L190.126 76.1859H191.268ZM194.44 81.7647C193.901 81.7647 193.437 81.6496 193.048 81.4193C192.661 81.1867 192.362 80.8604 192.15 80.4403C191.942 80.0178 191.837 79.523 191.837 78.9557C191.837 78.3956 191.942 77.9019 192.15 77.4747C192.362 77.0475 192.656 76.714 193.033 76.4743C193.413 76.2346 193.857 76.1147 194.365 76.1147C194.673 76.1147 194.972 76.1658 195.262 76.2678C195.552 76.3699 195.811 76.5301 196.042 76.7484C196.272 76.9668 196.453 77.2504 196.586 77.5993C196.719 77.9458 196.786 78.3671 196.786 78.8632V79.2405H192.439V78.4431H195.743C195.743 78.163 195.686 77.915 195.572 77.699C195.458 77.4806 195.298 77.3086 195.091 77.1828C194.887 77.057 194.647 76.9941 194.372 76.9941C194.073 76.9941 193.812 77.0677 193.589 77.2148C193.368 77.3596 193.197 77.5495 193.076 77.7844C192.957 78.017 192.898 78.2698 192.898 78.5427V79.1658C192.898 79.5313 192.962 79.8422 193.09 80.0985C193.221 80.3549 193.402 80.5507 193.635 80.6859C193.868 80.8189 194.139 80.8853 194.45 80.8853C194.652 80.8853 194.836 80.8568 195.002 80.7999C195.168 80.7405 195.312 80.6527 195.433 80.5364C195.554 80.4201 195.646 80.2765 195.711 80.1056L196.718 80.2872C196.637 80.5839 196.493 80.8438 196.284 81.0669C196.077 81.2876 195.817 81.4597 195.504 81.5831C195.193 81.7041 194.838 81.7647 194.44 81.7647ZM201.805 74.3632V81.6543H200.705V74.3632H201.805ZM204.387 78.4075V81.6543H203.322V76.1859H204.344V77.076H204.411C204.537 76.7864 204.734 76.5538 205.002 76.3782C205.273 76.2026 205.614 76.1147 206.024 76.1147C206.397 76.1147 206.723 76.1931 207.003 76.3497C207.283 76.504 207.5 76.7342 207.655 77.0404C207.809 77.3465 207.886 77.7251 207.886 78.1761V81.6543H206.822V78.3042C206.822 77.9079 206.718 77.5981 206.512 77.375C206.305 77.1496 206.022 77.0368 205.661 77.0368C205.414 77.0368 205.195 77.0902 205.002 77.197C204.813 77.3038 204.662 77.4605 204.55 77.667C204.441 77.8711 204.387 78.1179 204.387 78.4075ZM211.617 81.7647C211.088 81.7647 210.632 81.6448 210.25 81.4051C209.87 81.163 209.578 80.8295 209.374 80.4047C209.17 79.9799 209.068 79.4933 209.068 78.945C209.068 78.3897 209.173 77.8995 209.381 77.4747C209.59 77.0475 209.885 76.714 210.264 76.4743C210.644 76.2346 211.091 76.1147 211.606 76.1147C212.022 76.1147 212.392 76.1919 212.717 76.3461C213.042 76.498 213.305 76.7117 213.504 76.987C213.706 77.2623 213.826 77.5839 213.864 77.9518H212.828C212.771 77.6954 212.64 77.4747 212.436 77.2896C212.234 77.1045 211.964 77.0119 211.624 77.0119C211.328 77.0119 211.068 77.0902 210.845 77.2469C210.624 77.4011 210.452 77.6219 210.328 77.909C210.205 78.1939 210.143 78.5309 210.143 78.9201C210.143 79.3189 210.204 79.663 210.325 79.9526C210.446 80.2421 210.617 80.4664 210.838 80.6254C211.061 80.7844 211.323 80.8639 211.624 80.8639C211.826 80.8639 212.009 80.8272 212.173 80.7536C212.339 80.6776 212.478 80.5696 212.589 80.4296C212.703 80.2896 212.783 80.1211 212.828 79.9241H213.864C213.826 80.2777 213.711 80.5934 213.518 80.8711C213.326 81.1488 213.069 81.3671 212.746 81.5261C212.425 81.6852 212.049 81.7647 211.617 81.7647ZM217.305 81.7647C216.793 81.7647 216.345 81.6472 215.963 81.4122C215.581 81.1772 215.284 80.8485 215.073 80.4261C214.862 80.0036 214.756 79.5099 214.756 78.945C214.756 78.3778 214.862 77.8817 215.073 77.4569C215.284 77.0321 215.581 76.7022 215.963 76.4672C216.345 76.2322 216.793 76.1147 217.305 76.1147C217.818 76.1147 218.265 76.2322 218.648 76.4672C219.03 76.7022 219.326 77.0321 219.538 77.4569C219.749 77.8817 219.854 78.3778 219.854 78.945C219.854 79.5099 219.749 80.0036 219.538 80.4261C219.326 80.8485 219.03 81.1772 218.648 81.4122C218.265 81.6472 217.818 81.7647 217.305 81.7647ZM217.309 80.8711C217.641 80.8711 217.917 80.7833 218.135 80.6076C218.353 80.432 218.515 80.1982 218.619 79.9063C218.726 79.6143 218.779 79.2927 218.779 78.9415C218.779 78.5926 218.726 78.2722 218.619 77.9802C218.515 77.6859 218.353 77.4498 218.135 77.2718C217.917 77.0938 217.641 77.0048 217.309 77.0048C216.974 77.0048 216.697 77.0938 216.476 77.2718C216.257 77.4498 216.095 77.6859 215.988 77.9802C215.884 78.2722 215.831 78.5926 215.831 78.9415C215.831 79.2927 215.884 79.6143 215.988 79.9063C216.095 80.1982 216.257 80.432 216.476 80.6076C216.697 80.7833 216.974 80.8711 217.309 80.8711ZM221.043 81.6543V76.1859H222.064V77.076H222.132C222.246 76.7746 222.432 76.5396 222.691 76.3711C222.95 76.2002 223.259 76.1147 223.62 76.1147C223.986 76.1147 224.292 76.2002 224.539 76.3711C224.788 76.542 224.972 76.7769 225.09 77.076H225.147C225.278 76.784 225.486 76.5514 225.77 76.3782C226.055 76.2026 226.395 76.1147 226.789 76.1147C227.285 76.1147 227.689 76.2702 228.003 76.5811C228.318 76.892 228.476 77.3608 228.476 77.9874V81.6543H227.412V78.0871C227.412 77.7168 227.311 77.4486 227.109 77.2825C226.907 77.1163 226.666 77.0333 226.386 77.0333C226.04 77.0333 225.77 77.1401 225.578 77.3537C225.386 77.5649 225.29 77.8367 225.29 78.1689V81.6543H224.229V78.0194C224.229 77.7227 224.136 77.4842 223.951 77.3038C223.766 77.1234 223.525 77.0333 223.229 77.0333C223.027 77.0333 222.84 77.0867 222.67 77.1935C222.501 77.2979 222.365 77.4439 222.26 77.6314C222.158 77.8189 222.107 78.036 222.107 78.2829V81.6543H221.043ZM232.26 81.7647C231.721 81.7647 231.257 81.6496 230.868 81.4193C230.481 81.1867 230.182 80.8604 229.971 80.4403C229.762 80.0178 229.657 79.523 229.657 78.9557C229.657 78.3956 229.762 77.9019 229.971 77.4747C230.182 77.0475 230.476 76.714 230.853 76.4743C231.233 76.2346 231.677 76.1147 232.185 76.1147C232.493 76.1147 232.793 76.1658 233.082 76.2678C233.372 76.3699 233.632 76.5301 233.862 76.7484C234.092 76.9668 234.274 77.2504 234.406 77.5993C234.539 77.9458 234.606 78.3671 234.606 78.8632V79.2405H230.259V78.4431H233.563C233.563 78.163 233.506 77.915 233.392 77.699C233.278 77.4806 233.118 77.3086 232.911 77.1828C232.707 77.057 232.467 76.9941 232.192 76.9941C231.893 76.9941 231.632 77.0677 231.409 77.2148C231.188 77.3596 231.017 77.5495 230.896 77.7844C230.777 78.017 230.718 78.2698 230.718 78.5427V79.1658C230.718 79.5313 230.782 79.8422 230.91 80.0985C231.041 80.3549 231.222 80.5507 231.455 80.6859C231.688 80.8189 231.959 80.8853 232.27 80.8853C232.472 80.8853 232.656 80.8568 232.822 80.7999C232.988 80.7405 233.132 80.6527 233.253 80.5364C233.374 80.4201 233.467 80.2765 233.531 80.1056L234.538 80.2872C234.457 80.5839 234.313 80.8438 234.104 81.0669C233.897 81.2876 233.637 81.4597 233.324 81.5831C233.013 81.7041 232.658 81.7647 232.26 81.7647ZM239.141 81.6543H237.974L240.597 74.3632H241.868L244.492 81.6543H243.325L241.263 75.6875H241.206L239.141 81.6543ZM239.337 78.7991H243.125V79.7247H239.337V78.7991ZM249.518 77.521L248.553 77.6919C248.513 77.5685 248.449 77.451 248.361 77.3394C248.276 77.2279 248.159 77.1365 248.012 77.0653C247.865 76.9941 247.681 76.9585 247.461 76.9585C247.159 76.9585 246.908 77.0261 246.706 77.1614C246.504 77.2943 246.403 77.4664 246.403 77.6776C246.403 77.8604 246.471 78.0075 246.606 78.1191C246.741 78.2306 246.96 78.322 247.261 78.3932L248.13 78.5926C248.633 78.7089 249.008 78.8881 249.255 79.1302C249.502 79.3723 249.625 79.6867 249.625 80.0736C249.625 80.4011 249.53 80.6931 249.34 80.9494C249.153 81.2033 248.891 81.4027 248.553 81.5475C248.219 81.6923 247.831 81.7647 247.389 81.7647C246.777 81.7647 246.277 81.6341 245.891 81.373C245.504 81.1096 245.266 80.7358 245.178 80.2516L246.207 80.095C246.271 80.3632 246.403 80.5661 246.603 80.7037C246.802 80.839 247.062 80.9067 247.382 80.9067C247.731 80.9067 248.01 80.8343 248.219 80.6895C248.428 80.5424 248.532 80.3632 248.532 80.1519C248.532 79.981 248.468 79.8374 248.34 79.7211C248.214 79.6049 248.021 79.517 247.76 79.4577L246.834 79.2548C246.324 79.1385 245.946 78.9533 245.702 78.6994C245.46 78.4454 245.339 78.1238 245.339 77.7346C245.339 77.4118 245.429 77.1294 245.609 76.8873C245.79 76.6452 246.039 76.4565 246.357 76.3212C246.675 76.1836 247.039 76.1147 247.45 76.1147C248.041 76.1147 248.506 76.2429 248.845 76.4992C249.185 76.7532 249.409 77.0938 249.518 77.521ZM254.893 77.521L253.928 77.6919C253.888 77.5685 253.824 77.451 253.736 77.3394C253.651 77.2279 253.534 77.1365 253.387 77.0653C253.24 76.9941 253.056 76.9585 252.835 76.9585C252.534 76.9585 252.282 77.0261 252.081 77.1614C251.879 77.2943 251.778 77.4664 251.778 77.6776C251.778 77.8604 251.846 78.0075 251.981 78.1191C252.116 78.2306 252.335 78.322 252.636 78.3932L253.505 78.5926C254.008 78.7089 254.383 78.8881 254.63 79.1302C254.877 79.3723 255 79.6867 255 80.0736C255 80.4011 254.905 80.6931 254.715 80.9494C254.528 81.2033 254.265 81.4027 253.928 81.5475C253.594 81.6923 253.206 81.7647 252.764 81.7647C252.152 81.7647 251.652 81.6341 251.265 81.373C250.879 81.1096 250.641 80.7358 250.553 80.2516L251.582 80.095C251.646 80.3632 251.778 80.5661 251.977 80.7037C252.177 80.839 252.437 80.9067 252.757 80.9067C253.106 80.9067 253.385 80.8343 253.594 80.6895C253.803 80.5424 253.907 80.3632 253.907 80.1519C253.907 79.981 253.843 79.8374 253.715 79.7211C253.589 79.6049 253.396 79.517 253.134 79.4577L252.209 79.2548C251.699 79.1385 251.321 78.9533 251.077 78.6994C250.835 78.4454 250.714 78.1238 250.714 77.7346C250.714 77.4118 250.804 77.1294 250.984 76.8873C251.165 76.6452 251.414 76.4565 251.732 76.3212C252.05 76.1836 252.414 76.1147 252.825 76.1147C253.416 76.1147 253.881 76.2429 254.22 76.4992C254.56 76.7532 254.784 77.0938 254.893 77.521ZM258.527 81.7647C257.988 81.7647 257.524 81.6496 257.135 81.4193C256.748 81.1867 256.449 80.8604 256.238 80.4403C256.029 80.0178 255.925 79.523 255.925 78.9557C255.925 78.3956 256.029 77.9019 256.238 77.4747C256.449 77.0475 256.744 76.714 257.121 76.4743C257.501 76.2346 257.945 76.1147 258.452 76.1147C258.761 76.1147 259.06 76.1658 259.35 76.2678C259.639 76.3699 259.899 76.5301 260.129 76.7484C260.359 76.9668 260.541 77.2504 260.674 77.5993C260.807 77.9458 260.873 78.3671 260.873 78.8632V79.2405H256.526V78.4431H259.83C259.83 78.163 259.773 77.915 259.659 77.699C259.545 77.4806 259.385 77.3086 259.179 77.1828C258.975 77.057 258.735 76.9941 258.46 76.9941C258.16 76.9941 257.899 77.0677 257.676 77.2148C257.456 77.3596 257.285 77.5495 257.164 77.7844C257.045 78.017 256.986 78.2698 256.986 78.5427V79.1658C256.986 79.5313 257.05 79.8422 257.178 80.0985C257.308 80.3549 257.49 80.5507 257.723 80.6859C257.955 80.8189 258.227 80.8853 258.538 80.8853C258.74 80.8853 258.924 80.8568 259.09 80.7999C259.256 80.7405 259.399 80.6527 259.52 80.5364C259.641 80.4201 259.734 80.2765 259.798 80.1056L260.806 80.2872C260.725 80.5839 260.58 80.8438 260.371 81.0669C260.165 81.2876 259.905 81.4597 259.592 81.5831C259.281 81.7041 258.926 81.7647 258.527 81.7647ZM264.607 76.1859V77.0404H261.62V76.1859H264.607ZM262.421 74.8758H263.486V80.0487C263.486 80.2552 263.516 80.4106 263.578 80.5151C263.64 80.6171 263.719 80.6871 263.817 80.7251C263.916 80.7607 264.024 80.7785 264.141 80.7785C264.226 80.7785 264.301 80.7726 264.365 80.7607C264.429 80.7488 264.479 80.7393 264.514 80.7322L264.707 81.6116C264.645 81.6353 264.557 81.659 264.443 81.6828C264.329 81.7089 264.187 81.7231 264.016 81.7255C263.736 81.7302 263.475 81.6804 263.233 81.576C262.991 81.4715 262.795 81.3102 262.645 81.0918C262.496 80.8734 262.421 80.5993 262.421 80.2694V74.8758ZM269.794 77.521L268.829 77.6919C268.789 77.5685 268.725 77.451 268.637 77.3394C268.552 77.2279 268.435 77.1365 268.288 77.0653C268.141 76.9941 267.957 76.9585 267.736 76.9585C267.435 76.9585 267.183 77.0261 266.982 77.1614C266.78 77.2943 266.679 77.4664 266.679 77.6776C266.679 77.8604 266.747 78.0075 266.882 78.1191C267.017 78.2306 267.236 78.322 267.537 78.3932L268.406 78.5926C268.909 78.7089 269.284 78.8881 269.531 79.1302C269.777 79.3723 269.901 79.6867 269.901 80.0736C269.901 80.4011 269.806 80.6931 269.616 80.9494C269.429 81.2033 269.166 81.4027 268.829 81.5475C268.495 81.6923 268.107 81.7647 267.665 81.7647C267.053 81.7647 266.553 81.6341 266.166 81.373C265.779 81.1096 265.542 80.7358 265.454 80.2516L266.483 80.095C266.547 80.3632 266.679 80.5661 266.878 80.7037C267.078 80.839 267.338 80.9067 267.658 80.9067C268.007 80.9067 268.286 80.8343 268.495 80.6895C268.704 80.5424 268.808 80.3632 268.808 80.1519C268.808 79.981 268.744 79.8374 268.616 79.7211C268.49 79.6049 268.296 79.517 268.035 79.4577L267.11 79.2548C266.599 79.1385 266.222 78.9533 265.978 78.6994C265.736 78.4454 265.614 78.1238 265.614 77.7346C265.614 77.4118 265.705 77.1294 265.885 76.8873C266.065 76.6452 266.315 76.4565 266.633 76.3212C266.951 76.1836 267.315 76.1147 267.726 76.1147C268.317 76.1147 268.782 76.2429 269.121 76.4992C269.461 76.7532 269.685 77.0938 269.794 77.521ZM271.773 81.7219C271.578 81.7219 271.411 81.6531 271.271 81.5155C271.131 81.3754 271.061 81.2069 271.061 81.0099C271.061 80.8153 271.131 80.6492 271.271 80.5115C271.411 80.3715 271.578 80.3014 271.773 80.3014C271.967 80.3014 272.135 80.3715 272.275 80.5115C272.415 80.6492 272.485 80.8153 272.485 81.0099C272.485 81.1405 272.451 81.2603 272.385 81.3695C272.321 81.4763 272.235 81.5617 272.129 81.6258C272.022 81.6899 271.903 81.7219 271.773 81.7219ZM271.773 77.7417C271.578 77.7417 271.411 77.6717 271.271 77.5317C271.131 77.3916 271.061 77.2243 271.061 77.0297C271.061 76.8351 271.131 76.6689 271.271 76.5313C271.411 76.3912 271.578 76.3212 271.773 76.3212C271.967 76.3212 272.135 76.3912 272.275 76.5313C272.415 76.6689 272.485 76.8351 272.485 77.0297C272.485 77.1602 272.451 77.2801 272.385 77.3893C272.321 77.4961 272.235 77.5815 272.129 77.6456C272.022 77.7097 271.903 77.7417 271.773 77.7417Z" fill="#425466"/>
<path d="M297.412 74.148V82.6543H295.871V75.6474H295.822L293.832 76.9183V75.5062L295.946 74.148H297.412ZM299.572 82.6543V81.5412L302.525 78.6462C302.808 78.361 303.043 78.1076 303.231 77.8861C303.42 77.6646 303.561 77.45 303.655 77.2423C303.749 77.0346 303.796 76.8131 303.796 76.5778C303.796 76.3092 303.735 76.0793 303.614 75.8883C303.492 75.6944 303.324 75.5449 303.111 75.4397C302.898 75.3345 302.655 75.2819 302.384 75.2819C302.104 75.2819 301.859 75.34 301.649 75.4563C301.438 75.5698 301.275 75.7318 301.159 75.9423C301.045 76.1527 300.989 76.4033 300.989 76.6941H299.522C299.522 76.1541 299.646 75.6848 299.892 75.286C300.138 74.8873 300.478 74.5785 300.91 74.3598C301.344 74.141 301.843 74.0317 302.405 74.0317C302.975 74.0317 303.476 74.1383 303.908 74.3515C304.34 74.5647 304.675 74.8568 304.914 75.2279C305.154 75.5989 305.275 76.0226 305.275 76.4988C305.275 76.8173 305.214 77.1302 305.092 77.4375C304.97 77.7449 304.756 78.0855 304.448 78.4593C304.144 78.8331 303.716 79.2858 303.165 79.8175L301.699 81.3086V81.3667H305.404V82.6543H299.572ZM311.385 81.0594V80.6108C311.385 80.2813 311.454 79.9781 311.592 79.7012C311.734 79.4243 311.938 79.2014 312.207 79.0325C312.476 78.8636 312.801 78.7791 313.183 78.7791C313.576 78.7791 313.906 78.8636 314.172 79.0325C314.437 79.1986 314.638 79.4201 314.774 79.697C314.912 79.9739 314.982 80.2785 314.982 80.6108V81.0594C314.982 81.3889 314.912 81.6921 314.774 81.969C314.635 82.2459 314.432 82.4688 314.163 82.6377C313.898 82.8066 313.571 82.891 313.183 82.891C312.795 82.891 312.467 82.8066 312.199 82.6377C311.93 82.4688 311.727 82.2459 311.588 81.969C311.453 81.6921 311.385 81.3889 311.385 81.0594ZM312.469 80.6108V81.0594C312.469 81.2781 312.521 81.4789 312.627 81.6616C312.732 81.8444 312.917 81.9357 313.183 81.9357C313.452 81.9357 313.636 81.8458 313.736 81.6658C313.838 81.483 313.889 81.2809 313.889 81.0594V80.6108C313.889 80.3893 313.841 80.1871 313.744 80.0044C313.647 79.8189 313.46 79.7261 313.183 79.7261C312.923 79.7261 312.739 79.8189 312.631 80.0044C312.523 80.1871 312.469 80.3893 312.469 80.6108ZM307.061 76.1915V75.7429C307.061 75.4106 307.132 75.106 307.273 74.8291C307.414 74.5522 307.619 74.3307 307.887 74.1646C308.156 73.9957 308.481 73.9112 308.864 73.9112C309.254 73.9112 309.582 73.9957 309.848 74.1646C310.116 74.3307 310.319 74.5522 310.454 74.8291C310.59 75.106 310.658 75.4106 310.658 75.7429V76.1915C310.658 76.5238 310.589 76.8283 310.45 77.1052C310.314 77.3794 310.112 77.5995 309.844 77.7656C309.575 77.9318 309.248 78.0149 308.864 78.0149C308.473 78.0149 308.144 77.9318 307.875 77.7656C307.609 77.5995 307.407 77.378 307.269 77.1011C307.13 76.8242 307.061 76.521 307.061 76.1915ZM308.153 75.7429V76.1915C308.153 76.413 308.204 76.6151 308.307 76.7979C308.412 76.9779 308.598 77.0679 308.864 77.0679C309.129 77.0679 309.312 76.9779 309.412 76.7979C309.514 76.6151 309.565 76.413 309.565 76.1915V75.7429C309.565 75.5214 309.517 75.3192 309.42 75.1365C309.323 74.951 309.138 74.8582 308.864 74.8582C308.6 74.8582 308.416 74.951 308.311 75.1365C308.206 75.322 308.153 75.5242 308.153 75.7429ZM307.534 82.6543L313.382 74.148H314.421L308.573 82.6543H307.534Z" fill="#425466"/>
<rect x="147.19" y="95.3676" width="6.68354" height="6.68354" rx="1.67089" fill="#FFD976"/>
<path d="M163.718 101.709H161.358V94.4182H163.793C164.507 94.4182 165.121 94.5642 165.634 94.8561C166.146 95.1457 166.539 95.5622 166.812 96.1057C167.087 96.6469 167.225 97.296 167.225 98.0531C167.225 98.8126 167.086 99.4653 166.809 100.011C166.533 100.557 166.134 100.977 165.612 101.271C165.09 101.563 164.459 101.709 163.718 101.709ZM162.458 100.748H163.658C164.213 100.748 164.675 100.644 165.043 100.435C165.411 100.224 165.686 99.9186 165.869 99.5199C166.051 99.1188 166.143 98.6298 166.143 98.0531C166.143 97.4811 166.051 96.9957 165.869 96.597C165.688 96.1983 165.419 95.8957 165.061 95.6892C164.702 95.4827 164.257 95.3794 163.725 95.3794H162.458V100.748ZM170.864 101.82C170.326 101.82 169.862 101.705 169.472 101.474C169.086 101.242 168.786 100.915 168.575 100.495C168.366 100.073 168.262 99.578 168.262 99.0108C168.262 98.4506 168.366 97.957 168.575 97.5298C168.786 97.1025 169.081 96.7691 169.458 96.5294C169.838 96.2897 170.282 96.1698 170.79 96.1698C171.098 96.1698 171.397 96.2208 171.687 96.3229C171.976 96.4249 172.236 96.5851 172.466 96.8035C172.697 97.0219 172.878 97.3055 173.011 97.6544C173.144 98.0009 173.211 98.4222 173.211 98.9182V99.2956H168.864V98.4981H172.167C172.167 98.2181 172.11 97.97 171.997 97.7541C171.883 97.5357 171.722 97.3636 171.516 97.2378C171.312 97.112 171.072 97.0491 170.797 97.0491C170.498 97.0491 170.237 97.1227 170.014 97.2699C169.793 97.4147 169.622 97.6045 169.501 97.8395C169.382 98.0721 169.323 98.3249 169.323 98.5978V99.2208C169.323 99.5863 169.387 99.8972 169.515 100.154C169.646 100.41 169.827 100.606 170.06 100.741C170.292 100.874 170.564 100.94 170.875 100.94C171.077 100.94 171.261 100.912 171.427 100.855C171.593 100.796 171.737 100.708 171.858 100.591C171.979 100.475 172.071 100.332 172.135 100.161L173.143 100.342C173.062 100.639 172.917 100.899 172.709 101.122C172.502 101.343 172.242 101.515 171.929 101.638C171.618 101.759 171.263 101.82 170.864 101.82ZM174.477 101.709V94.4182H175.542V97.1275H175.606C175.667 97.0135 175.756 96.8818 175.873 96.7323C175.989 96.5828 176.15 96.4522 176.357 96.3407C176.563 96.2268 176.836 96.1698 177.176 96.1698C177.617 96.1698 178.011 96.2813 178.358 96.5044C178.704 96.7275 178.976 97.0491 179.173 97.4692C179.372 97.8893 179.472 98.3949 179.472 98.9859C179.472 99.5768 179.373 100.084 179.176 100.506C178.979 100.926 178.709 101.25 178.365 101.478C178.021 101.703 177.628 101.816 177.186 101.816C176.854 101.816 176.582 101.76 176.371 101.649C176.162 101.537 175.998 101.407 175.88 101.257C175.761 101.108 175.67 100.975 175.606 100.858H175.517V101.709H174.477ZM175.52 98.9752C175.52 99.3597 175.576 99.6967 175.687 99.9862C175.799 100.276 175.96 100.502 176.172 100.666C176.383 100.828 176.642 100.908 176.948 100.908C177.266 100.908 177.532 100.824 177.745 100.656C177.959 100.485 178.12 100.253 178.229 99.9613C178.341 99.6694 178.397 99.3407 178.397 98.9752C178.397 98.6144 178.342 98.2904 178.233 98.0033C178.126 97.7161 177.965 97.4894 177.749 97.3233C177.535 97.1571 177.268 97.0741 176.948 97.0741C176.639 97.0741 176.378 97.1536 176.165 97.3126C175.953 97.4716 175.793 97.6935 175.684 97.9783C175.575 98.2631 175.52 98.5954 175.52 98.9752ZM183.22 96.241V97.0954H180.233V96.241H183.22ZM181.034 94.9309H182.098V100.104C182.098 100.31 182.129 100.466 182.191 100.57C182.253 100.672 182.332 100.742 182.429 100.78C182.529 100.816 182.637 100.834 182.753 100.834C182.839 100.834 182.914 100.828 182.978 100.816C183.042 100.804 183.092 100.794 183.127 100.787L183.32 101.667C183.258 101.69 183.17 101.714 183.056 101.738C182.942 101.764 182.8 101.778 182.629 101.781C182.349 101.785 182.088 101.735 181.846 101.631C181.604 101.527 181.408 101.365 181.258 101.147C181.109 100.928 181.034 100.654 181.034 100.324V94.9309ZM185.099 101.777C184.904 101.777 184.737 101.708 184.597 101.571C184.457 101.43 184.387 101.262 184.387 101.065C184.387 100.87 184.457 100.704 184.597 100.567C184.737 100.427 184.904 100.357 185.099 100.357C185.293 100.357 185.461 100.427 185.601 100.567C185.741 100.704 185.811 100.87 185.811 101.065C185.811 101.196 185.777 101.315 185.711 101.425C185.647 101.531 185.561 101.617 185.455 101.681C185.348 101.745 185.229 101.777 185.099 101.777ZM185.099 97.7968C184.904 97.7968 184.737 97.7268 184.597 97.5867C184.457 97.4467 184.387 97.2794 184.387 97.0847C184.387 96.8901 184.457 96.724 184.597 96.5863C184.737 96.4463 184.904 96.3763 185.099 96.3763C185.293 96.3763 185.461 96.4463 185.601 96.5863C185.741 96.724 185.811 96.8901 185.811 97.0847C185.811 97.2153 185.777 97.3351 185.711 97.4443C185.647 97.5511 185.561 97.6366 185.455 97.7006C185.348 97.7647 185.229 97.7968 185.099 97.7968Z" fill="#425466"/>
<path d="M296.876 94.203V102.709H295.335V95.7024H295.285L293.295 96.9734V95.5612L295.409 94.203H296.876ZM302.18 102.871C301.496 102.871 300.909 102.698 300.418 102.352C299.931 102.003 299.556 101.501 299.293 100.844C299.033 100.185 298.902 99.3921 298.902 98.4645C298.905 97.5369 299.037 96.7477 299.297 96.097C299.56 95.4435 299.935 94.9451 300.423 94.6018C300.913 94.2584 301.498 94.0867 302.18 94.0867C302.861 94.0867 303.446 94.2584 303.936 94.6018C304.427 94.9451 304.802 95.4435 305.062 96.097C305.325 96.7505 305.457 97.5397 305.457 98.4645C305.457 99.3949 305.325 100.19 305.062 100.849C304.802 101.505 304.427 102.006 303.936 102.352C303.449 102.698 302.863 102.871 302.18 102.871ZM302.18 101.571C302.711 101.571 303.131 101.31 303.438 100.786C303.748 100.26 303.903 99.4862 303.903 98.4645C303.903 97.7889 303.833 97.2212 303.691 96.7616C303.55 96.3019 303.351 95.9558 303.093 95.7232C302.836 95.4878 302.531 95.3701 302.18 95.3701C301.651 95.3701 301.233 95.6332 300.925 96.1593C300.618 96.6826 300.463 97.451 300.46 98.4645C300.457 99.1429 300.525 99.7133 300.663 100.176C300.805 100.638 301.004 100.987 301.262 101.222C301.519 101.455 301.825 101.571 302.18 101.571ZM311.385 101.114V100.666C311.385 100.336 311.454 100.033 311.592 99.7562C311.734 99.4793 311.938 99.2564 312.207 99.0875C312.476 98.9186 312.801 98.8342 313.183 98.8342C313.576 98.8342 313.906 98.9186 314.172 99.0875C314.437 99.2537 314.638 99.4752 314.774 99.7521C314.912 100.029 314.982 100.334 314.982 100.666V101.114C314.982 101.444 314.912 101.747 314.774 102.024C314.635 102.301 314.432 102.524 314.163 102.693C313.898 102.862 313.571 102.946 313.183 102.946C312.795 102.946 312.467 102.862 312.199 102.693C311.93 102.524 311.727 102.301 311.588 102.024C311.453 101.747 311.385 101.444 311.385 101.114ZM312.469 100.666V101.114C312.469 101.333 312.521 101.534 312.627 101.717C312.732 101.899 312.917 101.991 313.183 101.991C313.452 101.991 313.636 101.901 313.736 101.721C313.838 101.538 313.889 101.336 313.889 101.114V100.666C313.889 100.444 313.841 100.242 313.744 100.059C313.647 99.8739 313.46 99.7811 313.183 99.7811C312.923 99.7811 312.739 99.8739 312.631 100.059C312.523 100.242 312.469 100.444 312.469 100.666ZM307.061 96.2465V95.798C307.061 95.4657 307.132 95.1611 307.273 94.8842C307.414 94.6073 307.619 94.3858 307.887 94.2196C308.156 94.0507 308.481 93.9663 308.864 93.9663C309.254 93.9663 309.582 94.0507 309.848 94.2196C310.116 94.3858 310.319 94.6073 310.454 94.8842C310.59 95.1611 310.658 95.4657 310.658 95.798V96.2465C310.658 96.5788 310.589 96.8834 310.45 97.1603C310.314 97.4344 310.112 97.6546 309.844 97.8207C309.575 97.9868 309.248 98.0699 308.864 98.0699C308.473 98.0699 308.144 97.9868 307.875 97.8207C307.609 97.6546 307.407 97.433 307.269 97.1561C307.13 96.8792 307.061 96.576 307.061 96.2465ZM308.153 95.798V96.2465C308.153 96.4681 308.204 96.6702 308.307 96.8529C308.412 97.0329 308.598 97.1229 308.864 97.1229C309.129 97.1229 309.312 97.0329 309.412 96.8529C309.514 96.6702 309.565 96.4681 309.565 96.2465V95.798C309.565 95.5764 309.517 95.3743 309.42 95.1916C309.323 95.006 309.138 94.9133 308.864 94.9133C308.6 94.9133 308.416 95.006 308.311 95.1916C308.206 95.3771 308.153 95.5792 308.153 95.798ZM307.534 102.709L313.382 94.203H314.421L308.573 102.709H307.534Z" fill="#425466"/>
<rect x="147.19" y="115.423" width="6.68354" height="6.68354" rx="1.67089" fill="#FF8B81"/>
<path d="M161.974 121.764H160.806L163.43 114.473H164.701L167.325 121.764H166.157L164.096 115.798H164.039L161.974 121.764ZM162.17 118.909H165.958V119.835H162.17V118.909ZM169.357 114.473V121.764H168.292V114.473H169.357ZM173.341 116.296V117.151H170.354V116.296H173.341ZM171.155 114.986H172.22V120.159C172.22 120.365 172.251 120.521 172.312 120.625C172.374 120.727 172.454 120.797 172.551 120.835C172.651 120.871 172.759 120.889 172.875 120.889C172.96 120.889 173.035 120.883 173.099 120.871C173.163 120.859 173.213 120.85 173.249 120.842L173.441 121.722C173.379 121.745 173.292 121.769 173.178 121.793C173.064 121.819 172.921 121.833 172.75 121.836C172.47 121.84 172.209 121.791 171.967 121.686C171.725 121.582 171.529 121.42 171.38 121.202C171.23 120.984 171.155 120.709 171.155 120.38V114.986ZM176.817 121.875C176.278 121.875 175.814 121.76 175.425 121.529C175.038 121.297 174.739 120.971 174.528 120.55C174.319 120.128 174.214 119.633 174.214 119.066C174.214 118.506 174.319 118.012 174.528 117.585C174.739 117.158 175.033 116.824 175.411 116.584C175.79 116.345 176.234 116.225 176.742 116.225C177.051 116.225 177.35 116.276 177.639 116.378C177.929 116.48 178.189 116.64 178.419 116.859C178.649 117.077 178.831 117.361 178.964 117.709C179.097 118.056 179.163 118.477 179.163 118.973V119.351H174.816V118.553H178.12C178.12 118.273 178.063 118.025 177.949 117.809C177.835 117.591 177.675 117.419 177.468 117.293C177.264 117.167 177.025 117.104 176.749 117.104C176.45 117.104 176.189 117.178 175.966 117.325C175.745 117.47 175.574 117.66 175.453 117.895C175.335 118.127 175.275 118.38 175.275 118.653V119.276C175.275 119.641 175.339 119.952 175.468 120.209C175.598 120.465 175.78 120.661 176.012 120.796C176.245 120.929 176.517 120.995 176.828 120.995C177.029 120.995 177.213 120.967 177.379 120.91C177.546 120.851 177.689 120.763 177.81 120.647C177.931 120.53 178.024 120.387 178.088 120.216L179.095 120.397C179.015 120.694 178.87 120.954 178.661 121.177C178.455 121.398 178.195 121.57 177.881 121.693C177.57 121.814 177.216 121.875 176.817 121.875ZM180.344 121.764V116.296H181.373V117.165H181.43C181.53 116.87 181.705 116.639 181.957 116.471C182.211 116.3 182.498 116.214 182.818 116.214C182.885 116.214 182.963 116.217 183.053 116.221C183.146 116.226 183.218 116.232 183.271 116.239V117.257C183.228 117.245 183.152 117.232 183.043 117.218C182.934 117.202 182.824 117.193 182.715 117.193C182.464 117.193 182.239 117.247 182.042 117.353C181.848 117.458 181.693 117.604 181.579 117.791C181.466 117.976 181.409 118.188 181.409 118.425V121.764H180.344ZM185.256 118.518V121.764H184.192V116.296H185.213V117.186H185.281C185.407 116.897 185.604 116.664 185.872 116.488C186.143 116.313 186.483 116.225 186.894 116.225C187.266 116.225 187.593 116.303 187.873 116.46C188.153 116.614 188.37 116.844 188.524 117.151C188.679 117.457 188.756 117.835 188.756 118.286V121.764H187.691V118.414C187.691 118.018 187.588 117.708 187.382 117.485C187.175 117.26 186.891 117.147 186.531 117.147C186.284 117.147 186.064 117.2 185.872 117.307C185.682 117.414 185.532 117.571 185.42 117.777C185.311 117.981 185.256 118.228 185.256 118.518ZM191.775 121.886C191.428 121.886 191.115 121.821 190.835 121.693C190.555 121.563 190.333 121.374 190.169 121.127C190.008 120.88 189.927 120.578 189.927 120.219C189.927 119.911 189.986 119.657 190.105 119.458C190.224 119.258 190.384 119.1 190.586 118.984C190.787 118.868 191.013 118.78 191.262 118.721C191.511 118.661 191.765 118.616 192.024 118.585C192.352 118.547 192.617 118.516 192.821 118.493C193.026 118.467 193.174 118.425 193.266 118.368C193.359 118.311 193.405 118.219 193.405 118.09V118.065C193.405 117.755 193.318 117.514 193.142 117.343C192.969 117.172 192.71 117.086 192.366 117.086C192.007 117.086 191.725 117.166 191.518 117.325C191.314 117.482 191.173 117.656 191.095 117.848L190.094 117.62C190.213 117.288 190.386 117.02 190.614 116.816C190.844 116.609 191.109 116.46 191.408 116.367C191.707 116.272 192.022 116.225 192.352 116.225C192.57 116.225 192.801 116.251 193.046 116.303C193.293 116.353 193.523 116.446 193.736 116.581C193.952 116.716 194.129 116.91 194.267 117.161C194.405 117.41 194.473 117.734 194.473 118.133V121.764H193.434V121.017H193.391C193.322 121.154 193.219 121.29 193.081 121.423C192.944 121.556 192.767 121.666 192.551 121.754C192.335 121.842 192.076 121.886 191.775 121.886ZM192.006 121.031C192.301 121.031 192.552 120.973 192.761 120.857C192.972 120.74 193.132 120.588 193.242 120.401C193.353 120.211 193.409 120.008 193.409 119.792V119.087C193.371 119.125 193.297 119.161 193.188 119.194C193.081 119.225 192.959 119.252 192.821 119.276C192.684 119.297 192.55 119.317 192.419 119.336C192.289 119.353 192.179 119.367 192.092 119.379C191.885 119.405 191.696 119.449 191.526 119.511C191.357 119.573 191.222 119.662 191.12 119.778C191.02 119.892 190.97 120.044 190.97 120.234C190.97 120.497 191.068 120.696 191.262 120.832C191.457 120.965 191.705 121.031 192.006 121.031ZM198.444 116.296V117.151H195.457V116.296H198.444ZM196.258 114.986H197.322V120.159C197.322 120.365 197.353 120.521 197.415 120.625C197.477 120.727 197.556 120.797 197.653 120.835C197.753 120.871 197.861 120.889 197.977 120.889C198.063 120.889 198.138 120.883 198.202 120.871C198.266 120.859 198.316 120.85 198.351 120.842L198.543 121.722C198.482 121.745 198.394 121.769 198.28 121.793C198.166 121.819 198.024 121.833 197.853 121.836C197.573 121.84 197.312 121.791 197.07 121.686C196.828 121.582 196.632 121.42 196.482 121.202C196.333 120.984 196.258 120.709 196.258 120.38V114.986ZM199.621 121.764V116.296H200.686V121.764H199.621ZM200.159 115.452C199.974 115.452 199.815 115.391 199.682 115.267C199.551 115.141 199.486 114.992 199.486 114.819C199.486 114.643 199.551 114.494 199.682 114.37C199.815 114.244 199.974 114.181 200.159 114.181C200.344 114.181 200.502 114.244 200.632 114.37C200.765 114.494 200.832 114.643 200.832 114.819C200.832 114.992 200.765 115.141 200.632 115.267C200.502 115.391 200.344 115.452 200.159 115.452ZM206.796 116.296L204.813 121.764H203.674L201.687 116.296H202.83L204.215 120.504H204.272L205.653 116.296H206.796ZM209.967 121.875C209.428 121.875 208.964 121.76 208.575 121.529C208.188 121.297 207.889 120.971 207.678 120.55C207.469 120.128 207.365 119.633 207.365 119.066C207.365 118.506 207.469 118.012 207.678 117.585C207.889 117.158 208.183 116.824 208.561 116.584C208.941 116.345 209.384 116.225 209.892 116.225C210.201 116.225 210.5 116.276 210.789 116.378C211.079 116.48 211.339 116.64 211.569 116.859C211.799 117.077 211.981 117.361 212.114 117.709C212.247 118.056 212.313 118.477 212.313 118.973V119.351H207.966V118.553H211.27C211.27 118.273 211.213 118.025 211.099 117.809C210.985 117.591 210.825 117.419 210.619 117.293C210.414 117.167 210.175 117.104 209.899 117.104C209.6 117.104 209.339 117.178 209.116 117.325C208.895 117.47 208.725 117.66 208.604 117.895C208.485 118.127 208.426 118.38 208.426 118.653V119.276C208.426 119.641 208.49 119.952 208.618 120.209C208.748 120.465 208.93 120.661 209.162 120.796C209.395 120.929 209.667 120.995 209.978 120.995C210.179 120.995 210.363 120.967 210.53 120.91C210.696 120.851 210.839 120.763 210.96 120.647C211.081 120.53 211.174 120.387 211.238 120.216L212.246 120.397C212.165 120.694 212.02 120.954 211.811 121.177C211.605 121.398 211.345 121.57 211.032 121.693C210.721 121.814 210.366 121.875 209.967 121.875ZM217.333 114.473V121.764H216.233V114.473H217.333ZM219.914 118.518V121.764H218.85V116.296H219.871V117.186H219.939C220.065 116.897 220.262 116.664 220.53 116.488C220.801 116.313 221.141 116.225 221.552 116.225C221.924 116.225 222.251 116.303 222.531 116.46C222.811 116.614 223.028 116.844 223.182 117.151C223.337 117.457 223.414 117.835 223.414 118.286V121.764H222.349V118.414C222.349 118.018 222.246 117.708 222.039 117.485C221.833 117.26 221.549 117.147 221.189 117.147C220.942 117.147 220.722 117.2 220.53 117.307C220.34 117.414 220.189 117.571 220.078 117.777C219.969 117.981 219.914 118.228 219.914 118.518ZM229.323 116.296L227.34 121.764H226.201L224.215 116.296H225.357L226.742 120.504H226.799L228.181 116.296H229.323ZM232.495 121.875C231.956 121.875 231.492 121.76 231.103 121.529C230.716 121.297 230.417 120.971 230.205 120.55C229.997 120.128 229.892 119.633 229.892 119.066C229.892 118.506 229.997 118.012 230.205 117.585C230.417 117.158 230.711 116.824 231.088 116.584C231.468 116.345 231.912 116.225 232.42 116.225C232.728 116.225 233.027 116.276 233.317 116.378C233.607 116.48 233.866 116.64 234.097 116.859C234.327 117.077 234.508 117.361 234.641 117.709C234.774 118.056 234.841 118.477 234.841 118.973V119.351H230.494V118.553H233.798C233.798 118.273 233.741 118.025 233.627 117.809C233.513 117.591 233.353 117.419 233.146 117.293C232.942 117.167 232.702 117.104 232.427 117.104C232.128 117.104 231.867 117.178 231.644 117.325C231.423 117.47 231.252 117.66 231.131 117.895C231.012 118.127 230.953 118.38 230.953 118.653V119.276C230.953 119.641 231.017 119.952 231.145 120.209C231.276 120.465 231.457 120.661 231.69 120.796C231.923 120.929 232.194 120.995 232.505 120.995C232.707 120.995 232.891 120.967 233.057 120.91C233.223 120.851 233.367 120.763 233.488 120.647C233.609 120.53 233.702 120.387 233.766 120.216L234.773 120.397C234.692 120.694 234.548 120.954 234.339 121.177C234.132 121.398 233.872 121.57 233.559 121.693C233.248 121.814 232.893 121.875 232.495 121.875ZM240.12 117.631L239.155 117.802C239.114 117.679 239.05 117.561 238.963 117.45C238.877 117.338 238.761 117.247 238.614 117.175C238.466 117.104 238.283 117.069 238.062 117.069C237.76 117.069 237.509 117.136 237.307 117.272C237.105 117.404 237.004 117.577 237.004 117.788C237.004 117.971 237.072 118.118 237.207 118.229C237.343 118.341 237.561 118.432 237.862 118.503L238.731 118.703C239.234 118.819 239.609 118.998 239.856 119.24C240.103 119.482 240.226 119.797 240.226 120.184C240.226 120.511 240.131 120.803 239.942 121.06C239.754 121.314 239.492 121.513 239.155 121.658C238.82 121.802 238.432 121.875 237.991 121.875C237.378 121.875 236.879 121.744 236.492 121.483C236.105 121.22 235.868 120.846 235.78 120.362L236.809 120.205C236.873 120.473 237.004 120.676 237.204 120.814C237.403 120.949 237.663 121.017 237.983 121.017C238.332 121.017 238.611 120.944 238.82 120.8C239.029 120.653 239.133 120.473 239.133 120.262C239.133 120.091 239.069 119.948 238.941 119.831C238.815 119.715 238.622 119.627 238.361 119.568L237.435 119.365C236.925 119.249 236.548 119.064 236.303 118.81C236.061 118.556 235.94 118.234 235.94 117.845C235.94 117.522 236.03 117.24 236.211 116.997C236.391 116.755 236.64 116.567 236.958 116.431C237.276 116.294 237.641 116.225 238.051 116.225C238.642 116.225 239.107 116.353 239.447 116.609C239.786 116.863 240.01 117.204 240.12 117.631ZM243.949 116.296V117.151H240.962V116.296H243.949ZM241.763 114.986H242.828V120.159C242.828 120.365 242.859 120.521 242.92 120.625C242.982 120.727 243.062 120.797 243.159 120.835C243.259 120.871 243.367 120.889 243.483 120.889C243.568 120.889 243.643 120.883 243.707 120.871C243.771 120.859 243.821 120.85 243.857 120.842L244.049 121.722C243.987 121.745 243.9 121.769 243.786 121.793C243.672 121.819 243.529 121.833 243.358 121.836C243.078 121.84 242.817 121.791 242.575 121.686C242.333 121.582 242.137 121.42 241.988 121.202C241.838 120.984 241.763 120.709 241.763 120.38V114.986ZM245.127 121.764V116.296H246.149V117.186H246.216C246.33 116.885 246.516 116.65 246.775 116.481C247.034 116.31 247.344 116.225 247.704 116.225C248.07 116.225 248.376 116.31 248.623 116.481C248.872 116.652 249.056 116.887 249.175 117.186H249.232C249.362 116.894 249.57 116.662 249.855 116.488C250.14 116.313 250.479 116.225 250.873 116.225C251.369 116.225 251.774 116.38 252.087 116.691C252.403 117.002 252.56 117.471 252.56 118.098V121.764H251.496V118.197C251.496 117.827 251.395 117.559 251.193 117.393C250.992 117.226 250.751 117.143 250.471 117.143C250.124 117.143 249.855 117.25 249.662 117.464C249.47 117.675 249.374 117.947 249.374 118.279V121.764H248.313V118.13C248.313 117.833 248.221 117.594 248.035 117.414C247.85 117.234 247.609 117.143 247.313 117.143C247.111 117.143 246.925 117.197 246.754 117.304C246.585 117.408 246.449 117.554 246.344 117.742C246.242 117.929 246.191 118.146 246.191 118.393V121.764H245.127ZM256.344 121.875C255.805 121.875 255.341 121.76 254.952 121.529C254.565 121.297 254.266 120.971 254.055 120.55C253.846 120.128 253.741 119.633 253.741 119.066C253.741 118.506 253.846 118.012 254.055 117.585C254.266 117.158 254.56 116.824 254.938 116.584C255.317 116.345 255.761 116.225 256.269 116.225C256.578 116.225 256.877 116.276 257.166 116.378C257.456 116.48 257.716 116.64 257.946 116.859C258.176 117.077 258.358 117.361 258.491 117.709C258.624 118.056 258.69 118.477 258.69 118.973V119.351H254.343V118.553H257.647C257.647 118.273 257.59 118.025 257.476 117.809C257.362 117.591 257.202 117.419 256.995 117.293C256.791 117.167 256.552 117.104 256.276 117.104C255.977 117.104 255.716 117.178 255.493 117.325C255.272 117.47 255.101 117.66 254.98 117.895C254.862 118.127 254.802 118.38 254.802 118.653V119.276C254.802 119.641 254.866 119.952 254.995 120.209C255.125 120.465 255.307 120.661 255.539 120.796C255.772 120.929 256.044 120.995 256.355 120.995C256.556 120.995 256.74 120.967 256.906 120.91C257.073 120.851 257.216 120.763 257.337 120.647C257.458 120.53 257.551 120.387 257.615 120.216L258.622 120.397C258.542 120.694 258.397 120.954 258.188 121.177C257.982 121.398 257.722 121.57 257.408 121.693C257.097 121.814 256.743 121.875 256.344 121.875ZM260.936 118.518V121.764H259.871V116.296H260.893V117.186H260.961C261.086 116.897 261.283 116.664 261.552 116.488C261.822 116.313 262.163 116.225 262.573 116.225C262.946 116.225 263.272 116.303 263.552 116.46C263.832 116.614 264.05 116.844 264.204 117.151C264.358 117.457 264.435 117.835 264.435 118.286V121.764H263.371V118.414C263.371 118.018 263.267 117.708 263.061 117.485C262.855 117.26 262.571 117.147 262.21 117.147C261.963 117.147 261.744 117.2 261.552 117.307C261.362 117.414 261.211 117.571 261.099 117.777C260.99 117.981 260.936 118.228 260.936 118.518ZM268.415 116.296V117.151H265.428V116.296H268.415ZM266.23 114.986H267.294V120.159C267.294 120.365 267.325 120.521 267.387 120.625C267.448 120.727 267.528 120.797 267.625 120.835C267.725 120.871 267.833 120.889 267.949 120.889C268.034 120.889 268.109 120.883 268.173 120.871C268.237 120.859 268.287 120.85 268.323 120.842L268.515 121.722C268.453 121.745 268.366 121.769 268.252 121.793C268.138 121.819 267.995 121.833 267.824 121.836C267.544 121.84 267.283 121.791 267.041 121.686C266.799 121.582 266.603 121.42 266.454 121.202C266.304 120.984 266.23 120.709 266.23 120.38V114.986ZM273.603 117.631L272.638 117.802C272.597 117.679 272.533 117.561 272.445 117.45C272.36 117.338 272.244 117.247 272.097 117.175C271.949 117.104 271.766 117.069 271.545 117.069C271.243 117.069 270.992 117.136 270.79 117.272C270.588 117.404 270.487 117.577 270.487 117.788C270.487 117.971 270.555 118.118 270.69 118.229C270.826 118.341 271.044 118.432 271.345 118.503L272.214 118.703C272.717 118.819 273.092 118.998 273.339 119.24C273.586 119.482 273.709 119.797 273.709 120.184C273.709 120.511 273.614 120.803 273.425 121.06C273.237 121.314 272.975 121.513 272.638 121.658C272.303 121.802 271.915 121.875 271.474 121.875C270.861 121.875 270.362 121.744 269.975 121.483C269.588 121.22 269.351 120.846 269.263 120.362L270.292 120.205C270.356 120.473 270.487 120.676 270.687 120.814C270.886 120.949 271.146 121.017 271.466 121.017C271.815 121.017 272.094 120.944 272.303 120.8C272.512 120.653 272.616 120.473 272.616 120.262C272.616 120.091 272.552 119.948 272.424 119.831C272.298 119.715 272.105 119.627 271.844 119.568L270.918 119.365C270.408 119.249 270.031 119.064 269.786 118.81C269.544 118.556 269.423 118.234 269.423 117.845C269.423 117.522 269.513 117.24 269.694 116.997C269.874 116.755 270.123 116.567 270.441 116.431C270.759 116.294 271.123 116.225 271.534 116.225C272.125 116.225 272.59 116.353 272.93 116.609C273.269 116.863 273.493 117.204 273.603 117.631ZM275.581 121.832C275.386 121.832 275.219 121.763 275.079 121.626C274.939 121.486 274.869 121.317 274.869 121.12C274.869 120.925 274.939 120.759 275.079 120.622C275.219 120.482 275.386 120.412 275.581 120.412C275.776 120.412 275.943 120.482 276.083 120.622C276.223 120.759 276.293 120.925 276.293 121.12C276.293 121.251 276.26 121.37 276.193 121.48C276.129 121.586 276.044 121.672 275.937 121.736C275.83 121.8 275.712 121.832 275.581 121.832ZM275.581 117.852C275.386 117.852 275.219 117.782 275.079 117.642C274.939 117.502 274.869 117.334 274.869 117.14C274.869 116.945 274.939 116.779 275.079 116.641C275.219 116.501 275.386 116.431 275.581 116.431C275.776 116.431 275.943 116.501 276.083 116.641C276.223 116.779 276.293 116.945 276.293 117.14C276.293 117.27 276.26 117.39 276.193 117.499C276.129 117.606 276.044 117.692 275.937 117.756C275.83 117.82 275.712 117.852 275.581 117.852Z" fill="#425466"/>
<path d="M302.18 122.926C301.496 122.926 300.909 122.753 300.418 122.407C299.931 122.058 299.556 121.556 299.293 120.9C299.033 120.241 298.902 119.447 298.902 118.52C298.905 117.592 299.037 116.803 299.297 116.152C299.56 115.499 299.935 115 300.423 114.657C300.913 114.314 301.498 114.142 302.18 114.142C302.861 114.142 303.446 114.314 303.936 114.657C304.427 115 304.802 115.499 305.062 116.152C305.325 116.806 305.457 117.595 305.457 118.52C305.457 119.45 305.325 120.245 305.062 120.904C304.802 121.56 304.427 122.061 303.936 122.407C303.449 122.753 302.863 122.926 302.18 122.926ZM302.18 121.626C302.711 121.626 303.131 121.365 303.438 120.841C303.748 120.315 303.903 119.541 303.903 118.52C303.903 117.844 303.833 117.276 303.691 116.817C303.55 116.357 303.351 116.011 303.093 115.778C302.836 115.543 302.531 115.425 302.18 115.425C301.651 115.425 301.233 115.688 300.925 116.214C300.618 116.738 300.463 117.506 300.46 118.52C300.457 119.198 300.525 119.768 300.663 120.231C300.805 120.693 301.004 121.042 301.262 121.278C301.519 121.51 301.825 121.626 302.18 121.626ZM311.385 121.17V120.721C311.385 120.391 311.454 120.088 311.592 119.811C311.734 119.534 311.938 119.312 312.207 119.143C312.476 118.974 312.801 118.889 313.183 118.889C313.576 118.889 313.906 118.974 314.172 119.143C314.437 119.309 314.638 119.53 314.774 119.807C314.912 120.084 314.982 120.389 314.982 120.721V121.17C314.982 121.499 314.912 121.802 314.774 122.079C314.635 122.356 314.432 122.579 314.163 122.748C313.898 122.917 313.571 123.001 313.183 123.001C312.795 123.001 312.467 122.917 312.199 122.748C311.93 122.579 311.727 122.356 311.588 122.079C311.453 121.802 311.385 121.499 311.385 121.17ZM312.469 120.721V121.17C312.469 121.388 312.521 121.589 312.627 121.772C312.732 121.955 312.917 122.046 313.183 122.046C313.452 122.046 313.636 121.956 313.736 121.776C313.838 121.593 313.889 121.391 313.889 121.17V120.721C313.889 120.499 313.841 120.297 313.744 120.115C313.647 119.929 313.46 119.836 313.183 119.836C312.923 119.836 312.739 119.929 312.631 120.115C312.523 120.297 312.469 120.499 312.469 120.721ZM307.061 116.302V115.853C307.061 115.521 307.132 115.216 307.273 114.939C307.414 114.662 307.619 114.441 307.887 114.275C308.156 114.106 308.481 114.021 308.864 114.021C309.254 114.021 309.582 114.106 309.848 114.275C310.116 114.441 310.319 114.662 310.454 114.939C310.59 115.216 310.658 115.521 310.658 115.853V116.302C310.658 116.634 310.589 116.939 310.45 117.215C310.314 117.49 310.112 117.71 309.844 117.876C309.575 118.042 309.248 118.125 308.864 118.125C308.473 118.125 308.144 118.042 307.875 117.876C307.609 117.71 307.407 117.488 307.269 117.211C307.13 116.934 307.061 116.631 307.061 116.302ZM308.153 115.853V116.302C308.153 116.523 308.204 116.725 308.307 116.908C308.412 117.088 308.598 117.178 308.864 117.178C309.129 117.178 309.312 117.088 309.412 116.908C309.514 116.725 309.565 116.523 309.565 116.302V115.853C309.565 115.632 309.517 115.429 309.42 115.247C309.323 115.061 309.138 114.968 308.864 114.968C308.6 114.968 308.416 115.061 308.311 115.247C308.206 115.432 308.153 115.634 308.153 115.853ZM307.534 122.764L313.382 114.258H314.421L308.573 122.764H307.534Z" fill="#425466"/>
</g>
<defs>
<filter id="filter0_dd_950_353204" x="0.151899" y="0.949244" width="341.696" height="160.423" filterUnits="userSpaceOnUse" color-interpolation-filters="sRGB">
<feFlood flood-opacity="0" result="BackgroundImageFix"/>
<feColorMatrix in="SourceAlpha" type="matrix" values="0 0 0 0 0 0 0 0 0 0 0 0 0 0 0 0 0 0 127 0" result="hardAlpha"/>
<feMorphology radius="0.835443" operator="erode" in="SourceAlpha" result="effect1_dropShadow_950_353204"/>
<feOffset dy="2.50633"/>
<feGaussianBlur stdDeviation="3.34177"/>
<feColorMatrix type="matrix" values="0 0 0 0 0.196078 0 0 0 0 0.196078 0 0 0 0 0.278431 0 0 0 0.05 0"/>
<feBlend mode="normal" in2="BackgroundImageFix" result="effect1_dropShadow_950_353204"/>
<feColorMatrix in="SourceAlpha" type="matrix" values="0 0 0 0 0 0 0 0 0 0 0 0 0 0 0 0 0 0 127 0" result="hardAlpha"/>
<feOffset/>
<feGaussianBlur stdDeviation="0.417722"/>
<feColorMatrix type="matrix" values="0 0 0 0 0.0470588 0 0 0 0 0.101961 0 0 0 0 0.294118 0 0 0 0.24 0"/>
<feBlend mode="normal" in2="effect1_dropShadow_950_353204" result="effect2_dropShadow_950_353204"/>
<feBlend mode="normal" in="SourceGraphic" in2="effect2_dropShadow_950_353204" result="shape"/>
</filter>
<linearGradient id="paint0_linear_950_353204" x1="48.3635" y1="73.276" x2="80.4468" y2="122.915" gradientUnits="userSpaceOnUse">
<stop stop-color="#8CDFB3"/>
<stop offset="1" stop-color="#61A17F"/>
</linearGradient>
<linearGradient id="paint1_linear_950_353204" x1="80.3856" y1="31.4159" x2="76.3219" y2="70.3186" gradientUnits="userSpaceOnUse">
<stop stop-color="#FDE3A2"/>
<stop offset="1" stop-color="#F7C23A"/>
</linearGradient>
<linearGradient id="paint2_linear_950_353204" x1="80.3849" y1="28.9047" x2="80.3849" y2="126.85" gradientUnits="userSpaceOnUse">
<stop stop-color="#90BEF8"/>
<stop offset="1" stop-color="#5790D9"/>
</linearGradient>
<linearGradient id="paint3_linear_950_353204" x1="47.2883" y1="53.3841" x2="77.6661" y2="90.7516" gradientUnits="userSpaceOnUse">
<stop stop-color="#FAB592"/>
<stop offset="1" stop-color="#F18F5E"/>
</linearGradient>
</defs>
</svg>
