<svg xmlns="http://www.w3.org/2000/svg" width="24" height="24" viewBox="0 0 24 24" fill="none">
  <g clip-path="url(#clip0_950_353261)">
    <path d="M5.54664 14.5091L4.73971 17.5215L1.79041 17.5839C0.909006 15.9491 0.409058 14.0786 0.409058 12.091C0.409058 10.1689 0.876497 8.35641 1.70507 6.76044H1.7057L4.3314 7.24182L5.48162 9.85177C5.24088 10.5536 5.10967 11.307 5.10967 12.091C5.10976 12.9418 5.26388 13.757 5.54664 14.5091Z" fill="#FBBB00"/>
    <path d="M23.3883 9.92535C23.5214 10.6265 23.5908 11.3506 23.5908 12.0907C23.5908 12.9205 23.5036 13.73 23.3374 14.5108C22.7731 17.1678 21.2988 19.4879 19.2564 21.1297L19.2558 21.1291L15.9485 20.9603L15.4805 18.0384C16.8357 17.2436 17.8948 15.9998 18.4527 14.5108H12.2548V9.92535H18.5431H23.3883Z" fill="#518EF8"/>
    <path d="M19.2556 21.1294L19.2563 21.13C17.2699 22.7266 14.7466 23.6819 11.9998 23.6819C7.58574 23.6819 3.74802 21.2147 1.79028 17.584L5.54651 14.5092C6.52535 17.1216 9.04543 18.9813 11.9998 18.9813C13.2697 18.9813 14.4594 18.638 15.4803 18.0387L19.2556 21.1294Z" fill="#28B446"/>
    <path d="M19.3984 3.16844L15.6435 6.24257C14.5869 5.58216 13.338 5.20066 12 5.20066C8.97869 5.20066 6.41148 7.14562 5.48168 9.85169L1.70571 6.76036H1.70508C3.63415 3.04108 7.52027 0.5 12 0.5C14.8124 0.5 17.391 1.5018 19.3984 3.16844Z" fill="#F14336"/>
  </g>
  <defs>
    <clipPath id="clip0_950_353261">
      <rect width="23.1818" height="23.1818" fill="white" transform="translate(0.409058 0.5)"/>
    </clipPath>
  </defs>
</svg>