<svg width="275" height="188" viewBox="0 0 275 188" fill="none" xmlns="http://www.w3.org/2000/svg">
<g filter="url(#filter0_dd_950_357853)">
<path d="M6 12.3544C6 7.74041 9.74041 4 14.3544 4H260.444C265.058 4 268.798 7.74041 268.798 12.3544V170.747C268.798 175.361 265.058 179.101 260.444 179.101H14.3544C9.74039 179.101 6 175.361 6 170.747V12.3544Z" fill="white"/>
<path d="M29.5776 58.2988L29.458 58.707H27.1777L27.2974 58.2988H29.5776ZM28.5079 61.0506L27.2199 59.4742L27.2129 59.1786H27.8533C28.0199 59.1786 28.1618 59.1551 28.2791 59.1082C28.3964 59.0601 28.4862 58.9886 28.5483 58.8935C28.6105 58.7974 28.6416 58.6765 28.6416 58.5311C28.6416 58.3164 28.5771 58.1481 28.448 58.0261C28.319 57.903 28.1208 57.8414 27.8533 57.8414H27.1777L27.2974 57.4473H27.8533C28.1396 57.4473 28.3741 57.4948 28.5571 57.5898C28.7413 57.6836 28.8773 57.8127 28.9653 57.9769C29.0545 58.1399 29.099 58.3247 29.099 58.5311C29.099 58.7176 29.058 58.8894 28.9759 59.0466C28.8949 59.2026 28.7647 59.3281 28.5853 59.4231C28.407 59.5181 28.1712 59.5657 27.878 59.5657H27.8674L29.0568 61.0225V61.0506H28.5079ZM29.5776 57.4473L29.458 57.8555L27.6633 57.8414L27.783 57.4473H29.5776ZM32.7459 57.4473V61.0506H32.3096V57.9047H32.2885L31.4088 58.4889V58.0455L32.3096 57.4473H32.7459ZM34.9576 61.0999C34.6925 61.0999 34.4667 61.0278 34.2802 60.8835C34.0937 60.738 33.9512 60.5275 33.8526 60.2518C33.7541 59.975 33.7048 59.6407 33.7048 59.249C33.7048 58.8595 33.7541 58.527 33.8526 58.2513C33.9523 57.9745 34.0954 57.7634 34.2819 57.6179C34.4696 57.4713 34.6948 57.398 34.9576 57.398C35.2203 57.398 35.4449 57.4713 35.6314 57.6179C35.8191 57.7634 35.9622 57.9745 36.0607 58.2513C36.1604 58.527 36.2103 58.8595 36.2103 59.249C36.2103 59.6407 36.161 59.975 36.0625 60.2518C35.964 60.5275 35.8215 60.738 35.635 60.8835C35.4485 61.0278 35.2227 61.0999 34.9576 61.0999ZM34.9576 60.7128C35.2203 60.7128 35.4244 60.5861 35.5699 60.3328C35.7153 60.0794 35.788 59.7181 35.788 59.249C35.788 58.9369 35.7546 58.6713 35.6877 58.4519C35.6221 58.2326 35.527 58.0654 35.4027 57.9505C35.2795 57.8355 35.1312 57.7781 34.9576 57.7781C34.6972 57.7781 34.4937 57.9065 34.347 58.1634C34.2004 58.4191 34.1271 58.7809 34.1271 59.249C34.1271 59.561 34.16 59.8261 34.2256 60.0442C34.2913 60.2624 34.3857 60.4284 34.5089 60.5421C34.6332 60.6559 34.7828 60.7128 34.9576 60.7128ZM38.0542 61.0999C37.7891 61.0999 37.5633 61.0278 37.3768 60.8835C37.1903 60.738 37.0478 60.5275 36.9493 60.2518C36.8507 59.975 36.8015 59.6407 36.8015 59.249C36.8015 58.8595 36.8507 58.527 36.9493 58.2513C37.049 57.9745 37.1921 57.7634 37.3786 57.6179C37.5662 57.4713 37.7915 57.398 38.0542 57.398C38.3169 57.398 38.5416 57.4713 38.7281 57.6179C38.9157 57.7634 39.0588 57.9745 39.1574 58.2513C39.2571 58.527 39.3069 58.8595 39.3069 59.249C39.3069 59.6407 39.2577 59.975 39.1591 60.2518C39.0606 60.5275 38.9181 60.738 38.7316 60.8835C38.5451 61.0278 38.3193 61.0999 38.0542 61.0999ZM38.0542 60.7128C38.3169 60.7128 38.521 60.5861 38.6665 60.3328C38.8119 60.0794 38.8847 59.7181 38.8847 59.249C38.8847 58.9369 38.8512 58.6713 38.7844 58.4519C38.7187 58.2326 38.6237 58.0654 38.4993 57.9505C38.3762 57.8355 38.2278 57.7781 38.0542 57.7781C37.7938 57.7781 37.5903 57.9065 37.4437 58.1634C37.2971 58.4191 37.2237 58.7809 37.2237 59.249C37.2237 59.561 37.2566 59.8261 37.3223 60.0442C37.388 60.2624 37.4824 60.4284 37.6055 60.5421C37.7299 60.6559 37.8794 60.7128 38.0542 60.7128ZM42.9384 58.5733H42.5021C42.4763 58.4478 42.4311 58.3376 42.3666 58.2425C42.3033 58.1475 42.2259 58.0678 42.1344 58.0033C42.0441 57.9376 41.9438 57.8883 41.8335 57.8555C41.7232 57.8226 41.6083 57.8062 41.4887 57.8062C41.2705 57.8062 41.0728 57.8613 40.8957 57.9716C40.7198 58.0818 40.5796 58.2443 40.4752 58.459C40.372 58.6736 40.3204 58.9369 40.3204 59.249C40.3204 59.561 40.372 59.8243 40.4752 60.0389C40.5796 60.2536 40.7198 60.4161 40.8957 60.5263C41.0728 60.6366 41.2705 60.6917 41.4887 60.6917C41.6083 60.6917 41.7232 60.6753 41.8335 60.6424C41.9438 60.6096 42.0441 60.5609 42.1344 60.4964C42.2259 60.4307 42.3033 60.3504 42.3666 60.2554C42.4311 60.1592 42.4763 60.0489 42.5021 59.9246H42.9384C42.9056 60.1087 42.8458 60.2735 42.759 60.419C42.6722 60.5644 42.5643 60.6882 42.4352 60.7902C42.3062 60.8911 42.1613 60.9679 42.0007 61.0207C41.8411 61.0735 41.6705 61.0999 41.4887 61.0999C41.1813 61.0999 40.908 61.0248 40.6687 60.8747C40.4295 60.7245 40.2412 60.5111 40.104 60.2342C39.9667 59.9574 39.8981 59.629 39.8981 59.249C39.8981 58.8689 39.9667 58.5405 40.104 58.2637C40.2412 57.9868 40.4295 57.7734 40.6687 57.6232C40.908 57.4731 41.1813 57.398 41.4887 57.398C41.6705 57.398 41.8411 57.4244 42.0007 57.4772C42.1613 57.53 42.3062 57.6074 42.4352 57.7094C42.5643 57.8103 42.6722 57.9335 42.759 58.0789C42.8458 58.2232 42.9056 58.388 42.9384 58.5733ZM43.5872 61.0506V58.3481H43.9884V58.7563H44.0165C44.0658 58.6226 44.155 58.5141 44.284 58.4308C44.413 58.3475 44.5585 58.3059 44.7203 58.3059C44.7508 58.3059 44.7889 58.3065 44.8347 58.3076C44.8804 58.3088 44.915 58.3106 44.9385 58.3129V58.7352C44.9244 58.7317 44.8922 58.7264 44.8417 58.7194C44.7925 58.7111 44.7403 58.707 44.6851 58.707C44.5538 58.707 44.4365 58.7346 44.3332 58.7897C44.2312 58.8437 44.1503 58.9188 44.0904 59.0149C44.0318 59.11 44.0025 59.2185 44.0025 59.3404V61.0506H43.5872Z" fill="#65676D"/>
<path d="M31.9243 77.2989L31.8046 77.7071H29.5244L29.644 77.2989H31.9243ZM30.8545 80.0507L29.5666 78.4742L29.5596 78.1786H30.2C30.3666 78.1786 30.5085 78.1551 30.6258 78.1082C30.7431 78.0601 30.8328 77.9886 30.895 77.8936C30.9572 77.7974 30.9882 77.6766 30.9882 77.5311C30.9882 77.3165 30.9237 77.1482 30.7947 77.0262C30.6657 76.903 30.4675 76.8414 30.2 76.8414H29.5244L29.644 76.4473H30.2C30.4862 76.4473 30.7208 76.4948 30.9038 76.5898C31.088 76.6837 31.224 76.8127 31.312 76.9769C31.4011 77.1399 31.4457 77.3247 31.4457 77.5311C31.4457 77.7176 31.4047 77.8895 31.3225 78.0466C31.2416 78.2026 31.1114 78.3282 30.9319 78.4232C30.7537 78.5182 30.5179 78.5657 30.2246 78.5657H30.2141L31.4035 80.0225V80.0507H30.8545ZM31.9243 76.4473L31.8046 76.8555L30.01 76.8414L30.1296 76.4473H31.9243ZM34.98 80.0999C34.7384 80.0999 34.5249 80.0571 34.3396 79.9715C34.1554 79.8847 34.0117 79.7656 33.9085 79.6143C33.8053 79.4618 33.7543 79.2882 33.7554 79.0935C33.7543 78.941 33.7842 78.8003 33.8452 78.6712C33.9062 78.5411 33.9894 78.4326 34.095 78.3458C34.2017 78.2578 34.3208 78.2021 34.4522 78.1786V78.1575C34.2797 78.1129 34.1425 78.0161 34.0405 77.8672C33.9384 77.717 33.888 77.5464 33.8891 77.3552C33.888 77.1722 33.9343 77.0086 34.0281 76.8643C34.122 76.72 34.251 76.6062 34.4152 76.523C34.5806 76.4397 34.7689 76.398 34.98 76.398C35.1888 76.398 35.3753 76.4397 35.5395 76.523C35.7037 76.6062 35.8328 76.72 35.9266 76.8643C36.0216 77.0086 36.0697 77.1722 36.0709 77.3552C36.0697 77.5464 36.0175 77.717 35.9143 77.8672C35.8122 78.0161 35.6767 78.1129 35.5078 78.1575V78.1786C35.638 78.2021 35.7553 78.2578 35.8597 78.3458C35.9641 78.4326 36.0474 78.5411 36.1096 78.6712C36.1717 78.8003 36.2034 78.941 36.2046 79.0935C36.2034 79.2882 36.1506 79.4618 36.0462 79.6143C35.943 79.7656 35.7993 79.8847 35.6152 79.9715C35.4322 80.0571 35.2205 80.0999 34.98 80.0999ZM34.98 79.7128C35.143 79.7128 35.2838 79.6865 35.4023 79.6337C35.5207 79.5809 35.6122 79.5064 35.6767 79.4102C35.7413 79.314 35.7741 79.2014 35.7753 79.0724C35.7741 78.9363 35.7389 78.8161 35.6697 78.7117C35.6005 78.6073 35.5061 78.5252 35.3864 78.4654C35.268 78.4056 35.1325 78.3757 34.98 78.3757C34.8263 78.3757 34.6891 78.4056 34.5683 78.4654C34.4486 78.5252 34.3542 78.6073 34.285 78.7117C34.217 78.8161 34.1836 78.9363 34.1847 79.0724C34.1836 79.2014 34.2146 79.314 34.278 79.4102C34.3425 79.5064 34.4346 79.5809 34.5542 79.6337C34.6739 79.6865 34.8158 79.7128 34.98 79.7128ZM34.98 78.0027C35.109 78.0027 35.2234 77.9769 35.3231 77.9252C35.424 77.8736 35.5031 77.8015 35.5606 77.7088C35.6181 77.6162 35.6474 77.5077 35.6486 77.3833C35.6474 77.2613 35.6187 77.1552 35.5624 77.0649C35.5061 76.9734 35.4281 76.903 35.3284 76.8537C35.2287 76.8033 35.1125 76.7781 34.98 76.7781C34.8451 76.7781 34.7272 76.8033 34.6264 76.8537C34.5255 76.903 34.4475 76.9734 34.3923 77.0649C34.3372 77.1552 34.3102 77.2613 34.3114 77.3833C34.3102 77.5077 34.3378 77.6162 34.3941 77.7088C34.4516 77.8015 34.5308 77.8736 34.6316 77.9252C34.7325 77.9769 34.8486 78.0027 34.98 78.0027ZM38.0542 80.0999C37.7891 80.0999 37.5633 80.0278 37.3768 79.8835C37.1903 79.7381 37.0478 79.5275 36.9493 79.2519C36.8507 78.975 36.8015 78.6408 36.8015 78.249C36.8015 77.8596 36.8507 77.527 36.9493 77.2514C37.049 76.9746 37.1921 76.7634 37.3786 76.618C37.5662 76.4713 37.7915 76.398 38.0542 76.398C38.3169 76.398 38.5416 76.4713 38.7281 76.618C38.9157 76.7634 39.0589 76.9746 39.1574 77.2514C39.2571 77.527 39.3069 77.8596 39.3069 78.249C39.3069 78.6408 39.2577 78.975 39.1591 79.2519C39.0606 79.5275 38.9181 79.7381 38.7316 79.8835C38.5451 80.0278 38.3193 80.0999 38.0542 80.0999ZM38.0542 79.7128C38.3169 79.7128 38.521 79.5862 38.6665 79.3328C38.8119 79.0794 38.8847 78.7182 38.8847 78.249C38.8847 77.937 38.8512 77.6713 38.7844 77.452C38.7187 77.2326 38.6237 77.0655 38.4993 76.9505C38.3762 76.8356 38.2278 76.7781 38.0542 76.7781C37.7938 76.7781 37.5903 76.9065 37.4437 77.1634C37.2971 77.4191 37.2237 77.781 37.2237 78.249C37.2237 78.561 37.2566 78.8261 37.3223 79.0443C37.388 79.2624 37.4824 79.4284 37.6055 79.5422C37.7299 79.656 37.8794 79.7128 38.0542 79.7128ZM42.9384 77.5734H42.5021C42.4763 77.4478 42.4311 77.3376 42.3666 77.2426C42.3033 77.1476 42.2259 77.0678 42.1344 77.0033C42.0441 76.9376 41.9438 76.8883 41.8335 76.8555C41.7232 76.8227 41.6083 76.8062 41.4887 76.8062C41.2705 76.8062 41.0728 76.8614 40.8957 76.9716C40.7198 77.0819 40.5796 77.2443 40.4752 77.459C40.372 77.6736 40.3204 77.937 40.3204 78.249C40.3204 78.561 40.372 78.8243 40.4752 79.039C40.5796 79.2536 40.7198 79.4161 40.8957 79.5263C41.0728 79.6366 41.2705 79.6917 41.4887 79.6917C41.6083 79.6917 41.7232 79.6753 41.8335 79.6425C41.9438 79.6096 42.0441 79.5609 42.1344 79.4964C42.2259 79.4307 42.3033 79.3504 42.3666 79.2554C42.4311 79.1592 42.4763 79.0489 42.5021 78.9246H42.9384C42.9056 79.1088 42.8458 79.2736 42.759 79.419C42.6722 79.5645 42.5643 79.6882 42.4352 79.7903C42.3062 79.8911 42.1613 79.968 42.0007 80.0207C41.8411 80.0735 41.6705 80.0999 41.4887 80.0999C41.1813 80.0999 40.908 80.0249 40.6687 79.8747C40.4295 79.7246 40.2412 79.5111 40.104 79.2343C39.9667 78.9575 39.8981 78.629 39.8981 78.249C39.8981 77.8689 39.9667 77.5405 40.104 77.2637C40.2412 76.9869 40.4295 76.7734 40.6687 76.6232C40.908 76.4731 41.1813 76.398 41.4887 76.398C41.6705 76.398 41.8411 76.4244 42.0007 76.4772C42.1613 76.53 42.3062 76.6074 42.4352 76.7095C42.5643 76.8103 42.6722 76.9335 42.759 77.0789C42.8458 77.2232 42.9056 77.388 42.9384 77.5734ZM43.5872 80.0507V77.3481H43.9884V77.7563H44.0165C44.0658 77.6226 44.155 77.5141 44.284 77.4308C44.413 77.3476 44.5585 77.3059 44.7203 77.3059C44.7508 77.3059 44.7889 77.3065 44.8347 77.3077C44.8804 77.3088 44.915 77.3106 44.9385 77.313V77.7352C44.9244 77.7317 44.8922 77.7264 44.8417 77.7194C44.7925 77.7112 44.7403 77.7071 44.6851 77.7071C44.5538 77.7071 44.4365 77.7346 44.3332 77.7898C44.2312 77.8437 44.1503 77.9188 44.0904 78.015C44.0318 78.11 44.0025 78.2185 44.0025 78.3405V80.0507H43.5872Z" fill="#65676D"/>
<path d="M31.8856 96.2989L31.7659 96.7071H29.4857L29.6053 96.2989H31.8856ZM30.8158 99.0507L29.5279 97.4742L29.5209 97.1786H30.1613C30.3279 97.1786 30.4698 97.1551 30.5871 97.1082C30.7044 97.0601 30.7941 96.9886 30.8563 96.8936C30.9185 96.7974 30.9495 96.6766 30.9495 96.5311C30.9495 96.3165 30.885 96.1482 30.756 96.0262C30.627 95.903 30.4287 95.8414 30.1613 95.8414H29.4857L29.6053 95.4473H30.1613C30.4475 95.4473 30.6821 95.4948 30.8651 95.5898C31.0492 95.6837 31.1853 95.8127 31.2733 95.9769C31.3624 96.1399 31.407 96.3247 31.407 96.5311C31.407 96.7176 31.3659 96.8895 31.2838 97.0466C31.2029 97.2026 31.0727 97.3282 30.8932 97.4232C30.7149 97.5182 30.4792 97.5657 30.1859 97.5657H30.1754L31.3648 99.0225V99.0507H30.8158ZM31.8856 95.4473L31.7659 95.8555L29.9713 95.8414L30.0909 95.4473H31.8856ZM34.9835 99.0999C34.8357 99.0976 34.6879 99.0694 34.5401 99.0155C34.3923 98.9615 34.2575 98.8706 34.1355 98.7428C34.0135 98.6137 33.9155 98.4395 33.8416 98.2202C33.7677 97.9997 33.7308 97.7229 33.7308 97.3897C33.7308 97.0707 33.7607 96.788 33.8205 96.5417C33.8803 96.2942 33.9671 96.086 34.0809 95.9171C34.1947 95.747 34.3319 95.618 34.4926 95.53C34.6545 95.442 34.8369 95.398 35.0398 95.398C35.2416 95.398 35.421 95.4385 35.5782 95.5194C35.7366 95.5992 35.8656 95.7106 35.9653 95.8537C36.065 95.9968 36.1295 96.1616 36.1588 96.3481H35.7295C35.6896 96.1863 35.6122 96.052 35.4973 95.9452C35.3823 95.8385 35.2298 95.7851 35.0398 95.7851C34.7607 95.7851 34.5407 95.9065 34.38 96.1493C34.2205 96.3921 34.1402 96.7329 34.139 97.1716H34.1671C34.2328 97.0719 34.3108 96.9868 34.4011 96.9164C34.4926 96.8449 34.5935 96.7898 34.7038 96.7511C34.814 96.7123 34.9307 96.693 35.0539 96.693C35.2603 96.693 35.4492 96.7446 35.6204 96.8478C35.7917 96.9499 35.9289 97.0912 36.0322 97.2719C36.1354 97.4513 36.187 97.6572 36.187 97.8894C36.187 98.1123 36.1371 98.3164 36.0374 98.5017C35.9377 98.6859 35.7976 98.8325 35.6169 98.9416C35.4375 99.0495 35.2263 99.1023 34.9835 99.0999ZM34.9835 98.7128C35.1313 98.7128 35.2639 98.6759 35.3812 98.602C35.4996 98.5281 35.5929 98.429 35.6609 98.3047C35.7301 98.1803 35.7647 98.0419 35.7647 97.8894C35.7647 97.7405 35.7313 97.605 35.6644 97.483C35.5987 97.3598 35.5078 97.2619 35.3917 97.1892C35.2768 97.1164 35.1454 97.0801 34.9976 97.0801C34.8862 97.0801 34.7824 97.1024 34.6862 97.1469C34.59 97.1903 34.5055 97.2502 34.4328 97.3264C34.3613 97.4026 34.305 97.49 34.2639 97.5886C34.2229 97.6859 34.2023 97.7885 34.2023 97.8965C34.2023 98.0396 34.2358 98.1733 34.3026 98.2976C34.3706 98.4219 34.4633 98.5222 34.5806 98.5985C34.6991 98.6747 34.8334 98.7128 34.9835 98.7128ZM38.0542 99.0999C37.7891 99.0999 37.5633 99.0278 37.3768 98.8835C37.1903 98.7381 37.0478 98.5275 36.9493 98.2519C36.8507 97.975 36.8015 97.6408 36.8015 97.249C36.8015 96.8596 36.8507 96.527 36.9493 96.2514C37.049 95.9746 37.1921 95.7634 37.3786 95.618C37.5662 95.4713 37.7915 95.398 38.0542 95.398C38.3169 95.398 38.5416 95.4713 38.7281 95.618C38.9157 95.7634 39.0589 95.9746 39.1574 96.2514C39.2571 96.527 39.3069 96.8596 39.3069 97.249C39.3069 97.6408 39.2577 97.975 39.1591 98.2519C39.0606 98.5275 38.9181 98.7381 38.7316 98.8835C38.5451 99.0278 38.3193 99.0999 38.0542 99.0999ZM38.0542 98.7128C38.3169 98.7128 38.521 98.5862 38.6665 98.3328C38.8119 98.0794 38.8847 97.7182 38.8847 97.249C38.8847 96.937 38.8512 96.6713 38.7844 96.452C38.7187 96.2326 38.6237 96.0655 38.4993 95.9505C38.3762 95.8356 38.2278 95.7781 38.0542 95.7781C37.7938 95.7781 37.5903 95.9065 37.4437 96.1634C37.2971 96.4191 37.2237 96.781 37.2237 97.249C37.2237 97.561 37.2566 97.8261 37.3223 98.0443C37.388 98.2624 37.4824 98.4284 37.6055 98.5422C37.7299 98.656 37.8794 98.7128 38.0542 98.7128ZM42.9384 96.5734H42.5021C42.4763 96.4478 42.4311 96.3376 42.3666 96.2426C42.3033 96.1476 42.2259 96.0678 42.1344 96.0033C42.0441 95.9376 41.9438 95.8883 41.8335 95.8555C41.7232 95.8227 41.6083 95.8062 41.4887 95.8062C41.2705 95.8062 41.0728 95.8614 40.8957 95.9716C40.7198 96.0819 40.5796 96.2443 40.4752 96.459C40.372 96.6736 40.3204 96.937 40.3204 97.249C40.3204 97.561 40.372 97.8243 40.4752 98.039C40.5796 98.2536 40.7198 98.4161 40.8957 98.5263C41.0728 98.6366 41.2705 98.6917 41.4887 98.6917C41.6083 98.6917 41.7232 98.6753 41.8335 98.6425C41.9438 98.6096 42.0441 98.5609 42.1344 98.4964C42.2259 98.4307 42.3033 98.3504 42.3666 98.2554C42.4311 98.1592 42.4763 98.0489 42.5021 97.9246H42.9384C42.9056 98.1088 42.8458 98.2736 42.759 98.419C42.6722 98.5645 42.5643 98.6882 42.4352 98.7903C42.3062 98.8911 42.1613 98.968 42.0007 99.0207C41.8411 99.0735 41.6705 99.0999 41.4887 99.0999C41.1813 99.0999 40.908 99.0249 40.6687 98.8747C40.4295 98.7246 40.2412 98.5111 40.104 98.2343C39.9667 97.9575 39.8981 97.629 39.8981 97.249C39.8981 96.8689 39.9667 96.5405 40.104 96.2637C40.2412 95.9869 40.4295 95.7734 40.6687 95.6232C40.908 95.4731 41.1813 95.398 41.4887 95.398C41.6705 95.398 41.8411 95.4244 42.0007 95.4772C42.1613 95.53 42.3062 95.6074 42.4352 95.7095C42.5643 95.8103 42.6722 95.9335 42.759 96.0789C42.8458 96.2232 42.9056 96.388 42.9384 96.5734ZM43.5872 99.0507V96.3481H43.9884V96.7563H44.0165C44.0658 96.6226 44.155 96.5141 44.284 96.4308C44.413 96.3476 44.5585 96.3059 44.7203 96.3059C44.7508 96.3059 44.7889 96.3065 44.8347 96.3077C44.8804 96.3088 44.915 96.3106 44.9385 96.313V96.7352C44.9244 96.7317 44.8922 96.7264 44.8417 96.7194C44.7925 96.7112 44.7403 96.7071 44.6851 96.7071C44.5538 96.7071 44.4365 96.7346 44.3332 96.7898C44.2312 96.8437 44.1503 96.9188 44.0904 97.015C44.0318 97.11 44.0025 97.2185 44.0025 97.3405V99.0507H43.5872Z" fill="#65676D"/>
<path d="M31.7985 115.299L31.6788 115.707H29.3986L29.5182 115.299H31.7985ZM30.7287 118.051L29.4408 116.474L29.4338 116.179H30.0742C30.2408 116.179 30.3827 116.155 30.5 116.108C30.6173 116.06 30.707 115.989 30.7692 115.894C30.8314 115.797 30.8624 115.677 30.8624 115.531C30.8624 115.316 30.7979 115.148 30.6689 115.026C30.5399 114.903 30.3417 114.841 30.0742 114.841H29.3986L29.5182 114.447H30.0742C30.3604 114.447 30.595 114.495 30.778 114.59C30.9622 114.684 31.0982 114.813 31.1862 114.977C31.2753 115.14 31.3199 115.325 31.3199 115.531C31.3199 115.718 31.2789 115.889 31.1967 116.047C31.1158 116.203 30.9856 116.328 30.8061 116.423C30.6279 116.518 30.3921 116.566 30.0988 116.566H30.0883L31.2777 118.023V118.051H30.7287ZM31.7985 114.447L31.6788 114.855L29.8842 114.841L30.0038 114.447H31.7985ZM33.6155 117.312V116.953L35.1991 114.447H35.4595V115.003H35.2835L34.0871 116.896V116.925H36.2195V117.312H33.6155ZM35.3117 118.051V117.203V117.035V114.447H35.7269V118.051H35.3117ZM38.0542 118.1C37.7891 118.1 37.5633 118.028 37.3768 117.884C37.1903 117.738 37.0478 117.528 36.9493 117.252C36.8507 116.975 36.8015 116.641 36.8015 116.249C36.8015 115.86 36.8507 115.527 36.9493 115.251C37.049 114.975 37.1921 114.763 37.3786 114.618C37.5662 114.471 37.7915 114.398 38.0542 114.398C38.3169 114.398 38.5416 114.471 38.7281 114.618C38.9157 114.763 39.0589 114.975 39.1574 115.251C39.2571 115.527 39.3069 115.86 39.3069 116.249C39.3069 116.641 39.2577 116.975 39.1591 117.252C39.0606 117.528 38.9181 117.738 38.7316 117.884C38.5451 118.028 38.3193 118.1 38.0542 118.1ZM38.0542 117.713C38.3169 117.713 38.521 117.586 38.6665 117.333C38.8119 117.079 38.8847 116.718 38.8847 116.249C38.8847 115.937 38.8512 115.671 38.7844 115.452C38.7187 115.233 38.6237 115.065 38.4993 114.951C38.3762 114.836 38.2278 114.778 38.0542 114.778C37.7938 114.778 37.5903 114.907 37.4437 115.163C37.2971 115.419 37.2237 115.781 37.2237 116.249C37.2237 116.561 37.2566 116.826 37.3223 117.044C37.388 117.262 37.4824 117.428 37.6055 117.542C37.7299 117.656 37.8794 117.713 38.0542 117.713ZM42.9384 115.573H42.5021C42.4763 115.448 42.4311 115.338 42.3666 115.243C42.3033 115.148 42.2259 115.068 42.1344 115.003C42.0441 114.938 41.9438 114.888 41.8335 114.855C41.7232 114.823 41.6083 114.806 41.4887 114.806C41.2705 114.806 41.0728 114.861 40.8957 114.972C40.7198 115.082 40.5796 115.244 40.4752 115.459C40.372 115.674 40.3204 115.937 40.3204 116.249C40.3204 116.561 40.372 116.824 40.4752 117.039C40.5796 117.254 40.7198 117.416 40.8957 117.526C41.0728 117.637 41.2705 117.692 41.4887 117.692C41.6083 117.692 41.7232 117.675 41.8335 117.642C41.9438 117.61 42.0441 117.561 42.1344 117.496C42.2259 117.431 42.3033 117.35 42.3666 117.255C42.4311 117.159 42.4763 117.049 42.5021 116.925H42.9384C42.9056 117.109 42.8458 117.274 42.759 117.419C42.6722 117.564 42.5643 117.688 42.4352 117.79C42.3062 117.891 42.1613 117.968 42.0007 118.021C41.8411 118.074 41.6705 118.1 41.4887 118.1C41.1813 118.1 40.908 118.025 40.6687 117.875C40.4295 117.725 40.2412 117.511 40.104 117.234C39.9667 116.957 39.8981 116.629 39.8981 116.249C39.8981 115.869 39.9667 115.541 40.104 115.264C40.2412 114.987 40.4295 114.773 40.6687 114.623C40.908 114.473 41.1813 114.398 41.4887 114.398C41.6705 114.398 41.8411 114.424 42.0007 114.477C42.1613 114.53 42.3062 114.607 42.4352 114.709C42.5643 114.81 42.6722 114.933 42.759 115.079C42.8458 115.223 42.9056 115.388 42.9384 115.573ZM43.5872 118.051V115.348H43.9884V115.756H44.0165C44.0658 115.623 44.155 115.514 44.284 115.431C44.413 115.348 44.5585 115.306 44.7203 115.306C44.7508 115.306 44.7889 115.307 44.8347 115.308C44.8804 115.309 44.915 115.311 44.9385 115.313V115.735C44.9244 115.732 44.8922 115.726 44.8417 115.719C44.7925 115.711 44.7403 115.707 44.6851 115.707C44.5538 115.707 44.4365 115.735 44.3332 115.79C44.2312 115.844 44.1503 115.919 44.0904 116.015C44.0318 116.11 44.0025 116.218 44.0025 116.34V118.051H43.5872Z" fill="#65676D"/>
<path d="M31.9775 134.299L31.8579 134.707H29.5776L29.6973 134.299H31.9775ZM30.9078 137.051L29.6198 135.474L29.6128 135.179H30.2532C30.4198 135.179 30.5617 135.155 30.679 135.108C30.7963 135.06 30.8861 134.989 30.9482 134.894C31.0104 134.797 31.0415 134.677 31.0415 134.531C31.0415 134.316 30.977 134.148 30.8479 134.026C30.7189 133.903 30.5207 133.841 30.2532 133.841H29.5776L29.6973 133.447H30.2532C30.5394 133.447 30.774 133.495 30.957 133.59C31.1412 133.684 31.2772 133.813 31.3652 133.977C31.4544 134.14 31.4989 134.325 31.4989 134.531C31.4989 134.718 31.4579 134.889 31.3758 135.047C31.2948 135.203 31.1646 135.328 30.9852 135.423C30.8069 135.518 30.5711 135.566 30.2779 135.566H30.2673L31.4567 137.023V137.051H30.9078ZM31.9775 133.447L31.8579 133.855L30.0632 133.841L30.1829 133.447H31.9775ZM33.879 137.051V136.734L35.0684 135.432C35.208 135.279 35.3229 135.147 35.4133 135.034C35.5036 134.921 35.5704 134.814 35.6138 134.714C35.6584 134.613 35.6807 134.508 35.6807 134.397C35.6807 134.271 35.6502 134.161 35.5892 134.068C35.5294 133.976 35.4473 133.904 35.3429 133.854C35.2385 133.803 35.1212 133.778 34.991 133.778C34.8526 133.778 34.7318 133.807 34.6286 133.864C34.5265 133.921 34.4473 134 34.391 134.102C34.3359 134.204 34.3083 134.324 34.3083 134.461H33.8931C33.8931 134.25 33.9418 134.064 34.0391 133.905C34.1365 133.745 34.269 133.621 34.4368 133.532C34.6057 133.443 34.7951 133.398 35.0051 133.398C35.2162 133.398 35.4033 133.443 35.5663 133.532C35.7294 133.621 35.8572 133.741 35.9499 133.892C36.0426 134.044 36.0889 134.212 36.0889 134.397C36.0889 134.53 36.0649 134.66 36.0168 134.786C35.9698 134.912 35.8877 135.052 35.7704 135.207C35.6543 135.36 35.493 135.548 35.2866 135.77L34.4772 136.635V136.664H36.1522V137.051H33.879ZM38.0542 137.1C37.7891 137.1 37.5633 137.028 37.3768 136.884C37.1903 136.738 37.0478 136.528 36.9493 136.252C36.8507 135.975 36.8015 135.641 36.8015 135.249C36.8015 134.86 36.8507 134.527 36.9493 134.251C37.049 133.975 37.1921 133.763 37.3786 133.618C37.5662 133.471 37.7915 133.398 38.0542 133.398C38.3169 133.398 38.5416 133.471 38.7281 133.618C38.9157 133.763 39.0588 133.975 39.1574 134.251C39.2571 134.527 39.3069 134.86 39.3069 135.249C39.3069 135.641 39.2577 135.975 39.1591 136.252C39.0606 136.528 38.9181 136.738 38.7316 136.884C38.5451 137.028 38.3193 137.1 38.0542 137.1ZM38.0542 136.713C38.3169 136.713 38.521 136.586 38.6665 136.333C38.8119 136.079 38.8847 135.718 38.8847 135.249C38.8847 134.937 38.8512 134.671 38.7844 134.452C38.7187 134.233 38.6237 134.065 38.4993 133.951C38.3762 133.836 38.2278 133.778 38.0542 133.778C37.7938 133.778 37.5903 133.907 37.4437 134.163C37.2971 134.419 37.2237 134.781 37.2237 135.249C37.2237 135.561 37.2566 135.826 37.3223 136.044C37.388 136.262 37.4824 136.428 37.6055 136.542C37.7299 136.656 37.8794 136.713 38.0542 136.713ZM42.9384 134.573H42.5021C42.4763 134.448 42.4311 134.338 42.3666 134.243C42.3033 134.148 42.2259 134.068 42.1344 134.003C42.0441 133.938 41.9438 133.888 41.8335 133.855C41.7232 133.823 41.6083 133.806 41.4887 133.806C41.2705 133.806 41.0728 133.861 40.8957 133.972C40.7198 134.082 40.5796 134.244 40.4752 134.459C40.372 134.674 40.3204 134.937 40.3204 135.249C40.3204 135.561 40.372 135.824 40.4752 136.039C40.5796 136.254 40.7198 136.416 40.8957 136.526C41.0728 136.637 41.2705 136.692 41.4887 136.692C41.6083 136.692 41.7232 136.675 41.8335 136.642C41.9438 136.61 42.0441 136.561 42.1344 136.496C42.2259 136.431 42.3033 136.35 42.3666 136.255C42.4311 136.159 42.4763 136.049 42.5021 135.925H42.9384C42.9056 136.109 42.8458 136.274 42.759 136.419C42.6722 136.564 42.5643 136.688 42.4352 136.79C42.3062 136.891 42.1613 136.968 42.0007 137.021C41.8411 137.074 41.6705 137.1 41.4887 137.1C41.1813 137.1 40.908 137.025 40.6687 136.875C40.4295 136.725 40.2412 136.511 40.104 136.234C39.9667 135.957 39.8981 135.629 39.8981 135.249C39.8981 134.869 39.9667 134.541 40.104 134.264C40.2412 133.987 40.4295 133.773 40.6687 133.623C40.908 133.473 41.1813 133.398 41.4887 133.398C41.6705 133.398 41.8411 133.424 42.0007 133.477C42.1613 133.53 42.3062 133.607 42.4352 133.709C42.5643 133.81 42.6722 133.933 42.759 134.079C42.8458 134.223 42.9056 134.388 42.9384 134.573ZM43.5872 137.051V134.348H43.9884V134.756H44.0165C44.0658 134.623 44.155 134.514 44.284 134.431C44.413 134.348 44.5585 134.306 44.7203 134.306C44.7508 134.306 44.7889 134.307 44.8347 134.308C44.8804 134.309 44.915 134.311 44.9385 134.313V134.735C44.9244 134.732 44.8922 134.726 44.8417 134.719C44.7925 134.711 44.7403 134.707 44.6851 134.707C44.5538 134.707 44.4365 134.735 44.3332 134.79C44.2312 134.844 44.1503 134.919 44.0904 135.015C44.0318 135.11 44.0025 135.218 44.0025 135.34V137.051H43.5872Z" fill="#65676D"/>
<path d="M34.9774 153.299L34.8577 153.707H32.5775L32.6971 153.299H34.9774ZM33.9076 156.051L32.6197 154.474L32.6127 154.179H33.2531C33.4197 154.179 33.5616 154.155 33.6789 154.108C33.7962 154.06 33.8859 153.989 33.9481 153.894C34.0103 153.797 34.0413 153.677 34.0413 153.531C34.0413 153.316 33.9768 153.148 33.8478 153.026C33.7188 152.903 33.5205 152.841 33.2531 152.841H32.5775L32.6971 152.447H33.2531C33.5393 152.447 33.7739 152.495 33.9569 152.59C34.141 152.684 34.2771 152.813 34.3651 152.977C34.4542 153.14 34.4988 153.325 34.4988 153.531C34.4988 153.718 34.4577 153.889 34.3756 154.047C34.2947 154.203 34.1645 154.328 33.985 154.423C33.8067 154.518 33.571 154.566 33.2777 154.566H33.2672L34.4566 156.023V156.051H33.9076ZM34.9774 152.447L34.8577 152.855L33.0631 152.841L33.1827 152.447H34.9774ZM38.0542 156.1C37.7891 156.1 37.5633 156.028 37.3768 155.884C37.1903 155.738 37.0478 155.528 36.9493 155.252C36.8507 154.975 36.8015 154.641 36.8015 154.249C36.8015 153.86 36.8507 153.527 36.9493 153.251C37.049 152.975 37.1921 152.763 37.3786 152.618C37.5662 152.471 37.7915 152.398 38.0542 152.398C38.3169 152.398 38.5416 152.471 38.7281 152.618C38.9157 152.763 39.0588 152.975 39.1574 153.251C39.2571 153.527 39.3069 153.86 39.3069 154.249C39.3069 154.641 39.2577 154.975 39.1591 155.252C39.0606 155.528 38.9181 155.738 38.7316 155.884C38.5451 156.028 38.3193 156.1 38.0542 156.1ZM38.0542 155.713C38.3169 155.713 38.521 155.586 38.6665 155.333C38.8119 155.079 38.8847 154.718 38.8847 154.249C38.8847 153.937 38.8512 153.671 38.7844 153.452C38.7187 153.233 38.6237 153.065 38.4993 152.951C38.3762 152.836 38.2278 152.778 38.0542 152.778C37.7938 152.778 37.5903 152.907 37.4437 153.163C37.2971 153.419 37.2237 153.781 37.2237 154.249C37.2237 154.561 37.2566 154.826 37.3223 155.044C37.388 155.262 37.4824 155.428 37.6055 155.542C37.7299 155.656 37.8794 155.713 38.0542 155.713ZM42.9384 153.573H42.5021C42.4763 153.448 42.4311 153.338 42.3666 153.243C42.3033 153.148 42.2259 153.068 42.1344 153.003C42.0441 152.938 41.9438 152.888 41.8335 152.855C41.7232 152.823 41.6083 152.806 41.4887 152.806C41.2705 152.806 41.0728 152.861 40.8957 152.972C40.7198 153.082 40.5796 153.244 40.4752 153.459C40.372 153.674 40.3204 153.937 40.3204 154.249C40.3204 154.561 40.372 154.824 40.4752 155.039C40.5796 155.254 40.7198 155.416 40.8957 155.526C41.0728 155.637 41.2705 155.692 41.4887 155.692C41.6083 155.692 41.7232 155.675 41.8335 155.642C41.9438 155.61 42.0441 155.561 42.1344 155.496C42.2259 155.431 42.3033 155.35 42.3666 155.255C42.4311 155.159 42.4763 155.049 42.5021 154.925H42.9384C42.9056 155.109 42.8458 155.274 42.759 155.419C42.6722 155.564 42.5643 155.688 42.4352 155.79C42.3062 155.891 42.1613 155.968 42.0007 156.021C41.8411 156.074 41.6705 156.1 41.4887 156.1C41.1813 156.1 40.908 156.025 40.6687 155.875C40.4295 155.725 40.2412 155.511 40.104 155.234C39.9667 154.957 39.8981 154.629 39.8981 154.249C39.8981 153.869 39.9667 153.541 40.104 153.264C40.2412 152.987 40.4295 152.773 40.6687 152.623C40.908 152.473 41.1813 152.398 41.4887 152.398C41.6705 152.398 41.8411 152.424 42.0007 152.477C42.1613 152.53 42.3062 152.607 42.4352 152.709C42.5643 152.81 42.6722 152.933 42.759 153.079C42.8458 153.223 42.9056 153.388 42.9384 153.573ZM43.5872 156.051V153.348H43.9884V153.756H44.0165C44.0658 153.623 44.155 153.514 44.284 153.431C44.413 153.348 44.5585 153.306 44.7203 153.306C44.7508 153.306 44.7889 153.307 44.8347 153.308C44.8804 153.309 44.915 153.311 44.9385 153.313V153.735C44.9244 153.732 44.8922 153.726 44.8417 153.719C44.7925 153.711 44.7403 153.707 44.6851 153.707C44.5538 153.707 44.4365 153.735 44.3332 153.79C44.2312 153.844 44.1503 153.919 44.0904 154.015C44.0318 154.11 44.0025 154.218 44.0025 154.34V156.051H43.5872Z" fill="#65676D"/>
<path d="M61.015 151.968L61.015 24.1145" stroke="#F5F5F5" stroke-width="0.194178" stroke-linecap="square"/>
<path d="M214.963 151.968V24.1145" stroke="#F5F5F5" stroke-width="0.194178" stroke-linecap="square"/>
<path d="M240.62 151.968V24.1145" stroke="#F5F5F5" stroke-width="0.194178" stroke-linecap="square"/>
<path d="M57.6776 143.079H248.652" stroke="#F5F5F5" stroke-width="0.194178" stroke-linecap="square"/>
<path d="M57.6776 125.17H248.652" stroke="#F5F5F5" stroke-width="0.194178" stroke-linecap="square"/>
<path d="M57.6776 107.258H248.652" stroke="#F5F5F5" stroke-width="0.194178" stroke-linecap="square"/>
<path d="M57.6776 89.3527H248.652" stroke="#F5F5F5" stroke-width="0.194178" stroke-linecap="square"/>
<path d="M57.6776 71.4446H248.652" stroke="#F5F5F5" stroke-width="0.194178" stroke-linecap="square"/>
<path d="M57.6776 53.5366H248.652" stroke="#F5F5F5" stroke-width="0.194178" stroke-linecap="square"/>
<path d="M57.6776 35.6273H248.652" stroke="#F5F5F5" stroke-width="0.194178" stroke-linecap="square"/>
<path d="M86.6732 151.968V24.1145" stroke="#F5F5F5" stroke-width="0.194178" stroke-linecap="square"/>
<path d="M112.33 151.968V24.1145" stroke="#F5F5F5" stroke-width="0.194178" stroke-linecap="square"/>
<path d="M137.988 151.968V24.1145" stroke="#F5F5F5" stroke-width="0.194178" stroke-linecap="square"/>
<path d="M163.647 151.968V24.1145" stroke="#F5F5F5" stroke-width="0.194178" stroke-linecap="square"/>
<path d="M189.305 151.968V24.1145" stroke="#F5F5F5" stroke-width="0.194178" stroke-linecap="square"/>
<path opacity="0.6" d="M60.5823 145.837C60.5823 145.837 120.667 143.566 158.104 136.001C194.021 128.742 247.582 108.833 247.582 108.833" stroke="#FF718B" stroke-width="3" stroke-linecap="round"/>
<path opacity="0.6" d="M60.5823 145.838C145.909 127.626 193.292 113.049 247.08 63.3975" stroke="#30CE00" stroke-width="3" stroke-linecap="round"/>
<path d="M58.7042 157.541V157.224L59.8936 155.922C60.0332 155.77 60.1481 155.637 60.2385 155.525C60.3288 155.411 60.3956 155.304 60.439 155.205C60.4836 155.104 60.5059 154.998 60.5059 154.888C60.5059 154.761 60.4754 154.652 60.4144 154.559C60.3546 154.466 60.2725 154.395 60.1681 154.344C60.0637 154.294 59.9464 154.269 59.8162 154.269C59.6778 154.269 59.557 154.297 59.4538 154.355C59.3517 154.411 59.2725 154.49 59.2162 154.592C59.1611 154.694 59.1335 154.814 59.1335 154.951H58.7183C58.7183 154.74 58.767 154.555 58.8643 154.395C58.9617 154.236 59.0942 154.111 59.262 154.022C59.4309 153.933 59.6203 153.889 59.8303 153.889C60.0414 153.889 60.2285 153.933 60.3915 154.022C60.5546 154.111 60.6824 154.232 60.7751 154.383C60.8678 154.534 60.9141 154.703 60.9141 154.888C60.9141 155.02 60.89 155.15 60.842 155.277C60.795 155.402 60.7129 155.542 60.5956 155.697C60.4795 155.851 60.3182 156.039 60.1118 156.26L59.3024 157.126V157.154H60.9774V157.541H58.7042ZM62.8794 157.59C62.6143 157.59 62.3885 157.518 62.202 157.374C62.0155 157.229 61.873 157.018 61.7745 156.742C61.6759 156.466 61.6267 156.131 61.6267 155.739C61.6267 155.35 61.6759 155.017 61.7745 154.742C61.8742 154.465 62.0173 154.254 62.2038 154.108C62.3914 153.962 62.6167 153.889 62.8794 153.889C63.1421 153.889 63.3668 153.962 63.5533 154.108C63.7409 154.254 63.884 154.465 63.9826 154.742C64.0823 155.017 64.1321 155.35 64.1321 155.739C64.1321 156.131 64.0829 156.466 63.9843 156.742C63.8858 157.018 63.7433 157.229 63.5568 157.374C63.3703 157.518 63.1445 157.59 62.8794 157.59ZM62.8794 157.203C63.1421 157.203 63.3462 157.077 63.4917 156.823C63.6371 156.57 63.7099 156.209 63.7099 155.739C63.7099 155.427 63.6764 155.162 63.6096 154.942C63.5439 154.723 63.4489 154.556 63.3245 154.441C63.2014 154.326 63.053 154.269 62.8794 154.269C62.619 154.269 62.4155 154.397 62.2689 154.654C62.1223 154.91 62.0489 155.271 62.0489 155.739C62.0489 156.051 62.0818 156.317 62.1475 156.535C62.2132 156.753 62.3076 156.919 62.4307 157.033C62.5551 157.146 62.7046 157.203 62.8794 157.203ZM64.8007 157.541V157.224L65.9901 155.922C66.1297 155.77 66.2446 155.637 66.335 155.525C66.4253 155.411 66.4921 155.304 66.5355 155.205C66.5801 155.104 66.6024 154.998 66.6024 154.888C66.6024 154.761 66.5719 154.652 66.5109 154.559C66.4511 154.466 66.369 154.395 66.2646 154.344C66.1602 154.294 66.0429 154.269 65.9127 154.269C65.7743 154.269 65.6535 154.297 65.5502 154.355C65.4482 154.411 65.369 154.49 65.3127 154.592C65.2576 154.694 65.23 154.814 65.23 154.951H64.8148C64.8148 154.74 64.8635 154.555 64.9608 154.395C65.0582 154.236 65.1907 154.111 65.3585 154.022C65.5274 153.933 65.7168 153.889 65.9268 153.889C66.1379 153.889 66.325 153.933 66.488 154.022C66.6511 154.111 66.7789 154.232 66.8716 154.383C66.9643 154.534 67.0106 154.703 67.0106 154.888C67.0106 155.02 66.9865 155.15 66.9385 155.277C66.8915 155.402 66.8094 155.542 66.6921 155.697C66.576 155.851 66.4147 156.039 66.2083 156.26L65.3989 157.126V157.154H67.0739V157.541H64.8007ZM69.0181 157.59C68.7859 157.59 68.5788 157.551 68.397 157.471C68.2164 157.391 68.0727 157.28 67.966 157.138C67.8604 156.995 67.8029 156.829 67.7935 156.64H68.2369C68.2463 156.756 68.2862 156.857 68.3566 156.941C68.4269 157.024 68.519 157.089 68.6328 157.135C68.7466 157.18 68.8727 157.203 69.0111 157.203C69.1659 157.203 69.3032 157.176 69.4228 157.122C69.5424 157.068 69.6363 156.993 69.7043 156.897C69.7723 156.801 69.8064 156.69 69.8064 156.563C69.8064 156.43 69.7735 156.314 69.7078 156.213C69.6421 156.111 69.546 156.031 69.4193 155.973C69.2926 155.916 69.1378 155.887 68.9548 155.887H68.6662V155.5H68.9548C69.0979 155.5 69.2234 155.474 69.3313 155.423C69.4404 155.371 69.5254 155.298 69.5864 155.205C69.6486 155.111 69.6797 155 69.6797 154.874C69.6797 154.752 69.6527 154.646 69.5987 154.555C69.5448 154.465 69.4685 154.395 69.37 154.344C69.2727 154.294 69.1577 154.269 69.0252 154.269C68.9008 154.269 68.7835 154.291 68.6733 154.337C68.5642 154.382 68.475 154.447 68.4058 154.532C68.3366 154.617 68.2991 154.719 68.2932 154.839H67.871C67.878 154.65 67.9349 154.484 68.0416 154.342C68.1484 154.199 68.288 154.088 68.4604 154.008C68.634 153.928 68.8246 153.889 69.0322 153.889C69.2551 153.889 69.4463 153.934 69.6058 154.024C69.7653 154.113 69.8879 154.231 69.9735 154.378C70.0591 154.524 70.1019 154.683 70.1019 154.853C70.1019 155.056 70.0486 155.229 69.9418 155.372C69.8363 155.515 69.6926 155.614 69.5108 155.669V155.697C69.7383 155.735 69.916 155.832 70.0439 155.988C70.1717 156.142 70.2357 156.334 70.2357 156.563C70.2357 156.759 70.1823 156.935 70.0756 157.091C69.97 157.246 69.8257 157.368 69.6427 157.457C69.4597 157.546 69.2515 157.59 69.0181 157.59Z" fill="#65676D"/>
<path d="M83.0586 157.541V157.224L84.2479 155.922C84.3875 155.77 84.5025 155.637 84.5928 155.525C84.6831 155.411 84.75 155.304 84.7934 155.205C84.8379 155.104 84.8602 154.998 84.8602 154.888C84.8602 154.761 84.8297 154.652 84.7687 154.559C84.7089 154.466 84.6268 154.395 84.5224 154.344C84.418 154.294 84.3007 154.269 84.1705 154.269C84.0321 154.269 83.9113 154.297 83.8081 154.355C83.706 154.411 83.6269 154.49 83.5706 154.592C83.5154 154.694 83.4879 154.814 83.4879 154.951H83.0726C83.0726 154.74 83.1213 154.555 83.2187 154.395C83.316 154.236 83.4486 154.111 83.6163 154.022C83.7852 153.933 83.9746 153.889 84.1846 153.889C84.3957 153.889 84.5828 153.933 84.7459 154.022C84.9089 154.111 85.0368 154.232 85.1294 154.383C85.2221 154.534 85.2684 154.703 85.2684 154.888C85.2684 155.02 85.2444 155.15 85.1963 155.277C85.1494 155.402 85.0673 155.542 84.95 155.697C84.8338 155.851 84.6726 156.039 84.4661 156.26L83.6568 157.126V157.154H85.3318V157.541H83.0586ZM87.2337 157.59C86.9686 157.59 86.7428 157.518 86.5563 157.374C86.3698 157.229 86.2273 157.018 86.1288 156.742C86.0303 156.466 85.981 156.131 85.981 155.739C85.981 155.35 86.0303 155.017 86.1288 154.742C86.2285 154.465 86.3716 154.254 86.5581 154.108C86.7458 153.962 86.971 153.889 87.2337 153.889C87.4965 153.889 87.7211 153.962 87.9076 154.108C88.0953 154.254 88.2384 154.465 88.3369 154.742C88.4366 155.017 88.4865 155.35 88.4865 155.739C88.4865 156.131 88.4372 156.466 88.3387 156.742C88.2401 157.018 88.0976 157.229 87.9111 157.374C87.7246 157.518 87.4988 157.59 87.2337 157.59ZM87.2337 157.203C87.4965 157.203 87.7006 157.077 87.846 156.823C87.9915 156.57 88.0642 156.209 88.0642 155.739C88.0642 155.427 88.0308 155.162 87.9639 154.942C87.8982 154.723 87.8032 154.556 87.6789 154.441C87.5557 154.326 87.4073 154.269 87.2337 154.269C86.9733 154.269 86.7698 154.397 86.6232 154.654C86.4766 154.91 86.4033 155.271 86.4033 155.739C86.4033 156.051 86.4361 156.317 86.5018 156.535C86.5675 156.753 86.6619 156.919 86.7851 157.033C86.9094 157.146 87.059 157.203 87.2337 157.203ZM89.1551 157.541V157.224L90.3444 155.922C90.484 155.77 90.599 155.637 90.6893 155.525C90.7796 155.411 90.8465 155.304 90.8899 155.205C90.9344 155.104 90.9567 154.998 90.9567 154.888C90.9567 154.761 90.9262 154.652 90.8652 154.559C90.8054 154.466 90.7233 154.395 90.6189 154.344C90.5145 154.294 90.3972 154.269 90.267 154.269C90.1286 154.269 90.0078 154.297 89.9046 154.355C89.8025 154.411 89.7234 154.49 89.6671 154.592C89.6119 154.694 89.5844 154.814 89.5844 154.951H89.1691C89.1691 154.74 89.2178 154.555 89.3152 154.395C89.4125 154.236 89.5451 154.111 89.7128 154.022C89.8817 153.933 90.0711 153.889 90.2811 153.889C90.4922 153.889 90.6793 153.933 90.8424 154.022C91.0054 154.111 91.1333 154.232 91.2259 154.383C91.3186 154.534 91.3649 154.703 91.3649 154.888C91.3649 155.02 91.3409 155.15 91.2928 155.277C91.2459 155.402 91.1638 155.542 91.0465 155.697C90.9303 155.851 90.7691 156.039 90.5626 156.26L89.7533 157.126V157.154H91.4283V157.541H89.1551ZM92.2675 157.541L93.8792 154.353V154.325H92.0212V153.938H94.3296V154.346L92.725 157.541H92.2675Z" fill="#65676D"/>
<path d="M107.461 157.541V157.224L108.651 155.922C108.79 155.77 108.905 155.637 108.995 155.525C109.086 155.411 109.153 155.304 109.196 155.205C109.241 155.104 109.263 154.998 109.263 154.888C109.263 154.761 109.232 154.652 109.171 154.559C109.112 154.466 109.029 154.395 108.925 154.344C108.821 154.294 108.703 154.269 108.573 154.269C108.435 154.269 108.314 154.297 108.211 154.355C108.109 154.411 108.03 154.49 107.973 154.592C107.918 154.694 107.891 154.814 107.891 154.951H107.475C107.475 154.74 107.524 154.555 107.621 154.395C107.719 154.236 107.851 154.111 108.019 154.022C108.188 153.933 108.377 153.889 108.587 153.889C108.798 153.889 108.985 153.933 109.149 154.022C109.312 154.111 109.439 154.232 109.532 154.383C109.625 154.534 109.671 154.703 109.671 154.888C109.671 155.02 109.647 155.15 109.599 155.277C109.552 155.402 109.47 155.542 109.353 155.697C109.236 155.851 109.075 156.039 108.869 156.26L108.059 157.126V157.154H109.734V157.541H107.461ZM111.636 157.59C111.371 157.59 111.145 157.518 110.959 157.374C110.772 157.229 110.63 157.018 110.531 156.742C110.433 156.466 110.384 156.131 110.384 155.739C110.384 155.35 110.433 155.017 110.531 154.742C110.631 154.465 110.774 154.254 110.961 154.108C111.148 153.962 111.374 153.889 111.636 153.889C111.899 153.889 112.124 153.962 112.31 154.108C112.498 154.254 112.641 154.465 112.74 154.742C112.839 155.017 112.889 155.35 112.889 155.739C112.889 156.131 112.84 156.466 112.741 156.742C112.643 157.018 112.5 157.229 112.314 157.374C112.127 157.518 111.901 157.59 111.636 157.59ZM111.636 157.203C111.899 157.203 112.103 157.077 112.249 156.823C112.394 156.57 112.467 156.209 112.467 155.739C112.467 155.427 112.433 155.162 112.367 154.942C112.301 154.723 112.206 154.556 112.082 154.441C111.958 154.326 111.81 154.269 111.636 154.269C111.376 154.269 111.172 154.397 111.026 154.654C110.879 154.91 110.806 155.271 110.806 155.739C110.806 156.051 110.839 156.317 110.904 156.535C110.97 156.753 111.065 156.919 111.188 157.033C111.312 157.146 111.462 157.203 111.636 157.203ZM114.775 157.59C114.543 157.59 114.336 157.551 114.154 157.471C113.974 157.391 113.83 157.28 113.723 157.138C113.618 156.995 113.56 156.829 113.551 156.64H113.994C114.003 156.756 114.043 156.857 114.114 156.941C114.184 157.024 114.276 157.089 114.39 157.135C114.504 157.18 114.63 157.203 114.768 157.203C114.923 157.203 115.06 157.176 115.18 157.122C115.3 157.068 115.393 156.993 115.461 156.897C115.529 156.801 115.563 156.69 115.563 156.563C115.563 156.43 115.531 156.314 115.465 156.213C115.399 156.111 115.303 156.031 115.176 155.973C115.05 155.916 114.895 155.887 114.712 155.887H114.423V155.5H114.712C114.855 155.5 114.981 155.474 115.088 155.423C115.198 155.371 115.283 155.298 115.344 155.205C115.406 155.111 115.437 155 115.437 154.874C115.437 154.752 115.41 154.646 115.356 154.555C115.302 154.465 115.226 154.395 115.127 154.344C115.03 154.294 114.915 154.269 114.782 154.269C114.658 154.269 114.541 154.291 114.43 154.337C114.321 154.382 114.232 154.447 114.163 154.532C114.094 154.617 114.056 154.719 114.05 154.839H113.628C113.635 154.65 113.692 154.484 113.799 154.342C113.905 154.199 114.045 154.088 114.217 154.008C114.391 153.928 114.582 153.889 114.789 153.889C115.012 153.889 115.203 153.934 115.363 154.024C115.522 154.113 115.645 154.231 115.731 154.378C115.816 154.524 115.859 154.683 115.859 154.853C115.859 155.056 115.806 155.229 115.699 155.372C115.593 155.515 115.45 155.614 115.268 155.669V155.697C115.495 155.735 115.673 155.832 115.801 155.988C115.929 156.142 115.993 156.334 115.993 156.563C115.993 156.759 115.939 156.935 115.833 157.091C115.727 157.246 115.583 157.368 115.4 157.457C115.217 157.546 115.009 157.59 114.775 157.59ZM117.979 153.938V157.541H117.543V154.395H117.522L116.642 154.979V154.536L117.543 153.938H117.979Z" fill="#65676D"/>
<path d="M131.78 157.541V157.224L132.969 155.922C133.109 155.77 133.224 155.637 133.314 155.525C133.405 155.411 133.472 155.304 133.515 155.205C133.559 155.104 133.582 154.998 133.582 154.888C133.582 154.761 133.551 154.652 133.49 154.559C133.43 154.466 133.348 154.395 133.244 154.344C133.14 154.294 133.022 154.269 132.892 154.269C132.754 154.269 132.633 154.297 132.53 154.355C132.428 154.411 132.348 154.49 132.292 154.592C132.237 154.694 132.209 154.814 132.209 154.951H131.794C131.794 154.74 131.843 154.555 131.94 154.395C132.038 154.236 132.17 154.111 132.338 154.022C132.507 153.933 132.696 153.889 132.906 153.889C133.117 153.889 133.304 153.933 133.467 154.022C133.63 154.111 133.758 154.232 133.851 154.383C133.944 154.534 133.99 154.703 133.99 154.888C133.99 155.02 133.966 155.15 133.918 155.277C133.871 155.402 133.789 155.542 133.672 155.697C133.555 155.851 133.394 156.039 133.188 156.26L132.378 157.126V157.154H134.053V157.541H131.78ZM135.955 157.59C135.69 157.59 135.464 157.518 135.278 157.374C135.091 157.229 134.949 157.018 134.85 156.742C134.752 156.466 134.703 156.131 134.703 155.739C134.703 155.35 134.752 155.017 134.85 154.742C134.95 154.465 135.093 154.254 135.28 154.108C135.467 153.962 135.693 153.889 135.955 153.889C136.218 153.889 136.443 153.962 136.629 154.108C136.817 154.254 136.96 154.465 137.058 154.742C137.158 155.017 137.208 155.35 137.208 155.739C137.208 156.131 137.159 156.466 137.06 156.742C136.962 157.018 136.819 157.229 136.633 157.374C136.446 157.518 136.22 157.59 135.955 157.59ZM135.955 157.203C136.218 157.203 136.422 157.077 136.568 156.823C136.713 156.57 136.786 156.209 136.786 155.739C136.786 155.427 136.752 155.162 136.685 154.942C136.62 154.723 136.525 154.556 136.4 154.441C136.277 154.326 136.129 154.269 135.955 154.269C135.695 154.269 135.491 154.397 135.345 154.654C135.198 154.91 135.125 155.271 135.125 155.739C135.125 156.051 135.158 156.317 135.223 156.535C135.289 156.753 135.383 156.919 135.507 157.033C135.631 157.146 135.781 157.203 135.955 157.203ZM139.094 157.59C138.862 157.59 138.655 157.551 138.473 157.471C138.292 157.391 138.149 157.28 138.042 157.138C137.936 156.995 137.879 156.829 137.87 156.64H138.313C138.322 156.756 138.362 156.857 138.433 156.941C138.503 157.024 138.595 157.089 138.709 157.135C138.823 157.18 138.949 157.203 139.087 157.203C139.242 157.203 139.379 157.176 139.499 157.122C139.618 157.068 139.712 156.993 139.78 156.897C139.848 156.801 139.882 156.69 139.882 156.563C139.882 156.43 139.85 156.314 139.784 156.213C139.718 156.111 139.622 156.031 139.495 155.973C139.369 155.916 139.214 155.887 139.031 155.887H138.742V155.5H139.031C139.174 155.5 139.299 155.474 139.407 155.423C139.516 155.371 139.601 155.298 139.662 155.205C139.725 155.111 139.756 155 139.756 154.874C139.756 154.752 139.729 154.646 139.675 154.555C139.621 154.465 139.545 154.395 139.446 154.344C139.349 154.294 139.234 154.269 139.101 154.269C138.977 154.269 138.86 154.291 138.749 154.337C138.64 154.382 138.551 154.447 138.482 154.532C138.413 154.617 138.375 154.719 138.369 154.839H137.947C137.954 154.65 138.011 154.484 138.118 154.342C138.224 154.199 138.364 154.088 138.536 154.008C138.71 153.928 138.901 153.889 139.108 153.889C139.331 153.889 139.522 153.934 139.682 154.024C139.841 154.113 139.964 154.231 140.05 154.378C140.135 154.524 140.178 154.683 140.178 154.853C140.178 155.056 140.125 155.229 140.018 155.372C139.912 155.515 139.769 155.614 139.587 155.669V155.697C139.814 155.735 139.992 155.832 140.12 155.988C140.248 156.142 140.312 156.334 140.312 156.563C140.312 156.759 140.258 156.935 140.152 157.091C140.046 157.246 139.902 157.368 139.719 157.457C139.536 157.546 139.328 157.59 139.094 157.59ZM142.157 157.59C141.951 157.59 141.765 157.549 141.6 157.467C141.434 157.385 141.302 157.273 141.202 157.129C141.102 156.986 141.048 156.823 141.038 156.64H141.461C141.477 156.803 141.551 156.938 141.682 157.045C141.815 157.151 141.973 157.203 142.157 157.203C142.305 157.203 142.437 157.169 142.551 157.1C142.668 157.03 142.758 156.935 142.824 156.814C142.891 156.692 142.924 156.555 142.924 156.401C142.924 156.244 142.89 156.104 142.821 155.981C142.753 155.856 142.659 155.758 142.539 155.687C142.42 155.615 142.283 155.579 142.129 155.578C142.019 155.576 141.906 155.593 141.79 155.629C141.673 155.663 141.578 155.707 141.503 155.761L141.095 155.711L141.313 153.938H143.185V154.325H141.679L141.552 155.388H141.573C141.647 155.329 141.74 155.28 141.851 155.242C141.963 155.203 142.079 155.183 142.2 155.183C142.42 155.183 142.617 155.236 142.789 155.342C142.963 155.446 143.099 155.589 143.197 155.771C143.297 155.953 143.347 156.161 143.347 156.394C143.347 156.624 143.295 156.829 143.192 157.01C143.09 157.189 142.949 157.331 142.77 157.436C142.59 157.539 142.386 157.59 142.157 157.59Z" fill="#65676D"/>
<path d="M156.733 157.541V157.224L157.922 155.922C158.062 155.77 158.177 155.637 158.267 155.525C158.357 155.411 158.424 155.304 158.468 155.205C158.512 155.104 158.534 154.998 158.534 154.888C158.534 154.761 158.504 154.652 158.443 154.559C158.383 154.466 158.301 154.395 158.197 154.344C158.092 154.294 157.975 154.269 157.845 154.269C157.706 154.269 157.586 154.297 157.482 154.355C157.38 154.411 157.301 154.49 157.245 154.592C157.19 154.694 157.162 154.814 157.162 154.951H156.747C156.747 154.74 156.796 154.555 156.893 154.395C156.99 154.236 157.123 154.111 157.291 154.022C157.459 153.933 157.649 153.889 157.859 153.889C158.07 153.889 158.257 153.933 158.42 154.022C158.583 154.111 158.711 154.232 158.804 154.383C158.896 154.534 158.943 154.703 158.943 154.888C158.943 155.02 158.919 155.15 158.871 155.277C158.824 155.402 158.741 155.542 158.624 155.697C158.508 155.851 158.347 156.039 158.14 156.26L157.331 157.126V157.154H159.006V157.541H156.733ZM160.908 157.59C160.643 157.59 160.417 157.518 160.231 157.374C160.044 157.229 159.902 157.018 159.803 156.742C159.704 156.466 159.655 156.131 159.655 155.739C159.655 155.35 159.704 155.017 159.803 154.742C159.903 154.465 160.046 154.254 160.232 154.108C160.42 153.962 160.645 153.889 160.908 153.889C161.171 153.889 161.395 153.962 161.582 154.108C161.769 154.254 161.913 154.465 162.011 154.742C162.111 155.017 162.161 155.35 162.161 155.739C162.161 156.131 162.111 156.466 162.013 156.742C161.914 157.018 161.772 157.229 161.585 157.374C161.399 157.518 161.173 157.59 160.908 157.59ZM160.908 157.203C161.171 157.203 161.375 157.077 161.52 156.823C161.666 156.57 161.738 156.209 161.738 155.739C161.738 155.427 161.705 155.162 161.638 154.942C161.572 154.723 161.477 154.556 161.353 154.441C161.23 154.326 161.082 154.269 160.908 154.269C160.648 154.269 160.444 154.397 160.297 154.654C160.151 154.91 160.077 155.271 160.077 155.739C160.077 156.051 160.11 156.317 160.176 156.535C160.242 156.753 160.336 156.919 160.459 157.033C160.584 157.146 160.733 157.203 160.908 157.203ZM164.047 157.59C163.815 157.59 163.608 157.551 163.426 157.471C163.245 157.391 163.101 157.28 162.995 157.138C162.889 156.995 162.832 156.829 162.822 156.64H163.266C163.275 156.756 163.315 156.857 163.385 156.941C163.456 157.024 163.548 157.089 163.661 157.135C163.775 157.18 163.901 157.203 164.04 157.203C164.195 157.203 164.332 157.176 164.451 157.122C164.571 157.068 164.665 156.993 164.733 156.897C164.801 156.801 164.835 156.69 164.835 156.563C164.835 156.43 164.802 156.314 164.737 156.213C164.671 156.111 164.575 156.031 164.448 155.973C164.321 155.916 164.166 155.887 163.983 155.887H163.695V155.5H163.983C164.127 155.5 164.252 155.474 164.36 155.423C164.469 155.371 164.554 155.298 164.615 155.205C164.677 155.111 164.708 155 164.708 154.874C164.708 154.752 164.681 154.646 164.627 154.555C164.573 154.465 164.497 154.395 164.399 154.344C164.301 154.294 164.186 154.269 164.054 154.269C163.93 154.269 163.812 154.291 163.702 154.337C163.593 154.382 163.504 154.447 163.435 154.532C163.365 154.617 163.328 154.719 163.322 154.839H162.9C162.907 154.65 162.964 154.484 163.07 154.342C163.177 154.199 163.317 154.088 163.489 154.008C163.663 153.928 163.853 153.889 164.061 153.889C164.284 153.889 164.475 153.934 164.634 154.024C164.794 154.113 164.917 154.231 165.002 154.378C165.088 154.524 165.131 154.683 165.131 154.853C165.131 155.056 165.077 155.229 164.971 155.372C164.865 155.515 164.721 155.614 164.539 155.669V155.697C164.767 155.735 164.945 155.832 165.073 155.988C165.2 156.142 165.264 156.334 165.264 156.563C165.264 156.759 165.211 156.935 165.104 157.091C164.999 157.246 164.854 157.368 164.671 157.457C164.488 157.546 164.28 157.59 164.047 157.59ZM167.131 153.889C167.279 153.89 167.427 153.918 167.575 153.973C167.722 154.028 167.857 154.12 167.979 154.247C168.101 154.374 168.199 154.547 168.273 154.766C168.347 154.986 168.384 155.261 168.384 155.592C168.384 155.912 168.353 156.196 168.292 156.445C168.233 156.692 168.146 156.901 168.032 157.071C167.919 157.241 167.782 157.37 167.62 157.458C167.46 157.546 167.278 157.59 167.075 157.59C166.873 157.59 166.693 157.551 166.535 157.471C166.377 157.39 166.248 157.278 166.148 157.135C166.048 156.99 165.984 156.823 165.956 156.633H166.385C166.424 156.799 166.501 156.935 166.616 157.043C166.732 157.15 166.885 157.203 167.075 157.203C167.353 157.203 167.572 157.082 167.733 156.839C167.895 156.596 167.976 156.253 167.976 155.81H167.948C167.882 155.908 167.804 155.993 167.714 156.065C167.623 156.137 167.523 156.192 167.413 156.23C167.302 156.269 167.185 156.288 167.061 156.288C166.854 156.288 166.665 156.237 166.492 156.135C166.321 156.032 166.184 155.891 166.081 155.711C165.979 155.531 165.928 155.324 165.928 155.092C165.928 154.871 165.977 154.67 166.075 154.487C166.175 154.303 166.315 154.156 166.494 154.047C166.675 153.938 166.887 153.885 167.131 153.889ZM167.131 154.276C166.983 154.276 166.85 154.313 166.732 154.386C166.614 154.459 166.521 154.558 166.452 154.682C166.384 154.805 166.35 154.942 166.35 155.092C166.35 155.242 166.383 155.379 166.448 155.502C166.515 155.624 166.606 155.721 166.721 155.794C166.837 155.866 166.969 155.901 167.117 155.901C167.228 155.901 167.332 155.88 167.428 155.836C167.525 155.792 167.609 155.731 167.68 155.655C167.753 155.578 167.81 155.49 167.851 155.393C167.892 155.294 167.912 155.192 167.912 155.085C167.912 154.944 167.878 154.812 167.81 154.689C167.743 154.566 167.651 154.466 167.532 154.39C167.415 154.314 167.281 154.276 167.131 154.276Z" fill="#65676D"/>
<path d="M181.676 157.541V157.224L182.865 155.922C183.005 155.77 183.12 155.637 183.21 155.525C183.3 155.411 183.367 155.304 183.411 155.205C183.455 155.104 183.478 154.998 183.478 154.888C183.478 154.761 183.447 154.652 183.386 154.559C183.326 154.466 183.244 154.395 183.14 154.344C183.035 154.294 182.918 154.269 182.788 154.269C182.649 154.269 182.529 154.297 182.425 154.355C182.323 154.411 182.244 154.49 182.188 154.592C182.133 154.694 182.105 154.814 182.105 154.951H181.69C181.69 154.74 181.739 154.555 181.836 154.395C181.933 154.236 182.066 154.111 182.234 154.022C182.402 153.933 182.592 153.889 182.802 153.889C183.013 153.889 183.2 153.933 183.363 154.022C183.526 154.111 183.654 154.232 183.747 154.383C183.839 154.534 183.886 154.703 183.886 154.888C183.886 155.02 183.862 155.15 183.814 155.277C183.767 155.402 183.685 155.542 183.567 155.697C183.451 155.851 183.29 156.039 183.083 156.26L182.274 157.126V157.154H183.949V157.541H181.676ZM185.851 157.59C185.586 157.59 185.36 157.518 185.174 157.374C184.987 157.229 184.845 157.018 184.746 156.742C184.648 156.466 184.598 156.131 184.598 155.739C184.598 155.35 184.648 155.017 184.746 154.742C184.846 154.465 184.989 154.254 185.175 154.108C185.363 153.962 185.588 153.889 185.851 153.889C186.114 153.889 186.338 153.962 186.525 154.108C186.713 154.254 186.856 154.465 186.954 154.742C187.054 155.017 187.104 155.35 187.104 155.739C187.104 156.131 187.054 156.466 186.956 156.742C186.857 157.018 186.715 157.229 186.528 157.374C186.342 157.518 186.116 157.59 185.851 157.59ZM185.851 157.203C186.114 157.203 186.318 157.077 186.463 156.823C186.609 156.57 186.681 156.209 186.681 155.739C186.681 155.427 186.648 155.162 186.581 154.942C186.515 154.723 186.42 154.556 186.296 154.441C186.173 154.326 186.025 154.269 185.851 154.269C185.591 154.269 185.387 154.397 185.24 154.654C185.094 154.91 185.021 155.271 185.021 155.739C185.021 156.051 185.053 156.317 185.119 156.535C185.185 156.753 185.279 156.919 185.402 157.033C185.527 157.146 185.676 157.203 185.851 157.203ZM187.688 156.802V156.443L189.271 153.938H189.532V154.494H189.356L188.159 156.387V156.415H190.292V156.802H187.688ZM189.384 157.541V156.693V156.526V153.938H189.799V157.541H189.384ZM192.169 157.59C191.937 157.59 191.729 157.551 191.548 157.471C191.367 157.391 191.223 157.28 191.117 157.138C191.011 156.995 190.954 156.829 190.944 156.64H191.388C191.397 156.756 191.437 156.857 191.507 156.941C191.578 157.024 191.67 157.089 191.783 157.135C191.897 157.18 192.023 157.203 192.162 157.203C192.317 157.203 192.454 157.176 192.573 157.122C192.693 157.068 192.787 156.993 192.855 156.897C192.923 156.801 192.957 156.69 192.957 156.563C192.957 156.43 192.924 156.314 192.858 156.213C192.793 156.111 192.697 156.031 192.57 155.973C192.443 155.916 192.288 155.887 192.105 155.887H191.817V155.5H192.105C192.249 155.5 192.374 155.474 192.482 155.423C192.591 155.371 192.676 155.298 192.737 155.205C192.799 155.111 192.83 155 192.83 154.874C192.83 154.752 192.803 154.646 192.749 154.555C192.695 154.465 192.619 154.395 192.521 154.344C192.423 154.294 192.308 154.269 192.176 154.269C192.051 154.269 191.934 154.291 191.824 154.337C191.715 154.382 191.626 154.447 191.556 154.532C191.487 154.617 191.45 154.719 191.444 154.839H191.022C191.029 154.65 191.086 154.484 191.192 154.342C191.299 154.199 191.439 154.088 191.611 154.008C191.785 153.928 191.975 153.889 192.183 153.889C192.406 153.889 192.597 153.934 192.756 154.024C192.916 154.113 193.039 154.231 193.124 154.378C193.21 154.524 193.253 154.683 193.253 154.853C193.253 155.056 193.199 155.229 193.092 155.372C192.987 155.515 192.843 155.614 192.661 155.669V155.697C192.889 155.735 193.067 155.832 193.195 155.988C193.322 156.142 193.386 156.334 193.386 156.563C193.386 156.759 193.333 156.935 193.226 157.091C193.121 157.246 192.976 157.368 192.793 157.457C192.61 157.546 192.402 157.59 192.169 157.59Z" fill="#65676D"/>
<path d="M207.03 157.541V157.224L208.219 155.922C208.359 155.77 208.474 155.637 208.564 155.525C208.655 155.411 208.722 155.304 208.765 155.205C208.809 155.104 208.832 154.998 208.832 154.888C208.832 154.761 208.801 154.652 208.74 154.559C208.68 154.466 208.598 154.395 208.494 154.344C208.39 154.294 208.272 154.269 208.142 154.269C208.004 154.269 207.883 154.297 207.78 154.355C207.678 154.411 207.598 154.49 207.542 154.592C207.487 154.694 207.459 154.814 207.459 154.951H207.044C207.044 154.74 207.093 154.555 207.19 154.395C207.288 154.236 207.42 154.111 207.588 154.022C207.757 153.933 207.946 153.889 208.156 153.889C208.367 153.889 208.554 153.933 208.717 154.022C208.88 154.111 209.008 154.232 209.101 154.383C209.194 154.534 209.24 154.703 209.24 154.888C209.24 155.02 209.216 155.15 209.168 155.277C209.121 155.402 209.039 155.542 208.922 155.697C208.805 155.851 208.644 156.039 208.438 156.26L207.628 157.126V157.154H209.303V157.541H207.03ZM211.205 157.59C210.94 157.59 210.714 157.518 210.528 157.374C210.341 157.229 210.199 157.018 210.1 156.742C210.002 156.466 209.953 156.131 209.953 155.739C209.953 155.35 210.002 155.017 210.1 154.742C210.2 154.465 210.343 154.254 210.53 154.108C210.717 153.962 210.943 153.889 211.205 153.889C211.468 153.889 211.693 153.962 211.879 154.108C212.067 154.254 212.21 154.465 212.308 154.742C212.408 155.017 212.458 155.35 212.458 155.739C212.458 156.131 212.409 156.466 212.31 156.742C212.212 157.018 212.069 157.229 211.883 157.374C211.696 157.518 211.47 157.59 211.205 157.59ZM211.205 157.203C211.468 157.203 211.672 157.077 211.818 156.823C211.963 156.57 212.036 156.209 212.036 155.739C212.036 155.427 212.002 155.162 211.935 154.942C211.87 154.723 211.775 154.556 211.65 154.441C211.527 154.326 211.379 154.269 211.205 154.269C210.945 154.269 210.741 154.397 210.595 154.654C210.448 154.91 210.375 155.271 210.375 155.739C210.375 156.051 210.408 156.317 210.473 156.535C210.539 156.753 210.633 156.919 210.757 157.033C210.881 157.146 211.031 157.203 211.205 157.203ZM213.042 156.802V156.443L214.626 153.938H214.886V154.494H214.71L213.514 156.387V156.415H215.646V156.802H213.042ZM214.738 157.541V156.693V156.526V153.938H215.153V157.541H214.738ZM216.418 157.541L218.03 154.353V154.325H216.172V153.938H218.48V154.346L216.876 157.541H216.418Z" fill="#65676D"/>
<path d="M231.799 157.541V157.224L232.988 155.922C233.128 155.77 233.243 155.637 233.333 155.525C233.424 155.411 233.49 155.304 233.534 155.205C233.578 155.104 233.601 154.998 233.601 154.888C233.601 154.761 233.57 154.652 233.509 154.559C233.449 154.466 233.367 154.395 233.263 154.344C233.158 154.294 233.041 154.269 232.911 154.269C232.773 154.269 232.652 154.297 232.549 154.355C232.446 154.411 232.367 154.49 232.311 154.592C232.256 154.694 232.228 154.814 232.228 154.951H231.813C231.813 154.74 231.862 154.555 231.959 154.395C232.056 154.236 232.189 154.111 232.357 154.022C232.526 153.933 232.715 153.889 232.925 153.889C233.136 153.889 233.323 153.933 233.486 154.022C233.649 154.111 233.777 154.232 233.87 154.383C233.963 154.534 234.009 154.703 234.009 154.888C234.009 155.02 233.985 155.15 233.937 155.277C233.89 155.402 233.808 155.542 233.69 155.697C233.574 155.851 233.413 156.039 233.207 156.26L232.397 157.126V157.154H234.072V157.541H231.799ZM235.974 157.59C235.709 157.59 235.483 157.518 235.297 157.374C235.11 157.229 234.968 157.018 234.869 156.742C234.771 156.466 234.721 156.131 234.721 155.739C234.721 155.35 234.771 155.017 234.869 154.742C234.969 154.465 235.112 154.254 235.299 154.108C235.486 153.962 235.711 153.889 235.974 153.889C236.237 153.889 236.462 153.962 236.648 154.108C236.836 154.254 236.979 154.465 237.077 154.742C237.177 155.017 237.227 155.35 237.227 155.739C237.227 156.131 237.178 156.466 237.079 156.742C236.981 157.018 236.838 157.229 236.652 157.374C236.465 157.518 236.239 157.59 235.974 157.59ZM235.974 157.203C236.237 157.203 236.441 157.077 236.586 156.823C236.732 156.57 236.805 156.209 236.805 155.739C236.805 155.427 236.771 155.162 236.704 154.942C236.639 154.723 236.544 154.556 236.419 154.441C236.296 154.326 236.148 154.269 235.974 154.269C235.714 154.269 235.51 154.397 235.364 154.654C235.217 154.91 235.144 155.271 235.144 155.739C235.144 156.051 235.177 156.317 235.242 156.535C235.308 156.753 235.402 156.919 235.525 157.033C235.65 157.146 235.799 157.203 235.974 157.203ZM237.811 156.802V156.443L239.395 153.938H239.655V154.494H239.479L238.283 156.387V156.415H240.415V156.802H237.811ZM239.507 157.541V156.693V156.526V153.938H239.922V157.541H239.507ZM242.222 153.889C242.369 153.89 242.517 153.918 242.665 153.973C242.813 154.028 242.948 154.12 243.07 154.247C243.192 154.374 243.29 154.547 243.363 154.766C243.437 154.986 243.474 155.261 243.474 155.592C243.474 155.912 243.444 156.196 243.383 156.445C243.323 156.692 243.236 156.901 243.122 157.071C243.01 157.241 242.873 157.37 242.711 157.458C242.55 157.546 242.368 157.59 242.165 157.59C241.963 157.59 241.783 157.551 241.625 157.471C241.468 157.39 241.339 157.278 241.238 157.135C241.138 156.99 241.074 156.823 241.046 156.633H241.476C241.514 156.799 241.591 156.935 241.706 157.043C241.822 157.15 241.975 157.203 242.165 157.203C242.443 157.203 242.663 157.082 242.823 156.839C242.985 156.596 243.066 156.253 243.066 155.81H243.038C242.972 155.908 242.894 155.993 242.804 156.065C242.714 156.137 242.613 156.192 242.503 156.23C242.393 156.269 242.275 156.288 242.151 156.288C241.945 156.288 241.755 156.237 241.583 156.135C241.412 156.032 241.274 155.891 241.171 155.711C241.069 155.531 241.018 155.324 241.018 155.092C241.018 154.871 241.067 154.67 241.166 154.487C241.266 154.303 241.405 154.156 241.585 154.047C241.765 153.938 241.978 153.885 242.222 153.889ZM242.222 154.276C242.074 154.276 241.941 154.313 241.822 154.386C241.705 154.459 241.612 154.558 241.542 154.682C241.474 154.805 241.44 154.942 241.44 155.092C241.44 155.242 241.473 155.379 241.539 155.502C241.606 155.624 241.697 155.721 241.812 155.794C241.928 155.866 242.06 155.901 242.207 155.901C242.319 155.901 242.423 155.88 242.519 155.836C242.615 155.792 242.699 155.731 242.77 155.655C242.843 155.578 242.9 155.49 242.941 155.393C242.982 155.294 243.003 155.192 243.003 155.085C243.003 154.944 242.969 154.812 242.901 154.689C242.834 154.566 242.741 154.466 242.623 154.39C242.505 154.314 242.372 154.276 242.222 154.276Z" fill="#65676D"/>
<path d="M38.631 30.4599V43.5508H36.5217L30.3533 34.6339H30.2447V43.5508H27.8732V30.4599H29.9954L36.1573 39.3832H36.2724V30.4599H38.631ZM45.4593 43.7425C44.475 43.7425 43.6248 43.538 42.9089 43.1289C42.1973 42.7156 41.6497 42.1317 41.2662 41.3775C40.8826 40.619 40.6909 39.7262 40.6909 38.6992C40.6909 37.6893 40.8826 36.8029 41.2662 36.0401C41.6539 35.2731 42.1951 34.6765 42.8897 34.2504C43.5843 33.82 44.4004 33.6048 45.3379 33.6048C45.943 33.6048 46.514 33.7028 47.051 33.8988C47.5922 34.0906 48.0694 34.3888 48.4828 34.7937C48.9004 35.1985 49.2285 35.7141 49.4672 36.3406C49.7058 36.9627 49.8251 37.7042 49.8251 38.565V39.2745H41.7775V37.7148H47.6071C47.6028 37.2717 47.5069 36.8775 47.3194 36.5323C47.1319 36.1829 46.8699 35.908 46.5332 35.7077C46.2008 35.5075 45.813 35.4073 45.3699 35.4073C44.8968 35.4073 44.4814 35.5224 44.1234 35.7525C43.7654 35.9783 43.4863 36.2766 43.286 36.6474C43.09 37.0138 42.9899 37.4165 42.9856 37.8555V39.217C42.9856 39.788 43.09 40.2781 43.2988 40.6871C43.5076 41.092 43.7995 41.4031 44.1745 41.6204C44.5495 41.8335 44.9885 41.94 45.4913 41.94C45.8279 41.94 46.1326 41.8931 46.4054 41.7994C46.6781 41.7013 46.9146 41.5586 47.1149 41.3711C47.3152 41.1836 47.4664 40.9513 47.5687 40.6744L49.7292 40.9173C49.5929 41.4883 49.3329 41.9869 48.9494 42.413C48.5701 42.8349 48.0843 43.163 47.492 43.3974C46.8997 43.6275 46.2221 43.7425 45.4593 43.7425ZM56.6854 33.7326V35.5224H51.0412V33.7326H56.6854ZM52.4347 31.3803H54.7486V40.5977C54.7486 40.9087 54.7955 41.1474 54.8892 41.3136C54.9872 41.4755 55.1151 41.5863 55.2727 41.646C55.4304 41.7056 55.6051 41.7354 55.7969 41.7354C55.9418 41.7354 56.0739 41.7248 56.1932 41.7035C56.3168 41.6822 56.4105 41.663 56.4744 41.646L56.8643 43.4549C56.7408 43.4975 56.5639 43.5444 56.3338 43.5955C56.108 43.6467 55.831 43.6765 55.5028 43.685C54.9233 43.7021 54.4013 43.6147 53.9368 43.4229C53.4723 43.2269 53.1037 42.9244 52.831 42.5153C52.5625 42.1062 52.4304 41.5948 52.4347 40.9812V31.3803ZM65.9426 43.5508L62.248 30.4599H64.7985L67.1571 40.0799H67.2786L69.7971 30.4599H72.1174L74.6422 40.0863H74.7573L77.1159 30.4599H79.6664L75.9718 43.5508H73.6323L71.0115 34.3654H70.9093L68.2821 43.5508H65.9426ZM84.4892 43.7425C83.5304 43.7425 82.6994 43.5316 81.9963 43.1097C81.2931 42.6879 80.7477 42.0977 80.3599 41.3391C79.9764 40.5806 79.7846 39.6942 79.7846 38.68C79.7846 37.6658 79.9764 36.7773 80.3599 36.0146C80.7477 35.2518 81.2931 34.6594 81.9963 34.2376C82.6994 33.8157 83.5304 33.6048 84.4892 33.6048C85.448 33.6048 86.2789 33.8157 86.9821 34.2376C87.6852 34.6594 88.2285 35.2518 88.612 36.0146C88.9998 36.7773 89.1937 37.6658 89.1937 38.68C89.1937 39.6942 88.9998 40.5806 88.612 41.3391C88.2285 42.0977 87.6852 42.6879 86.9821 43.1097C86.2789 43.5316 85.448 43.7425 84.4892 43.7425ZM84.502 41.8888C85.0218 41.8888 85.4565 41.7461 85.8059 41.4606C86.1554 41.1708 86.4153 40.783 86.5858 40.2972C86.7605 39.8114 86.8478 39.2702 86.8478 38.6737C86.8478 38.0728 86.7605 37.5295 86.5858 37.0437C86.4153 36.5536 86.1554 36.1637 85.8059 35.8739C85.4565 35.5842 85.0218 35.4393 84.502 35.4393C83.9693 35.4393 83.5261 35.5842 83.1724 35.8739C82.823 36.1637 82.5609 36.5536 82.3862 37.0437C82.2157 37.5295 82.1305 38.0728 82.1305 38.6737C82.1305 39.2702 82.2157 39.8114 82.3862 40.2972C82.5609 40.783 82.823 41.1708 83.1724 41.4606C83.5261 41.7461 83.9693 41.8888 84.502 41.8888ZM91.1577 43.5508V33.7326H93.4013V35.369H93.5036C93.6825 34.8022 93.9893 34.3654 94.424 34.0586C94.8629 33.7475 95.3636 33.592 95.9261 33.592C96.054 33.592 96.1967 33.5984 96.3544 33.6111C96.5163 33.6197 96.6506 33.6346 96.7571 33.6559V35.7844C96.6591 35.7504 96.5036 35.7205 96.2905 35.695C96.0817 35.6651 95.8793 35.6502 95.6832 35.6502C95.2614 35.6502 94.8821 35.7418 94.5455 35.9251C94.2131 36.104 93.951 36.3533 93.7592 36.6729C93.5675 36.9925 93.4716 37.3612 93.4716 37.7788V43.5508H91.1577ZM103.724 33.7326V35.5224H98.0803V33.7326H103.724ZM99.4737 31.3803H101.788V40.5977C101.788 40.9087 101.835 41.1474 101.928 41.3136C102.026 41.4755 102.154 41.5863 102.312 41.646C102.469 41.7056 102.644 41.7354 102.836 41.7354C102.981 41.7354 103.113 41.7248 103.232 41.7035C103.356 41.6822 103.45 41.663 103.513 41.646L103.903 43.4549C103.78 43.4975 103.603 43.5444 103.373 43.5955C103.147 43.6467 102.87 43.6765 102.542 43.685C101.962 43.7021 101.44 43.6147 100.976 43.4229C100.511 43.2269 100.143 42.9244 99.87 42.5153C99.6016 42.1062 99.4695 41.5948 99.4737 40.9812V31.3803ZM108.184 37.7979V43.5508H105.871V30.4599H108.133V35.4009H108.248C108.479 34.8469 108.834 34.4102 109.316 34.0906C109.802 33.7667 110.42 33.6048 111.17 33.6048C111.851 33.6048 112.446 33.7475 112.953 34.033C113.46 34.3185 113.852 34.7362 114.129 35.2859C114.41 35.8356 114.551 36.5067 114.551 37.2994V43.5508H112.237V37.6573C112.237 36.9968 112.067 36.4833 111.726 36.1168C111.389 35.7461 110.916 35.5607 110.307 35.5607C109.898 35.5607 109.531 35.6502 109.207 35.8292C108.888 36.0039 108.636 36.2575 108.453 36.5898C108.274 36.9222 108.184 37.3249 108.184 37.7979Z" fill="#1E1B39"/>
</g>
<defs>
<filter id="filter0_dd_950_357853" x="0.151899" y="0.658228" width="274.495" height="186.797" filterUnits="userSpaceOnUse" color-interpolation-filters="sRGB">
<feFlood flood-opacity="0" result="BackgroundImageFix"/>
<feColorMatrix in="SourceAlpha" type="matrix" values="0 0 0 0 0 0 0 0 0 0 0 0 0 0 0 0 0 0 127 0" result="hardAlpha"/>
<feMorphology radius="0.835443" operator="erode" in="SourceAlpha" result="effect1_dropShadow_950_357853"/>
<feOffset dy="2.50633"/>
<feGaussianBlur stdDeviation="3.34177"/>
<feColorMatrix type="matrix" values="0 0 0 0 0.196078 0 0 0 0 0.196078 0 0 0 0 0.278431 0 0 0 0.05 0"/>
<feBlend mode="normal" in2="BackgroundImageFix" result="effect1_dropShadow_950_357853"/>
<feColorMatrix in="SourceAlpha" type="matrix" values="0 0 0 0 0 0 0 0 0 0 0 0 0 0 0 0 0 0 127 0" result="hardAlpha"/>
<feOffset/>
<feGaussianBlur stdDeviation="0.417722"/>
<feColorMatrix type="matrix" values="0 0 0 0 0.0470588 0 0 0 0 0.101961 0 0 0 0 0.294118 0 0 0 0.24 0"/>
<feBlend mode="normal" in2="effect1_dropShadow_950_357853" result="effect2_dropShadow_950_357853"/>
<feBlend mode="normal" in="SourceGraphic" in2="effect2_dropShadow_950_357853" result="shape"/>
</filter>
</defs>
</svg>
